%TF.GenerationSoftware,KiCad,Pcbnew,(6.0.4)*%
%TF.CreationDate,2022-04-08T01:44:20+01:00*%
%TF.ProjectId,test,74657374-2e6b-4696-9361-645f70636258,rev?*%
%TF.SameCoordinates,Original*%
%TF.FileFunction,Legend,Bot*%
%TF.FilePolarity,Positive*%
%FSLAX46Y46*%
G04 Gerber Fmt 4.6, Leading zero omitted, Abs format (unit mm)*
G04 Created by KiCad (PCBNEW (6.0.4)) date 2022-04-08 01:44:20*
%MOMM*%
%LPD*%
G01*
G04 APERTURE LIST*
%ADD10C,0.200000*%
%ADD11C,0.300000*%
%ADD12C,0.080000*%
%ADD13C,0.086412*%
%ADD14C,0.120000*%
G04 APERTURE END LIST*
D10*
X139839904Y-71318380D02*
X139839904Y-70651714D01*
X139839904Y-70842190D02*
X139792285Y-70746952D01*
X139744666Y-70699333D01*
X139649428Y-70651714D01*
X139554190Y-70651714D01*
X138839904Y-71270761D02*
X138935142Y-71318380D01*
X139125619Y-71318380D01*
X139220857Y-71270761D01*
X139268476Y-71175523D01*
X139268476Y-70794571D01*
X139220857Y-70699333D01*
X139125619Y-70651714D01*
X138935142Y-70651714D01*
X138839904Y-70699333D01*
X138792285Y-70794571D01*
X138792285Y-70889809D01*
X139268476Y-70985047D01*
X138458952Y-70651714D02*
X138220857Y-71318380D01*
X137982761Y-70651714D01*
X136649428Y-70318380D02*
X136554190Y-70318380D01*
X136458952Y-70366000D01*
X136411333Y-70413619D01*
X136363714Y-70508857D01*
X136316095Y-70699333D01*
X136316095Y-70937428D01*
X136363714Y-71127904D01*
X136411333Y-71223142D01*
X136458952Y-71270761D01*
X136554190Y-71318380D01*
X136649428Y-71318380D01*
X136744666Y-71270761D01*
X136792285Y-71223142D01*
X136839904Y-71127904D01*
X136887523Y-70937428D01*
X136887523Y-70699333D01*
X136839904Y-70508857D01*
X136792285Y-70413619D01*
X136744666Y-70366000D01*
X136649428Y-70318380D01*
X135887523Y-71223142D02*
X135839904Y-71270761D01*
X135887523Y-71318380D01*
X135935142Y-71270761D01*
X135887523Y-71223142D01*
X135887523Y-71318380D01*
X134887523Y-71318380D02*
X135458952Y-71318380D01*
X135173238Y-71318380D02*
X135173238Y-70318380D01*
X135268476Y-70461238D01*
X135363714Y-70556476D01*
X135458952Y-70604095D01*
D11*
X139655857Y-40111071D02*
X139655857Y-38611071D01*
X139655857Y-39182500D02*
X139513000Y-39111071D01*
X139227285Y-39111071D01*
X139084428Y-39182500D01*
X139013000Y-39253928D01*
X138941571Y-39396785D01*
X138941571Y-39825357D01*
X139013000Y-39968214D01*
X139084428Y-40039642D01*
X139227285Y-40111071D01*
X139513000Y-40111071D01*
X139655857Y-40039642D01*
X138441571Y-39111071D02*
X138084428Y-40111071D01*
X137727285Y-39111071D02*
X138084428Y-40111071D01*
X138227285Y-40468214D01*
X138298714Y-40539642D01*
X138441571Y-40611071D01*
X137155857Y-39968214D02*
X137084428Y-40039642D01*
X137155857Y-40111071D01*
X137227285Y-40039642D01*
X137155857Y-39968214D01*
X137155857Y-40111071D01*
X137155857Y-39182500D02*
X137084428Y-39253928D01*
X137155857Y-39325357D01*
X137227285Y-39253928D01*
X137155857Y-39182500D01*
X137155857Y-39325357D01*
X139870142Y-41954642D02*
X139798714Y-41883214D01*
X139655857Y-41811785D01*
X139370142Y-41954642D01*
X139227285Y-41883214D01*
X139155857Y-41811785D01*
X138584428Y-41526071D02*
X138584428Y-43026071D01*
X138584428Y-41597500D02*
X138441571Y-41526071D01*
X138155857Y-41526071D01*
X138013000Y-41597500D01*
X137941571Y-41668928D01*
X137870142Y-41811785D01*
X137870142Y-42240357D01*
X137941571Y-42383214D01*
X138013000Y-42454642D01*
X138155857Y-42526071D01*
X138441571Y-42526071D01*
X138584428Y-42454642D01*
X137227285Y-42526071D02*
X137227285Y-41526071D01*
X137227285Y-41026071D02*
X137298714Y-41097500D01*
X137227285Y-41168928D01*
X137155857Y-41097500D01*
X137227285Y-41026071D01*
X137227285Y-41168928D01*
X135870142Y-42454642D02*
X136013000Y-42526071D01*
X136298714Y-42526071D01*
X136441571Y-42454642D01*
X136513000Y-42383214D01*
X136584428Y-42240357D01*
X136584428Y-41811785D01*
X136513000Y-41668928D01*
X136441571Y-41597500D01*
X136298714Y-41526071D01*
X136013000Y-41526071D01*
X135870142Y-41597500D01*
X135013000Y-42526071D02*
X135155857Y-42454642D01*
X135227285Y-42311785D01*
X135227285Y-41026071D01*
X134584428Y-41526071D02*
X134227285Y-42526071D01*
X133870142Y-41526071D02*
X134227285Y-42526071D01*
X134370142Y-42883214D01*
X134441571Y-42954642D01*
X134584428Y-43026071D01*
X133441571Y-42526071D02*
X132655857Y-41526071D01*
X133441571Y-41526071D02*
X132655857Y-42526071D01*
X132084428Y-41954642D02*
X130941571Y-41954642D01*
X129584428Y-42526071D02*
X129584428Y-41026071D01*
X129584428Y-42454642D02*
X129727285Y-42526071D01*
X130013000Y-42526071D01*
X130155857Y-42454642D01*
X130227285Y-42383214D01*
X130298714Y-42240357D01*
X130298714Y-41811785D01*
X130227285Y-41668928D01*
X130155857Y-41597500D01*
X130013000Y-41526071D01*
X129727285Y-41526071D01*
X129584428Y-41597500D01*
X128655857Y-42526071D02*
X128798714Y-42454642D01*
X128870142Y-42383214D01*
X128941571Y-42240357D01*
X128941571Y-41811785D01*
X128870142Y-41668928D01*
X128798714Y-41597500D01*
X128655857Y-41526071D01*
X128441571Y-41526071D01*
X128298714Y-41597500D01*
X128227285Y-41668928D01*
X128155857Y-41811785D01*
X128155857Y-42240357D01*
X128227285Y-42383214D01*
X128298714Y-42454642D01*
X128441571Y-42526071D01*
X128655857Y-42526071D01*
X126870142Y-42454642D02*
X127013000Y-42526071D01*
X127298714Y-42526071D01*
X127441571Y-42454642D01*
X127513000Y-42383214D01*
X127584428Y-42240357D01*
X127584428Y-41811785D01*
X127513000Y-41668928D01*
X127441571Y-41597500D01*
X127298714Y-41526071D01*
X127013000Y-41526071D01*
X126870142Y-41597500D01*
X126298714Y-42454642D02*
X126155857Y-42526071D01*
X125870142Y-42526071D01*
X125727285Y-42454642D01*
X125655857Y-42311785D01*
X125655857Y-42240357D01*
X125727285Y-42097500D01*
X125870142Y-42026071D01*
X126084428Y-42026071D01*
X126227285Y-41954642D01*
X126298714Y-41811785D01*
X126298714Y-41740357D01*
X126227285Y-41597500D01*
X126084428Y-41526071D01*
X125870142Y-41526071D01*
X125727285Y-41597500D01*
X124370142Y-41526071D02*
X124370142Y-42526071D01*
X125013000Y-41526071D02*
X125013000Y-42311785D01*
X124941571Y-42454642D01*
X124798714Y-42526071D01*
X124584428Y-42526071D01*
X124441571Y-42454642D01*
X124370142Y-42383214D01*
X123655857Y-41526071D02*
X123655857Y-42526071D01*
X123655857Y-41668928D02*
X123584428Y-41597500D01*
X123441571Y-41526071D01*
X123227285Y-41526071D01*
X123084428Y-41597500D01*
X123013000Y-41740357D01*
X123013000Y-42526071D01*
D12*
G36*
X134182932Y-30338395D02*
G01*
X134181167Y-30352286D01*
X134178726Y-30365955D01*
X134175627Y-30379384D01*
X134171886Y-30392555D01*
X134167522Y-30405452D01*
X134162552Y-30418057D01*
X134156994Y-30430352D01*
X134150864Y-30442321D01*
X134144181Y-30453944D01*
X134136961Y-30465206D01*
X134129222Y-30476089D01*
X134120982Y-30486575D01*
X134112258Y-30496646D01*
X134103067Y-30506286D01*
X134093428Y-30515476D01*
X134083356Y-30524201D01*
X134072870Y-30532441D01*
X134061988Y-30540179D01*
X134050726Y-30547399D01*
X134039102Y-30554083D01*
X134027134Y-30560213D01*
X134014839Y-30565771D01*
X134002234Y-30570741D01*
X133989337Y-30575105D01*
X133976165Y-30578845D01*
X133962737Y-30581945D01*
X133949068Y-30584386D01*
X133935177Y-30586151D01*
X133921080Y-30587223D01*
X133906797Y-30587584D01*
X133892513Y-30587223D01*
X133878417Y-30586151D01*
X133864526Y-30584386D01*
X133850857Y-30581945D01*
X133837428Y-30578845D01*
X133824256Y-30575105D01*
X133811359Y-30570741D01*
X133798755Y-30565771D01*
X133786459Y-30560213D01*
X133774491Y-30554083D01*
X133762867Y-30547399D01*
X133751606Y-30540179D01*
X133740723Y-30532441D01*
X133730237Y-30524201D01*
X133720166Y-30515476D01*
X133710526Y-30506286D01*
X133701335Y-30496646D01*
X133692611Y-30486575D01*
X133684371Y-30476089D01*
X133676632Y-30465206D01*
X133669412Y-30453944D01*
X133662729Y-30442321D01*
X133656599Y-30430352D01*
X133651041Y-30418057D01*
X133646071Y-30405452D01*
X133641707Y-30392555D01*
X133637966Y-30379384D01*
X133634867Y-30365955D01*
X133632426Y-30352286D01*
X133630661Y-30338395D01*
X133629589Y-30324299D01*
X133629228Y-30310015D01*
X133689570Y-30310015D01*
X133689852Y-30321193D01*
X133690691Y-30332225D01*
X133692072Y-30343097D01*
X133693983Y-30353794D01*
X133696408Y-30364303D01*
X133699336Y-30374612D01*
X133702751Y-30384705D01*
X133706640Y-30394570D01*
X133710990Y-30404192D01*
X133715788Y-30413559D01*
X133721018Y-30422655D01*
X133726669Y-30431469D01*
X133732725Y-30439986D01*
X133739174Y-30448192D01*
X133746001Y-30456074D01*
X133753194Y-30463618D01*
X133760738Y-30470811D01*
X133768620Y-30477638D01*
X133776826Y-30484087D01*
X133785343Y-30490144D01*
X133794156Y-30495794D01*
X133803253Y-30501024D01*
X133812620Y-30505822D01*
X133822242Y-30510172D01*
X133832107Y-30514061D01*
X133842200Y-30517477D01*
X133852508Y-30520404D01*
X133863018Y-30522829D01*
X133873715Y-30524740D01*
X133884586Y-30526121D01*
X133895618Y-30526960D01*
X133906797Y-30527243D01*
X133917975Y-30526960D01*
X133929007Y-30526121D01*
X133939878Y-30524740D01*
X133950576Y-30522829D01*
X133961085Y-30520404D01*
X133971394Y-30517477D01*
X133981487Y-30514061D01*
X133991352Y-30510172D01*
X134000974Y-30505822D01*
X134010341Y-30501024D01*
X134019437Y-30495794D01*
X134028251Y-30490144D01*
X134036768Y-30484087D01*
X134044974Y-30477638D01*
X134052856Y-30470811D01*
X134060400Y-30463618D01*
X134067593Y-30456074D01*
X134074420Y-30448192D01*
X134080869Y-30439986D01*
X134086925Y-30431469D01*
X134092576Y-30422655D01*
X134097806Y-30413559D01*
X134102604Y-30404192D01*
X134106954Y-30394570D01*
X134110843Y-30384705D01*
X134114258Y-30374612D01*
X134117186Y-30364303D01*
X134119611Y-30353794D01*
X134121522Y-30343097D01*
X134122903Y-30332225D01*
X134123742Y-30321193D01*
X134124024Y-30310015D01*
X134123742Y-30298836D01*
X134122903Y-30287805D01*
X134121522Y-30276933D01*
X134119611Y-30266236D01*
X134117186Y-30255726D01*
X134114258Y-30245418D01*
X134110843Y-30235325D01*
X134106954Y-30225460D01*
X134102604Y-30215838D01*
X134097806Y-30206471D01*
X134092576Y-30197374D01*
X134086925Y-30188561D01*
X134080869Y-30180044D01*
X134074420Y-30171838D01*
X134067593Y-30163956D01*
X134060400Y-30156412D01*
X134052856Y-30149219D01*
X134044974Y-30142391D01*
X134036768Y-30135943D01*
X134028251Y-30129886D01*
X134019437Y-30124236D01*
X134010341Y-30119005D01*
X134000974Y-30114208D01*
X133991352Y-30109858D01*
X133981487Y-30105968D01*
X133971394Y-30102553D01*
X133961085Y-30099626D01*
X133950576Y-30097200D01*
X133939878Y-30095290D01*
X133929007Y-30093909D01*
X133917975Y-30093070D01*
X133906797Y-30092787D01*
X133895618Y-30093070D01*
X133884586Y-30093909D01*
X133873715Y-30095290D01*
X133863018Y-30097200D01*
X133852508Y-30099626D01*
X133842200Y-30102553D01*
X133832107Y-30105968D01*
X133822242Y-30109858D01*
X133812620Y-30114208D01*
X133803253Y-30119005D01*
X133794156Y-30124236D01*
X133785343Y-30129886D01*
X133776826Y-30135943D01*
X133768620Y-30142391D01*
X133760738Y-30149219D01*
X133753194Y-30156412D01*
X133746001Y-30163956D01*
X133739174Y-30171838D01*
X133732725Y-30180044D01*
X133726669Y-30188561D01*
X133721018Y-30197374D01*
X133715788Y-30206471D01*
X133710990Y-30215838D01*
X133706640Y-30225460D01*
X133702751Y-30235325D01*
X133699336Y-30245418D01*
X133696408Y-30255726D01*
X133693983Y-30266236D01*
X133692072Y-30276933D01*
X133690691Y-30287805D01*
X133689852Y-30298836D01*
X133689570Y-30310015D01*
X133629228Y-30310015D01*
X133629589Y-30295731D01*
X133630661Y-30281635D01*
X133632426Y-30267744D01*
X133634867Y-30254075D01*
X133637966Y-30240646D01*
X133641707Y-30227474D01*
X133646071Y-30214578D01*
X133651041Y-30201973D01*
X133656599Y-30189677D01*
X133662729Y-30177709D01*
X133669412Y-30166085D01*
X133676632Y-30154824D01*
X133684371Y-30143941D01*
X133692611Y-30133455D01*
X133701335Y-30123384D01*
X133710526Y-30113744D01*
X133720166Y-30104554D01*
X133730237Y-30095829D01*
X133740723Y-30087589D01*
X133751606Y-30079851D01*
X133762867Y-30072631D01*
X133774491Y-30065947D01*
X133786459Y-30059818D01*
X133798755Y-30054259D01*
X133811359Y-30049289D01*
X133824256Y-30044925D01*
X133837428Y-30041185D01*
X133850857Y-30038085D01*
X133864526Y-30035644D01*
X133878417Y-30033879D01*
X133892513Y-30032807D01*
X133906797Y-30032446D01*
X133921080Y-30032807D01*
X133935177Y-30033879D01*
X133949068Y-30035644D01*
X133962737Y-30038085D01*
X133976165Y-30041185D01*
X133989337Y-30044925D01*
X134002234Y-30049289D01*
X134014839Y-30054259D01*
X134027134Y-30059818D01*
X134039102Y-30065947D01*
X134050726Y-30072631D01*
X134061988Y-30079851D01*
X134072870Y-30087589D01*
X134083356Y-30095829D01*
X134093428Y-30104554D01*
X134103067Y-30113744D01*
X134112258Y-30123384D01*
X134120982Y-30133455D01*
X134129222Y-30143941D01*
X134136961Y-30154824D01*
X134144181Y-30166085D01*
X134150864Y-30177709D01*
X134156994Y-30189677D01*
X134162552Y-30201973D01*
X134167522Y-30214578D01*
X134171886Y-30227474D01*
X134175627Y-30240646D01*
X134178726Y-30254075D01*
X134181167Y-30267744D01*
X134182932Y-30281635D01*
X134184004Y-30295731D01*
X134184365Y-30310015D01*
X134184004Y-30324299D01*
X134182932Y-30338395D01*
G37*
X134182932Y-30338395D02*
X134181167Y-30352286D01*
X134178726Y-30365955D01*
X134175627Y-30379384D01*
X134171886Y-30392555D01*
X134167522Y-30405452D01*
X134162552Y-30418057D01*
X134156994Y-30430352D01*
X134150864Y-30442321D01*
X134144181Y-30453944D01*
X134136961Y-30465206D01*
X134129222Y-30476089D01*
X134120982Y-30486575D01*
X134112258Y-30496646D01*
X134103067Y-30506286D01*
X134093428Y-30515476D01*
X134083356Y-30524201D01*
X134072870Y-30532441D01*
X134061988Y-30540179D01*
X134050726Y-30547399D01*
X134039102Y-30554083D01*
X134027134Y-30560213D01*
X134014839Y-30565771D01*
X134002234Y-30570741D01*
X133989337Y-30575105D01*
X133976165Y-30578845D01*
X133962737Y-30581945D01*
X133949068Y-30584386D01*
X133935177Y-30586151D01*
X133921080Y-30587223D01*
X133906797Y-30587584D01*
X133892513Y-30587223D01*
X133878417Y-30586151D01*
X133864526Y-30584386D01*
X133850857Y-30581945D01*
X133837428Y-30578845D01*
X133824256Y-30575105D01*
X133811359Y-30570741D01*
X133798755Y-30565771D01*
X133786459Y-30560213D01*
X133774491Y-30554083D01*
X133762867Y-30547399D01*
X133751606Y-30540179D01*
X133740723Y-30532441D01*
X133730237Y-30524201D01*
X133720166Y-30515476D01*
X133710526Y-30506286D01*
X133701335Y-30496646D01*
X133692611Y-30486575D01*
X133684371Y-30476089D01*
X133676632Y-30465206D01*
X133669412Y-30453944D01*
X133662729Y-30442321D01*
X133656599Y-30430352D01*
X133651041Y-30418057D01*
X133646071Y-30405452D01*
X133641707Y-30392555D01*
X133637966Y-30379384D01*
X133634867Y-30365955D01*
X133632426Y-30352286D01*
X133630661Y-30338395D01*
X133629589Y-30324299D01*
X133629228Y-30310015D01*
X133689570Y-30310015D01*
X133689852Y-30321193D01*
X133690691Y-30332225D01*
X133692072Y-30343097D01*
X133693983Y-30353794D01*
X133696408Y-30364303D01*
X133699336Y-30374612D01*
X133702751Y-30384705D01*
X133706640Y-30394570D01*
X133710990Y-30404192D01*
X133715788Y-30413559D01*
X133721018Y-30422655D01*
X133726669Y-30431469D01*
X133732725Y-30439986D01*
X133739174Y-30448192D01*
X133746001Y-30456074D01*
X133753194Y-30463618D01*
X133760738Y-30470811D01*
X133768620Y-30477638D01*
X133776826Y-30484087D01*
X133785343Y-30490144D01*
X133794156Y-30495794D01*
X133803253Y-30501024D01*
X133812620Y-30505822D01*
X133822242Y-30510172D01*
X133832107Y-30514061D01*
X133842200Y-30517477D01*
X133852508Y-30520404D01*
X133863018Y-30522829D01*
X133873715Y-30524740D01*
X133884586Y-30526121D01*
X133895618Y-30526960D01*
X133906797Y-30527243D01*
X133917975Y-30526960D01*
X133929007Y-30526121D01*
X133939878Y-30524740D01*
X133950576Y-30522829D01*
X133961085Y-30520404D01*
X133971394Y-30517477D01*
X133981487Y-30514061D01*
X133991352Y-30510172D01*
X134000974Y-30505822D01*
X134010341Y-30501024D01*
X134019437Y-30495794D01*
X134028251Y-30490144D01*
X134036768Y-30484087D01*
X134044974Y-30477638D01*
X134052856Y-30470811D01*
X134060400Y-30463618D01*
X134067593Y-30456074D01*
X134074420Y-30448192D01*
X134080869Y-30439986D01*
X134086925Y-30431469D01*
X134092576Y-30422655D01*
X134097806Y-30413559D01*
X134102604Y-30404192D01*
X134106954Y-30394570D01*
X134110843Y-30384705D01*
X134114258Y-30374612D01*
X134117186Y-30364303D01*
X134119611Y-30353794D01*
X134121522Y-30343097D01*
X134122903Y-30332225D01*
X134123742Y-30321193D01*
X134124024Y-30310015D01*
X134123742Y-30298836D01*
X134122903Y-30287805D01*
X134121522Y-30276933D01*
X134119611Y-30266236D01*
X134117186Y-30255726D01*
X134114258Y-30245418D01*
X134110843Y-30235325D01*
X134106954Y-30225460D01*
X134102604Y-30215838D01*
X134097806Y-30206471D01*
X134092576Y-30197374D01*
X134086925Y-30188561D01*
X134080869Y-30180044D01*
X134074420Y-30171838D01*
X134067593Y-30163956D01*
X134060400Y-30156412D01*
X134052856Y-30149219D01*
X134044974Y-30142391D01*
X134036768Y-30135943D01*
X134028251Y-30129886D01*
X134019437Y-30124236D01*
X134010341Y-30119005D01*
X134000974Y-30114208D01*
X133991352Y-30109858D01*
X133981487Y-30105968D01*
X133971394Y-30102553D01*
X133961085Y-30099626D01*
X133950576Y-30097200D01*
X133939878Y-30095290D01*
X133929007Y-30093909D01*
X133917975Y-30093070D01*
X133906797Y-30092787D01*
X133895618Y-30093070D01*
X133884586Y-30093909D01*
X133873715Y-30095290D01*
X133863018Y-30097200D01*
X133852508Y-30099626D01*
X133842200Y-30102553D01*
X133832107Y-30105968D01*
X133822242Y-30109858D01*
X133812620Y-30114208D01*
X133803253Y-30119005D01*
X133794156Y-30124236D01*
X133785343Y-30129886D01*
X133776826Y-30135943D01*
X133768620Y-30142391D01*
X133760738Y-30149219D01*
X133753194Y-30156412D01*
X133746001Y-30163956D01*
X133739174Y-30171838D01*
X133732725Y-30180044D01*
X133726669Y-30188561D01*
X133721018Y-30197374D01*
X133715788Y-30206471D01*
X133710990Y-30215838D01*
X133706640Y-30225460D01*
X133702751Y-30235325D01*
X133699336Y-30245418D01*
X133696408Y-30255726D01*
X133693983Y-30266236D01*
X133692072Y-30276933D01*
X133690691Y-30287805D01*
X133689852Y-30298836D01*
X133689570Y-30310015D01*
X133629228Y-30310015D01*
X133629589Y-30295731D01*
X133630661Y-30281635D01*
X133632426Y-30267744D01*
X133634867Y-30254075D01*
X133637966Y-30240646D01*
X133641707Y-30227474D01*
X133646071Y-30214578D01*
X133651041Y-30201973D01*
X133656599Y-30189677D01*
X133662729Y-30177709D01*
X133669412Y-30166085D01*
X133676632Y-30154824D01*
X133684371Y-30143941D01*
X133692611Y-30133455D01*
X133701335Y-30123384D01*
X133710526Y-30113744D01*
X133720166Y-30104554D01*
X133730237Y-30095829D01*
X133740723Y-30087589D01*
X133751606Y-30079851D01*
X133762867Y-30072631D01*
X133774491Y-30065947D01*
X133786459Y-30059818D01*
X133798755Y-30054259D01*
X133811359Y-30049289D01*
X133824256Y-30044925D01*
X133837428Y-30041185D01*
X133850857Y-30038085D01*
X133864526Y-30035644D01*
X133878417Y-30033879D01*
X133892513Y-30032807D01*
X133906797Y-30032446D01*
X133921080Y-30032807D01*
X133935177Y-30033879D01*
X133949068Y-30035644D01*
X133962737Y-30038085D01*
X133976165Y-30041185D01*
X133989337Y-30044925D01*
X134002234Y-30049289D01*
X134014839Y-30054259D01*
X134027134Y-30059818D01*
X134039102Y-30065947D01*
X134050726Y-30072631D01*
X134061988Y-30079851D01*
X134072870Y-30087589D01*
X134083356Y-30095829D01*
X134093428Y-30104554D01*
X134103067Y-30113744D01*
X134112258Y-30123384D01*
X134120982Y-30133455D01*
X134129222Y-30143941D01*
X134136961Y-30154824D01*
X134144181Y-30166085D01*
X134150864Y-30177709D01*
X134156994Y-30189677D01*
X134162552Y-30201973D01*
X134167522Y-30214578D01*
X134171886Y-30227474D01*
X134175627Y-30240646D01*
X134178726Y-30254075D01*
X134181167Y-30267744D01*
X134182932Y-30281635D01*
X134184004Y-30295731D01*
X134184365Y-30310015D01*
X134184004Y-30324299D01*
X134182932Y-30338395D01*
G36*
X133796750Y-33900450D02*
G01*
X133794985Y-33914341D01*
X133792544Y-33928010D01*
X133789444Y-33941439D01*
X133785704Y-33954611D01*
X133781340Y-33967508D01*
X133776370Y-33980113D01*
X133770812Y-33992408D01*
X133764682Y-34004376D01*
X133757998Y-34016000D01*
X133750779Y-34027262D01*
X133743040Y-34038144D01*
X133734800Y-34048630D01*
X133726076Y-34058701D01*
X133716885Y-34068341D01*
X133707245Y-34077532D01*
X133697174Y-34086256D01*
X133686688Y-34094496D01*
X133675806Y-34102235D01*
X133664544Y-34109455D01*
X133652920Y-34116138D01*
X133640952Y-34122268D01*
X133628657Y-34127827D01*
X133616052Y-34132797D01*
X133603155Y-34137161D01*
X133589983Y-34140901D01*
X133576554Y-34144000D01*
X133562885Y-34146441D01*
X133548994Y-34148206D01*
X133534898Y-34149278D01*
X133520614Y-34149640D01*
X133506331Y-34149278D01*
X133492235Y-34148206D01*
X133478344Y-34146441D01*
X133464675Y-34144000D01*
X133451246Y-34140901D01*
X133438074Y-34137161D01*
X133425177Y-34132797D01*
X133412572Y-34127827D01*
X133400277Y-34122268D01*
X133388309Y-34116138D01*
X133376685Y-34109455D01*
X133365423Y-34102235D01*
X133354541Y-34094496D01*
X133344055Y-34086256D01*
X133333984Y-34077532D01*
X133324344Y-34068341D01*
X133315153Y-34058701D01*
X133306429Y-34048630D01*
X133298189Y-34038144D01*
X133290450Y-34027262D01*
X133283230Y-34016000D01*
X133276547Y-34004376D01*
X133270417Y-33992408D01*
X133264858Y-33980113D01*
X133259888Y-33967508D01*
X133255524Y-33954611D01*
X133251784Y-33941439D01*
X133248685Y-33928010D01*
X133246244Y-33914341D01*
X133244479Y-33900450D01*
X133243407Y-33886354D01*
X133243045Y-33872071D01*
X133303387Y-33872071D01*
X133303669Y-33883249D01*
X133304508Y-33894281D01*
X133305890Y-33905152D01*
X133307800Y-33915849D01*
X133310226Y-33926359D01*
X133313153Y-33936667D01*
X133316568Y-33946761D01*
X133320458Y-33956625D01*
X133324808Y-33966248D01*
X133329605Y-33975614D01*
X133334836Y-33984711D01*
X133340486Y-33993525D01*
X133346542Y-34002041D01*
X133352991Y-34010247D01*
X133359819Y-34018129D01*
X133367011Y-34025674D01*
X133374556Y-34032866D01*
X133382438Y-34039694D01*
X133390644Y-34046143D01*
X133399160Y-34052199D01*
X133407974Y-34057849D01*
X133417071Y-34063080D01*
X133426437Y-34067877D01*
X133436060Y-34072227D01*
X133445924Y-34076117D01*
X133456018Y-34079532D01*
X133466326Y-34082459D01*
X133476836Y-34084885D01*
X133487533Y-34086795D01*
X133498404Y-34088177D01*
X133509436Y-34089016D01*
X133520614Y-34089298D01*
X133531793Y-34089016D01*
X133542825Y-34088177D01*
X133553696Y-34086795D01*
X133564393Y-34084885D01*
X133574903Y-34082459D01*
X133585211Y-34079532D01*
X133595305Y-34076117D01*
X133605169Y-34072227D01*
X133614792Y-34067877D01*
X133624158Y-34063080D01*
X133633255Y-34057849D01*
X133642068Y-34052199D01*
X133650585Y-34046143D01*
X133658791Y-34039694D01*
X133666673Y-34032866D01*
X133674218Y-34025674D01*
X133681410Y-34018129D01*
X133688238Y-34010247D01*
X133694687Y-34002041D01*
X133700743Y-33993525D01*
X133706393Y-33984711D01*
X133711624Y-33975614D01*
X133716421Y-33966248D01*
X133720771Y-33956625D01*
X133724661Y-33946761D01*
X133728076Y-33936667D01*
X133731003Y-33926359D01*
X133733429Y-33915849D01*
X133735339Y-33905152D01*
X133736721Y-33894281D01*
X133737560Y-33883249D01*
X133737842Y-33872071D01*
X133737560Y-33860892D01*
X133736721Y-33849860D01*
X133735339Y-33838989D01*
X133733429Y-33828292D01*
X133731003Y-33817782D01*
X133728076Y-33807474D01*
X133724661Y-33797380D01*
X133720771Y-33787516D01*
X133716421Y-33777893D01*
X133711624Y-33768527D01*
X133706393Y-33759430D01*
X133700743Y-33750617D01*
X133694687Y-33742100D01*
X133688238Y-33733894D01*
X133681410Y-33726012D01*
X133674218Y-33718467D01*
X133666673Y-33711275D01*
X133658791Y-33704447D01*
X133650585Y-33697998D01*
X133642068Y-33691942D01*
X133633255Y-33686292D01*
X133624158Y-33681061D01*
X133614792Y-33676264D01*
X133605169Y-33671914D01*
X133595305Y-33668024D01*
X133585211Y-33664609D01*
X133574903Y-33661682D01*
X133564393Y-33659256D01*
X133553696Y-33657346D01*
X133542825Y-33655964D01*
X133531793Y-33655125D01*
X133520614Y-33654843D01*
X133509436Y-33655125D01*
X133498404Y-33655964D01*
X133487533Y-33657346D01*
X133476836Y-33659256D01*
X133466326Y-33661682D01*
X133456018Y-33664609D01*
X133445924Y-33668024D01*
X133436060Y-33671914D01*
X133426437Y-33676264D01*
X133417071Y-33681061D01*
X133407974Y-33686292D01*
X133399160Y-33691942D01*
X133390644Y-33697998D01*
X133382438Y-33704447D01*
X133374556Y-33711275D01*
X133367011Y-33718467D01*
X133359819Y-33726012D01*
X133352991Y-33733894D01*
X133346542Y-33742100D01*
X133340486Y-33750617D01*
X133334836Y-33759430D01*
X133329605Y-33768527D01*
X133324808Y-33777893D01*
X133320458Y-33787516D01*
X133316568Y-33797380D01*
X133313153Y-33807474D01*
X133310226Y-33817782D01*
X133307800Y-33828292D01*
X133305890Y-33838989D01*
X133304508Y-33849860D01*
X133303669Y-33860892D01*
X133303387Y-33872071D01*
X133243045Y-33872071D01*
X133243407Y-33857787D01*
X133244479Y-33843691D01*
X133246244Y-33829800D01*
X133248685Y-33816131D01*
X133251784Y-33802702D01*
X133255524Y-33789530D01*
X133259888Y-33776633D01*
X133264858Y-33764028D01*
X133270417Y-33751733D01*
X133276547Y-33739765D01*
X133283230Y-33728141D01*
X133290450Y-33716879D01*
X133298189Y-33705997D01*
X133306429Y-33695511D01*
X133315153Y-33685440D01*
X133324344Y-33675800D01*
X133333984Y-33666609D01*
X133344055Y-33657885D01*
X133354541Y-33649645D01*
X133365423Y-33641906D01*
X133376685Y-33634687D01*
X133388309Y-33628003D01*
X133400277Y-33621873D01*
X133412572Y-33616315D01*
X133425177Y-33611345D01*
X133438074Y-33606981D01*
X133451246Y-33603241D01*
X133464675Y-33600141D01*
X133478344Y-33597700D01*
X133492235Y-33595935D01*
X133506331Y-33594863D01*
X133520614Y-33594502D01*
X133534898Y-33594863D01*
X133548994Y-33595935D01*
X133562885Y-33597700D01*
X133576554Y-33600141D01*
X133589983Y-33603241D01*
X133603155Y-33606981D01*
X133616052Y-33611345D01*
X133628657Y-33616315D01*
X133640952Y-33621873D01*
X133652920Y-33628003D01*
X133664544Y-33634687D01*
X133675806Y-33641906D01*
X133686688Y-33649645D01*
X133697174Y-33657885D01*
X133707245Y-33666609D01*
X133716885Y-33675800D01*
X133726076Y-33685440D01*
X133734800Y-33695511D01*
X133743040Y-33705997D01*
X133750779Y-33716879D01*
X133757998Y-33728141D01*
X133764682Y-33739765D01*
X133770812Y-33751733D01*
X133776370Y-33764028D01*
X133781340Y-33776633D01*
X133785704Y-33789530D01*
X133789444Y-33802702D01*
X133792544Y-33816131D01*
X133794985Y-33829800D01*
X133796750Y-33843691D01*
X133797822Y-33857787D01*
X133798183Y-33872071D01*
X133797822Y-33886354D01*
X133796750Y-33900450D01*
G37*
X133796750Y-33900450D02*
X133794985Y-33914341D01*
X133792544Y-33928010D01*
X133789444Y-33941439D01*
X133785704Y-33954611D01*
X133781340Y-33967508D01*
X133776370Y-33980113D01*
X133770812Y-33992408D01*
X133764682Y-34004376D01*
X133757998Y-34016000D01*
X133750779Y-34027262D01*
X133743040Y-34038144D01*
X133734800Y-34048630D01*
X133726076Y-34058701D01*
X133716885Y-34068341D01*
X133707245Y-34077532D01*
X133697174Y-34086256D01*
X133686688Y-34094496D01*
X133675806Y-34102235D01*
X133664544Y-34109455D01*
X133652920Y-34116138D01*
X133640952Y-34122268D01*
X133628657Y-34127827D01*
X133616052Y-34132797D01*
X133603155Y-34137161D01*
X133589983Y-34140901D01*
X133576554Y-34144000D01*
X133562885Y-34146441D01*
X133548994Y-34148206D01*
X133534898Y-34149278D01*
X133520614Y-34149640D01*
X133506331Y-34149278D01*
X133492235Y-34148206D01*
X133478344Y-34146441D01*
X133464675Y-34144000D01*
X133451246Y-34140901D01*
X133438074Y-34137161D01*
X133425177Y-34132797D01*
X133412572Y-34127827D01*
X133400277Y-34122268D01*
X133388309Y-34116138D01*
X133376685Y-34109455D01*
X133365423Y-34102235D01*
X133354541Y-34094496D01*
X133344055Y-34086256D01*
X133333984Y-34077532D01*
X133324344Y-34068341D01*
X133315153Y-34058701D01*
X133306429Y-34048630D01*
X133298189Y-34038144D01*
X133290450Y-34027262D01*
X133283230Y-34016000D01*
X133276547Y-34004376D01*
X133270417Y-33992408D01*
X133264858Y-33980113D01*
X133259888Y-33967508D01*
X133255524Y-33954611D01*
X133251784Y-33941439D01*
X133248685Y-33928010D01*
X133246244Y-33914341D01*
X133244479Y-33900450D01*
X133243407Y-33886354D01*
X133243045Y-33872071D01*
X133303387Y-33872071D01*
X133303669Y-33883249D01*
X133304508Y-33894281D01*
X133305890Y-33905152D01*
X133307800Y-33915849D01*
X133310226Y-33926359D01*
X133313153Y-33936667D01*
X133316568Y-33946761D01*
X133320458Y-33956625D01*
X133324808Y-33966248D01*
X133329605Y-33975614D01*
X133334836Y-33984711D01*
X133340486Y-33993525D01*
X133346542Y-34002041D01*
X133352991Y-34010247D01*
X133359819Y-34018129D01*
X133367011Y-34025674D01*
X133374556Y-34032866D01*
X133382438Y-34039694D01*
X133390644Y-34046143D01*
X133399160Y-34052199D01*
X133407974Y-34057849D01*
X133417071Y-34063080D01*
X133426437Y-34067877D01*
X133436060Y-34072227D01*
X133445924Y-34076117D01*
X133456018Y-34079532D01*
X133466326Y-34082459D01*
X133476836Y-34084885D01*
X133487533Y-34086795D01*
X133498404Y-34088177D01*
X133509436Y-34089016D01*
X133520614Y-34089298D01*
X133531793Y-34089016D01*
X133542825Y-34088177D01*
X133553696Y-34086795D01*
X133564393Y-34084885D01*
X133574903Y-34082459D01*
X133585211Y-34079532D01*
X133595305Y-34076117D01*
X133605169Y-34072227D01*
X133614792Y-34067877D01*
X133624158Y-34063080D01*
X133633255Y-34057849D01*
X133642068Y-34052199D01*
X133650585Y-34046143D01*
X133658791Y-34039694D01*
X133666673Y-34032866D01*
X133674218Y-34025674D01*
X133681410Y-34018129D01*
X133688238Y-34010247D01*
X133694687Y-34002041D01*
X133700743Y-33993525D01*
X133706393Y-33984711D01*
X133711624Y-33975614D01*
X133716421Y-33966248D01*
X133720771Y-33956625D01*
X133724661Y-33946761D01*
X133728076Y-33936667D01*
X133731003Y-33926359D01*
X133733429Y-33915849D01*
X133735339Y-33905152D01*
X133736721Y-33894281D01*
X133737560Y-33883249D01*
X133737842Y-33872071D01*
X133737560Y-33860892D01*
X133736721Y-33849860D01*
X133735339Y-33838989D01*
X133733429Y-33828292D01*
X133731003Y-33817782D01*
X133728076Y-33807474D01*
X133724661Y-33797380D01*
X133720771Y-33787516D01*
X133716421Y-33777893D01*
X133711624Y-33768527D01*
X133706393Y-33759430D01*
X133700743Y-33750617D01*
X133694687Y-33742100D01*
X133688238Y-33733894D01*
X133681410Y-33726012D01*
X133674218Y-33718467D01*
X133666673Y-33711275D01*
X133658791Y-33704447D01*
X133650585Y-33697998D01*
X133642068Y-33691942D01*
X133633255Y-33686292D01*
X133624158Y-33681061D01*
X133614792Y-33676264D01*
X133605169Y-33671914D01*
X133595305Y-33668024D01*
X133585211Y-33664609D01*
X133574903Y-33661682D01*
X133564393Y-33659256D01*
X133553696Y-33657346D01*
X133542825Y-33655964D01*
X133531793Y-33655125D01*
X133520614Y-33654843D01*
X133509436Y-33655125D01*
X133498404Y-33655964D01*
X133487533Y-33657346D01*
X133476836Y-33659256D01*
X133466326Y-33661682D01*
X133456018Y-33664609D01*
X133445924Y-33668024D01*
X133436060Y-33671914D01*
X133426437Y-33676264D01*
X133417071Y-33681061D01*
X133407974Y-33686292D01*
X133399160Y-33691942D01*
X133390644Y-33697998D01*
X133382438Y-33704447D01*
X133374556Y-33711275D01*
X133367011Y-33718467D01*
X133359819Y-33726012D01*
X133352991Y-33733894D01*
X133346542Y-33742100D01*
X133340486Y-33750617D01*
X133334836Y-33759430D01*
X133329605Y-33768527D01*
X133324808Y-33777893D01*
X133320458Y-33787516D01*
X133316568Y-33797380D01*
X133313153Y-33807474D01*
X133310226Y-33817782D01*
X133307800Y-33828292D01*
X133305890Y-33838989D01*
X133304508Y-33849860D01*
X133303669Y-33860892D01*
X133303387Y-33872071D01*
X133243045Y-33872071D01*
X133243407Y-33857787D01*
X133244479Y-33843691D01*
X133246244Y-33829800D01*
X133248685Y-33816131D01*
X133251784Y-33802702D01*
X133255524Y-33789530D01*
X133259888Y-33776633D01*
X133264858Y-33764028D01*
X133270417Y-33751733D01*
X133276547Y-33739765D01*
X133283230Y-33728141D01*
X133290450Y-33716879D01*
X133298189Y-33705997D01*
X133306429Y-33695511D01*
X133315153Y-33685440D01*
X133324344Y-33675800D01*
X133333984Y-33666609D01*
X133344055Y-33657885D01*
X133354541Y-33649645D01*
X133365423Y-33641906D01*
X133376685Y-33634687D01*
X133388309Y-33628003D01*
X133400277Y-33621873D01*
X133412572Y-33616315D01*
X133425177Y-33611345D01*
X133438074Y-33606981D01*
X133451246Y-33603241D01*
X133464675Y-33600141D01*
X133478344Y-33597700D01*
X133492235Y-33595935D01*
X133506331Y-33594863D01*
X133520614Y-33594502D01*
X133534898Y-33594863D01*
X133548994Y-33595935D01*
X133562885Y-33597700D01*
X133576554Y-33600141D01*
X133589983Y-33603241D01*
X133603155Y-33606981D01*
X133616052Y-33611345D01*
X133628657Y-33616315D01*
X133640952Y-33621873D01*
X133652920Y-33628003D01*
X133664544Y-33634687D01*
X133675806Y-33641906D01*
X133686688Y-33649645D01*
X133697174Y-33657885D01*
X133707245Y-33666609D01*
X133716885Y-33675800D01*
X133726076Y-33685440D01*
X133734800Y-33695511D01*
X133743040Y-33705997D01*
X133750779Y-33716879D01*
X133757998Y-33728141D01*
X133764682Y-33739765D01*
X133770812Y-33751733D01*
X133776370Y-33764028D01*
X133781340Y-33776633D01*
X133785704Y-33789530D01*
X133789444Y-33802702D01*
X133792544Y-33816131D01*
X133794985Y-33829800D01*
X133796750Y-33843691D01*
X133797822Y-33857787D01*
X133798183Y-33872071D01*
X133797822Y-33886354D01*
X133796750Y-33900450D01*
G36*
X133024385Y-33900450D02*
G01*
X133022620Y-33914341D01*
X133020179Y-33928010D01*
X133017079Y-33941439D01*
X133013339Y-33954611D01*
X133008975Y-33967508D01*
X133004005Y-33980113D01*
X132998447Y-33992408D01*
X132992317Y-34004376D01*
X132985633Y-34016000D01*
X132978413Y-34027262D01*
X132970675Y-34038144D01*
X132962435Y-34048630D01*
X132953711Y-34058701D01*
X132944520Y-34068341D01*
X132934880Y-34077532D01*
X132924809Y-34086256D01*
X132914323Y-34094496D01*
X132903441Y-34102235D01*
X132892179Y-34109455D01*
X132880555Y-34116138D01*
X132868587Y-34122268D01*
X132856292Y-34127827D01*
X132843687Y-34132797D01*
X132830790Y-34137161D01*
X132817618Y-34140901D01*
X132804189Y-34144000D01*
X132790520Y-34146441D01*
X132776629Y-34148206D01*
X132762533Y-34149278D01*
X132748249Y-34149640D01*
X132733966Y-34149278D01*
X132719870Y-34148206D01*
X132705978Y-34146441D01*
X132692310Y-34144000D01*
X132678881Y-34140901D01*
X132665709Y-34137161D01*
X132652812Y-34132797D01*
X132640207Y-34127827D01*
X132627912Y-34122268D01*
X132615943Y-34116138D01*
X132604320Y-34109455D01*
X132593058Y-34102235D01*
X132582175Y-34094496D01*
X132571690Y-34086256D01*
X132561618Y-34077532D01*
X132551978Y-34068341D01*
X132542788Y-34058701D01*
X132534064Y-34048630D01*
X132525824Y-34038144D01*
X132518085Y-34027262D01*
X132510865Y-34016000D01*
X132504181Y-34004376D01*
X132498052Y-33992408D01*
X132492493Y-33980113D01*
X132487523Y-33967508D01*
X132483159Y-33954611D01*
X132479419Y-33941439D01*
X132476320Y-33928010D01*
X132473879Y-33914341D01*
X132472113Y-33900450D01*
X132471042Y-33886354D01*
X132470680Y-33872071D01*
X132531022Y-33872071D01*
X132531304Y-33883249D01*
X132532143Y-33894281D01*
X132533525Y-33905152D01*
X132535435Y-33915849D01*
X132537860Y-33926359D01*
X132540788Y-33936667D01*
X132544203Y-33946761D01*
X132548092Y-33956625D01*
X132552443Y-33966248D01*
X132557240Y-33975614D01*
X132562470Y-33984711D01*
X132568121Y-33993525D01*
X132574177Y-34002041D01*
X132580626Y-34010247D01*
X132587453Y-34018129D01*
X132594646Y-34025674D01*
X132602190Y-34032866D01*
X132610072Y-34039694D01*
X132618278Y-34046143D01*
X132626795Y-34052199D01*
X132635609Y-34057849D01*
X132644706Y-34063080D01*
X132654072Y-34067877D01*
X132663694Y-34072227D01*
X132673559Y-34076117D01*
X132683652Y-34079532D01*
X132693961Y-34082459D01*
X132704470Y-34084885D01*
X132715168Y-34086795D01*
X132726039Y-34088177D01*
X132737071Y-34089016D01*
X132748249Y-34089298D01*
X132759428Y-34089016D01*
X132770460Y-34088177D01*
X132781331Y-34086795D01*
X132792028Y-34084885D01*
X132802538Y-34082459D01*
X132812846Y-34079532D01*
X132822939Y-34076117D01*
X132832804Y-34072227D01*
X132842426Y-34067877D01*
X132851793Y-34063080D01*
X132860890Y-34057849D01*
X132869703Y-34052199D01*
X132878220Y-34046143D01*
X132886426Y-34039694D01*
X132894308Y-34032866D01*
X132901852Y-34025674D01*
X132909045Y-34018129D01*
X132915873Y-34010247D01*
X132922322Y-34002041D01*
X132928378Y-33993525D01*
X132934028Y-33984711D01*
X132939259Y-33975614D01*
X132944056Y-33966248D01*
X132948406Y-33956625D01*
X132952296Y-33946761D01*
X132955711Y-33936667D01*
X132958638Y-33926359D01*
X132961064Y-33915849D01*
X132962974Y-33905152D01*
X132964356Y-33894281D01*
X132965194Y-33883249D01*
X132965477Y-33872071D01*
X132965194Y-33860892D01*
X132964356Y-33849860D01*
X132962974Y-33838989D01*
X132961064Y-33828292D01*
X132958638Y-33817782D01*
X132955711Y-33807474D01*
X132952296Y-33797380D01*
X132948406Y-33787516D01*
X132944056Y-33777893D01*
X132939259Y-33768527D01*
X132934028Y-33759430D01*
X132928378Y-33750617D01*
X132922322Y-33742100D01*
X132915873Y-33733894D01*
X132909045Y-33726012D01*
X132901852Y-33718467D01*
X132894308Y-33711275D01*
X132886426Y-33704447D01*
X132878220Y-33697998D01*
X132869703Y-33691942D01*
X132860890Y-33686292D01*
X132851793Y-33681061D01*
X132842426Y-33676264D01*
X132832804Y-33671914D01*
X132822939Y-33668024D01*
X132812846Y-33664609D01*
X132802538Y-33661682D01*
X132792028Y-33659256D01*
X132781331Y-33657346D01*
X132770460Y-33655964D01*
X132759428Y-33655125D01*
X132748249Y-33654843D01*
X132737071Y-33655125D01*
X132726039Y-33655964D01*
X132715168Y-33657346D01*
X132704470Y-33659256D01*
X132693961Y-33661682D01*
X132683652Y-33664609D01*
X132673559Y-33668024D01*
X132663694Y-33671914D01*
X132654072Y-33676264D01*
X132644706Y-33681061D01*
X132635609Y-33686292D01*
X132626795Y-33691942D01*
X132618278Y-33697998D01*
X132610072Y-33704447D01*
X132602190Y-33711275D01*
X132594646Y-33718467D01*
X132587453Y-33726012D01*
X132580626Y-33733894D01*
X132574177Y-33742100D01*
X132568121Y-33750617D01*
X132562470Y-33759430D01*
X132557240Y-33768527D01*
X132552443Y-33777893D01*
X132548092Y-33787516D01*
X132544203Y-33797380D01*
X132540788Y-33807474D01*
X132537860Y-33817782D01*
X132535435Y-33828292D01*
X132533525Y-33838989D01*
X132532143Y-33849860D01*
X132531304Y-33860892D01*
X132531022Y-33872071D01*
X132470680Y-33872071D01*
X132471042Y-33857787D01*
X132472113Y-33843691D01*
X132473879Y-33829800D01*
X132476320Y-33816131D01*
X132479419Y-33802702D01*
X132483159Y-33789530D01*
X132487523Y-33776633D01*
X132492493Y-33764028D01*
X132498052Y-33751733D01*
X132504181Y-33739765D01*
X132510865Y-33728141D01*
X132518085Y-33716879D01*
X132525824Y-33705997D01*
X132534064Y-33695511D01*
X132542788Y-33685440D01*
X132551978Y-33675800D01*
X132561618Y-33666609D01*
X132571690Y-33657885D01*
X132582175Y-33649645D01*
X132593058Y-33641906D01*
X132604320Y-33634687D01*
X132615943Y-33628003D01*
X132627912Y-33621873D01*
X132640207Y-33616315D01*
X132652812Y-33611345D01*
X132665709Y-33606981D01*
X132678881Y-33603241D01*
X132692310Y-33600141D01*
X132705978Y-33597700D01*
X132719870Y-33595935D01*
X132733966Y-33594863D01*
X132748249Y-33594502D01*
X132762533Y-33594863D01*
X132776629Y-33595935D01*
X132790520Y-33597700D01*
X132804189Y-33600141D01*
X132817618Y-33603241D01*
X132830790Y-33606981D01*
X132843687Y-33611345D01*
X132856292Y-33616315D01*
X132868587Y-33621873D01*
X132880555Y-33628003D01*
X132892179Y-33634687D01*
X132903441Y-33641906D01*
X132914323Y-33649645D01*
X132924809Y-33657885D01*
X132934880Y-33666609D01*
X132944520Y-33675800D01*
X132953711Y-33685440D01*
X132962435Y-33695511D01*
X132970675Y-33705997D01*
X132978413Y-33716879D01*
X132985633Y-33728141D01*
X132992317Y-33739765D01*
X132998447Y-33751733D01*
X133004005Y-33764028D01*
X133008975Y-33776633D01*
X133013339Y-33789530D01*
X133017079Y-33802702D01*
X133020179Y-33816131D01*
X133022620Y-33829800D01*
X133024385Y-33843691D01*
X133025457Y-33857787D01*
X133025818Y-33872071D01*
X133025457Y-33886354D01*
X133024385Y-33900450D01*
G37*
X133024385Y-33900450D02*
X133022620Y-33914341D01*
X133020179Y-33928010D01*
X133017079Y-33941439D01*
X133013339Y-33954611D01*
X133008975Y-33967508D01*
X133004005Y-33980113D01*
X132998447Y-33992408D01*
X132992317Y-34004376D01*
X132985633Y-34016000D01*
X132978413Y-34027262D01*
X132970675Y-34038144D01*
X132962435Y-34048630D01*
X132953711Y-34058701D01*
X132944520Y-34068341D01*
X132934880Y-34077532D01*
X132924809Y-34086256D01*
X132914323Y-34094496D01*
X132903441Y-34102235D01*
X132892179Y-34109455D01*
X132880555Y-34116138D01*
X132868587Y-34122268D01*
X132856292Y-34127827D01*
X132843687Y-34132797D01*
X132830790Y-34137161D01*
X132817618Y-34140901D01*
X132804189Y-34144000D01*
X132790520Y-34146441D01*
X132776629Y-34148206D01*
X132762533Y-34149278D01*
X132748249Y-34149640D01*
X132733966Y-34149278D01*
X132719870Y-34148206D01*
X132705978Y-34146441D01*
X132692310Y-34144000D01*
X132678881Y-34140901D01*
X132665709Y-34137161D01*
X132652812Y-34132797D01*
X132640207Y-34127827D01*
X132627912Y-34122268D01*
X132615943Y-34116138D01*
X132604320Y-34109455D01*
X132593058Y-34102235D01*
X132582175Y-34094496D01*
X132571690Y-34086256D01*
X132561618Y-34077532D01*
X132551978Y-34068341D01*
X132542788Y-34058701D01*
X132534064Y-34048630D01*
X132525824Y-34038144D01*
X132518085Y-34027262D01*
X132510865Y-34016000D01*
X132504181Y-34004376D01*
X132498052Y-33992408D01*
X132492493Y-33980113D01*
X132487523Y-33967508D01*
X132483159Y-33954611D01*
X132479419Y-33941439D01*
X132476320Y-33928010D01*
X132473879Y-33914341D01*
X132472113Y-33900450D01*
X132471042Y-33886354D01*
X132470680Y-33872071D01*
X132531022Y-33872071D01*
X132531304Y-33883249D01*
X132532143Y-33894281D01*
X132533525Y-33905152D01*
X132535435Y-33915849D01*
X132537860Y-33926359D01*
X132540788Y-33936667D01*
X132544203Y-33946761D01*
X132548092Y-33956625D01*
X132552443Y-33966248D01*
X132557240Y-33975614D01*
X132562470Y-33984711D01*
X132568121Y-33993525D01*
X132574177Y-34002041D01*
X132580626Y-34010247D01*
X132587453Y-34018129D01*
X132594646Y-34025674D01*
X132602190Y-34032866D01*
X132610072Y-34039694D01*
X132618278Y-34046143D01*
X132626795Y-34052199D01*
X132635609Y-34057849D01*
X132644706Y-34063080D01*
X132654072Y-34067877D01*
X132663694Y-34072227D01*
X132673559Y-34076117D01*
X132683652Y-34079532D01*
X132693961Y-34082459D01*
X132704470Y-34084885D01*
X132715168Y-34086795D01*
X132726039Y-34088177D01*
X132737071Y-34089016D01*
X132748249Y-34089298D01*
X132759428Y-34089016D01*
X132770460Y-34088177D01*
X132781331Y-34086795D01*
X132792028Y-34084885D01*
X132802538Y-34082459D01*
X132812846Y-34079532D01*
X132822939Y-34076117D01*
X132832804Y-34072227D01*
X132842426Y-34067877D01*
X132851793Y-34063080D01*
X132860890Y-34057849D01*
X132869703Y-34052199D01*
X132878220Y-34046143D01*
X132886426Y-34039694D01*
X132894308Y-34032866D01*
X132901852Y-34025674D01*
X132909045Y-34018129D01*
X132915873Y-34010247D01*
X132922322Y-34002041D01*
X132928378Y-33993525D01*
X132934028Y-33984711D01*
X132939259Y-33975614D01*
X132944056Y-33966248D01*
X132948406Y-33956625D01*
X132952296Y-33946761D01*
X132955711Y-33936667D01*
X132958638Y-33926359D01*
X132961064Y-33915849D01*
X132962974Y-33905152D01*
X132964356Y-33894281D01*
X132965194Y-33883249D01*
X132965477Y-33872071D01*
X132965194Y-33860892D01*
X132964356Y-33849860D01*
X132962974Y-33838989D01*
X132961064Y-33828292D01*
X132958638Y-33817782D01*
X132955711Y-33807474D01*
X132952296Y-33797380D01*
X132948406Y-33787516D01*
X132944056Y-33777893D01*
X132939259Y-33768527D01*
X132934028Y-33759430D01*
X132928378Y-33750617D01*
X132922322Y-33742100D01*
X132915873Y-33733894D01*
X132909045Y-33726012D01*
X132901852Y-33718467D01*
X132894308Y-33711275D01*
X132886426Y-33704447D01*
X132878220Y-33697998D01*
X132869703Y-33691942D01*
X132860890Y-33686292D01*
X132851793Y-33681061D01*
X132842426Y-33676264D01*
X132832804Y-33671914D01*
X132822939Y-33668024D01*
X132812846Y-33664609D01*
X132802538Y-33661682D01*
X132792028Y-33659256D01*
X132781331Y-33657346D01*
X132770460Y-33655964D01*
X132759428Y-33655125D01*
X132748249Y-33654843D01*
X132737071Y-33655125D01*
X132726039Y-33655964D01*
X132715168Y-33657346D01*
X132704470Y-33659256D01*
X132693961Y-33661682D01*
X132683652Y-33664609D01*
X132673559Y-33668024D01*
X132663694Y-33671914D01*
X132654072Y-33676264D01*
X132644706Y-33681061D01*
X132635609Y-33686292D01*
X132626795Y-33691942D01*
X132618278Y-33697998D01*
X132610072Y-33704447D01*
X132602190Y-33711275D01*
X132594646Y-33718467D01*
X132587453Y-33726012D01*
X132580626Y-33733894D01*
X132574177Y-33742100D01*
X132568121Y-33750617D01*
X132562470Y-33759430D01*
X132557240Y-33768527D01*
X132552443Y-33777893D01*
X132548092Y-33787516D01*
X132544203Y-33797380D01*
X132540788Y-33807474D01*
X132537860Y-33817782D01*
X132535435Y-33828292D01*
X132533525Y-33838989D01*
X132532143Y-33849860D01*
X132531304Y-33860892D01*
X132531022Y-33872071D01*
X132470680Y-33872071D01*
X132471042Y-33857787D01*
X132472113Y-33843691D01*
X132473879Y-33829800D01*
X132476320Y-33816131D01*
X132479419Y-33802702D01*
X132483159Y-33789530D01*
X132487523Y-33776633D01*
X132492493Y-33764028D01*
X132498052Y-33751733D01*
X132504181Y-33739765D01*
X132510865Y-33728141D01*
X132518085Y-33716879D01*
X132525824Y-33705997D01*
X132534064Y-33695511D01*
X132542788Y-33685440D01*
X132551978Y-33675800D01*
X132561618Y-33666609D01*
X132571690Y-33657885D01*
X132582175Y-33649645D01*
X132593058Y-33641906D01*
X132604320Y-33634687D01*
X132615943Y-33628003D01*
X132627912Y-33621873D01*
X132640207Y-33616315D01*
X132652812Y-33611345D01*
X132665709Y-33606981D01*
X132678881Y-33603241D01*
X132692310Y-33600141D01*
X132705978Y-33597700D01*
X132719870Y-33595935D01*
X132733966Y-33594863D01*
X132748249Y-33594502D01*
X132762533Y-33594863D01*
X132776629Y-33595935D01*
X132790520Y-33597700D01*
X132804189Y-33600141D01*
X132817618Y-33603241D01*
X132830790Y-33606981D01*
X132843687Y-33611345D01*
X132856292Y-33616315D01*
X132868587Y-33621873D01*
X132880555Y-33628003D01*
X132892179Y-33634687D01*
X132903441Y-33641906D01*
X132914323Y-33649645D01*
X132924809Y-33657885D01*
X132934880Y-33666609D01*
X132944520Y-33675800D01*
X132953711Y-33685440D01*
X132962435Y-33695511D01*
X132970675Y-33705997D01*
X132978413Y-33716879D01*
X132985633Y-33728141D01*
X132992317Y-33739765D01*
X132998447Y-33751733D01*
X133004005Y-33764028D01*
X133008975Y-33776633D01*
X133013339Y-33789530D01*
X133017079Y-33802702D01*
X133020179Y-33816131D01*
X133022620Y-33829800D01*
X133024385Y-33843691D01*
X133025457Y-33857787D01*
X133025818Y-33872071D01*
X133025457Y-33886354D01*
X133024385Y-33900450D01*
G36*
X133796750Y-34672815D02*
G01*
X133794985Y-34686707D01*
X133792544Y-34700375D01*
X133789444Y-34713804D01*
X133785704Y-34726976D01*
X133781340Y-34739873D01*
X133776370Y-34752478D01*
X133770812Y-34764773D01*
X133764682Y-34776742D01*
X133757998Y-34788365D01*
X133750779Y-34799627D01*
X133743040Y-34810510D01*
X133734800Y-34820995D01*
X133726076Y-34831067D01*
X133716885Y-34840707D01*
X133707245Y-34849897D01*
X133697174Y-34858621D01*
X133686688Y-34866861D01*
X133675806Y-34874600D01*
X133664544Y-34881820D01*
X133652920Y-34888504D01*
X133640952Y-34894633D01*
X133628657Y-34900192D01*
X133616052Y-34905162D01*
X133603155Y-34909526D01*
X133589983Y-34913266D01*
X133576554Y-34916365D01*
X133562885Y-34918806D01*
X133548994Y-34920572D01*
X133534898Y-34921643D01*
X133520614Y-34922005D01*
X133506331Y-34921643D01*
X133492235Y-34920572D01*
X133478344Y-34918806D01*
X133464675Y-34916365D01*
X133451246Y-34913266D01*
X133438074Y-34909526D01*
X133425177Y-34905162D01*
X133412572Y-34900192D01*
X133400277Y-34894633D01*
X133388309Y-34888504D01*
X133376685Y-34881820D01*
X133365423Y-34874600D01*
X133354541Y-34866861D01*
X133344055Y-34858621D01*
X133333984Y-34849897D01*
X133324344Y-34840707D01*
X133315153Y-34831067D01*
X133306429Y-34820995D01*
X133298189Y-34810510D01*
X133290450Y-34799627D01*
X133283230Y-34788365D01*
X133276547Y-34776742D01*
X133270417Y-34764773D01*
X133264858Y-34752478D01*
X133259888Y-34739873D01*
X133255524Y-34726976D01*
X133251784Y-34713804D01*
X133248685Y-34700375D01*
X133246244Y-34686707D01*
X133244479Y-34672815D01*
X133243407Y-34658719D01*
X133243045Y-34644436D01*
X133303387Y-34644436D01*
X133303669Y-34655614D01*
X133304508Y-34666646D01*
X133305890Y-34677517D01*
X133307800Y-34688215D01*
X133310226Y-34698724D01*
X133313153Y-34709033D01*
X133316568Y-34719126D01*
X133320458Y-34728991D01*
X133324808Y-34738613D01*
X133329605Y-34747979D01*
X133334836Y-34757076D01*
X133340486Y-34765890D01*
X133346542Y-34774407D01*
X133352991Y-34782613D01*
X133359819Y-34790495D01*
X133367011Y-34798039D01*
X133374556Y-34805232D01*
X133382438Y-34812059D01*
X133390644Y-34818508D01*
X133399160Y-34824564D01*
X133407974Y-34830215D01*
X133417071Y-34835445D01*
X133426437Y-34840242D01*
X133436060Y-34844593D01*
X133445924Y-34848482D01*
X133456018Y-34851897D01*
X133466326Y-34854825D01*
X133476836Y-34857250D01*
X133487533Y-34859160D01*
X133498404Y-34860542D01*
X133509436Y-34861381D01*
X133520614Y-34861663D01*
X133531793Y-34861381D01*
X133542825Y-34860542D01*
X133553696Y-34859160D01*
X133564393Y-34857250D01*
X133574903Y-34854825D01*
X133585211Y-34851897D01*
X133595305Y-34848482D01*
X133605169Y-34844593D01*
X133614792Y-34840242D01*
X133624158Y-34835445D01*
X133633255Y-34830215D01*
X133642068Y-34824564D01*
X133650585Y-34818508D01*
X133658791Y-34812059D01*
X133666673Y-34805232D01*
X133674218Y-34798039D01*
X133681410Y-34790495D01*
X133688238Y-34782613D01*
X133694687Y-34774407D01*
X133700743Y-34765890D01*
X133706393Y-34757076D01*
X133711624Y-34747979D01*
X133716421Y-34738613D01*
X133720771Y-34728991D01*
X133724661Y-34719126D01*
X133728076Y-34709033D01*
X133731003Y-34698724D01*
X133733429Y-34688215D01*
X133735339Y-34677517D01*
X133736721Y-34666646D01*
X133737560Y-34655614D01*
X133737842Y-34644436D01*
X133737560Y-34633257D01*
X133736721Y-34622225D01*
X133735339Y-34611354D01*
X133733429Y-34600657D01*
X133731003Y-34590147D01*
X133728076Y-34579839D01*
X133724661Y-34569746D01*
X133720771Y-34559881D01*
X133716421Y-34550259D01*
X133711624Y-34540892D01*
X133706393Y-34531795D01*
X133700743Y-34522982D01*
X133694687Y-34514465D01*
X133688238Y-34506259D01*
X133681410Y-34498377D01*
X133674218Y-34490833D01*
X133666673Y-34483640D01*
X133658791Y-34476812D01*
X133650585Y-34470363D01*
X133642068Y-34464307D01*
X133633255Y-34458657D01*
X133624158Y-34453426D01*
X133614792Y-34448629D01*
X133605169Y-34444279D01*
X133595305Y-34440389D01*
X133585211Y-34436974D01*
X133574903Y-34434047D01*
X133564393Y-34431621D01*
X133553696Y-34429711D01*
X133542825Y-34428329D01*
X133531793Y-34427491D01*
X133520614Y-34427208D01*
X133509436Y-34427491D01*
X133498404Y-34428329D01*
X133487533Y-34429711D01*
X133476836Y-34431621D01*
X133466326Y-34434047D01*
X133456018Y-34436974D01*
X133445924Y-34440389D01*
X133436060Y-34444279D01*
X133426437Y-34448629D01*
X133417071Y-34453426D01*
X133407974Y-34458657D01*
X133399160Y-34464307D01*
X133390644Y-34470363D01*
X133382438Y-34476812D01*
X133374556Y-34483640D01*
X133367011Y-34490833D01*
X133359819Y-34498377D01*
X133352991Y-34506259D01*
X133346542Y-34514465D01*
X133340486Y-34522982D01*
X133334836Y-34531795D01*
X133329605Y-34540892D01*
X133324808Y-34550259D01*
X133320458Y-34559881D01*
X133316568Y-34569746D01*
X133313153Y-34579839D01*
X133310226Y-34590147D01*
X133307800Y-34600657D01*
X133305890Y-34611354D01*
X133304508Y-34622225D01*
X133303669Y-34633257D01*
X133303387Y-34644436D01*
X133243045Y-34644436D01*
X133243407Y-34630152D01*
X133244479Y-34616056D01*
X133246244Y-34602165D01*
X133248685Y-34588496D01*
X133251784Y-34575067D01*
X133255524Y-34561895D01*
X133259888Y-34548998D01*
X133264858Y-34536393D01*
X133270417Y-34524098D01*
X133276547Y-34512130D01*
X133283230Y-34500506D01*
X133290450Y-34489244D01*
X133298189Y-34478362D01*
X133306429Y-34467876D01*
X133315153Y-34457805D01*
X133324344Y-34448165D01*
X133333984Y-34438974D01*
X133344055Y-34430250D01*
X133354541Y-34422010D01*
X133365423Y-34414272D01*
X133376685Y-34407052D01*
X133388309Y-34400368D01*
X133400277Y-34394238D01*
X133412572Y-34388680D01*
X133425177Y-34383710D01*
X133438074Y-34379346D01*
X133451246Y-34375606D01*
X133464675Y-34372506D01*
X133478344Y-34370065D01*
X133492235Y-34368300D01*
X133506331Y-34367228D01*
X133520614Y-34366867D01*
X133534898Y-34367228D01*
X133548994Y-34368300D01*
X133562885Y-34370065D01*
X133576554Y-34372506D01*
X133589983Y-34375606D01*
X133603155Y-34379346D01*
X133616052Y-34383710D01*
X133628657Y-34388680D01*
X133640952Y-34394238D01*
X133652920Y-34400368D01*
X133664544Y-34407052D01*
X133675806Y-34414272D01*
X133686688Y-34422010D01*
X133697174Y-34430250D01*
X133707245Y-34438974D01*
X133716885Y-34448165D01*
X133726076Y-34457805D01*
X133734800Y-34467876D01*
X133743040Y-34478362D01*
X133750779Y-34489244D01*
X133757998Y-34500506D01*
X133764682Y-34512130D01*
X133770812Y-34524098D01*
X133776370Y-34536393D01*
X133781340Y-34548998D01*
X133785704Y-34561895D01*
X133789444Y-34575067D01*
X133792544Y-34588496D01*
X133794985Y-34602165D01*
X133796750Y-34616056D01*
X133797822Y-34630152D01*
X133798183Y-34644436D01*
X133797822Y-34658719D01*
X133796750Y-34672815D01*
G37*
X133796750Y-34672815D02*
X133794985Y-34686707D01*
X133792544Y-34700375D01*
X133789444Y-34713804D01*
X133785704Y-34726976D01*
X133781340Y-34739873D01*
X133776370Y-34752478D01*
X133770812Y-34764773D01*
X133764682Y-34776742D01*
X133757998Y-34788365D01*
X133750779Y-34799627D01*
X133743040Y-34810510D01*
X133734800Y-34820995D01*
X133726076Y-34831067D01*
X133716885Y-34840707D01*
X133707245Y-34849897D01*
X133697174Y-34858621D01*
X133686688Y-34866861D01*
X133675806Y-34874600D01*
X133664544Y-34881820D01*
X133652920Y-34888504D01*
X133640952Y-34894633D01*
X133628657Y-34900192D01*
X133616052Y-34905162D01*
X133603155Y-34909526D01*
X133589983Y-34913266D01*
X133576554Y-34916365D01*
X133562885Y-34918806D01*
X133548994Y-34920572D01*
X133534898Y-34921643D01*
X133520614Y-34922005D01*
X133506331Y-34921643D01*
X133492235Y-34920572D01*
X133478344Y-34918806D01*
X133464675Y-34916365D01*
X133451246Y-34913266D01*
X133438074Y-34909526D01*
X133425177Y-34905162D01*
X133412572Y-34900192D01*
X133400277Y-34894633D01*
X133388309Y-34888504D01*
X133376685Y-34881820D01*
X133365423Y-34874600D01*
X133354541Y-34866861D01*
X133344055Y-34858621D01*
X133333984Y-34849897D01*
X133324344Y-34840707D01*
X133315153Y-34831067D01*
X133306429Y-34820995D01*
X133298189Y-34810510D01*
X133290450Y-34799627D01*
X133283230Y-34788365D01*
X133276547Y-34776742D01*
X133270417Y-34764773D01*
X133264858Y-34752478D01*
X133259888Y-34739873D01*
X133255524Y-34726976D01*
X133251784Y-34713804D01*
X133248685Y-34700375D01*
X133246244Y-34686707D01*
X133244479Y-34672815D01*
X133243407Y-34658719D01*
X133243045Y-34644436D01*
X133303387Y-34644436D01*
X133303669Y-34655614D01*
X133304508Y-34666646D01*
X133305890Y-34677517D01*
X133307800Y-34688215D01*
X133310226Y-34698724D01*
X133313153Y-34709033D01*
X133316568Y-34719126D01*
X133320458Y-34728991D01*
X133324808Y-34738613D01*
X133329605Y-34747979D01*
X133334836Y-34757076D01*
X133340486Y-34765890D01*
X133346542Y-34774407D01*
X133352991Y-34782613D01*
X133359819Y-34790495D01*
X133367011Y-34798039D01*
X133374556Y-34805232D01*
X133382438Y-34812059D01*
X133390644Y-34818508D01*
X133399160Y-34824564D01*
X133407974Y-34830215D01*
X133417071Y-34835445D01*
X133426437Y-34840242D01*
X133436060Y-34844593D01*
X133445924Y-34848482D01*
X133456018Y-34851897D01*
X133466326Y-34854825D01*
X133476836Y-34857250D01*
X133487533Y-34859160D01*
X133498404Y-34860542D01*
X133509436Y-34861381D01*
X133520614Y-34861663D01*
X133531793Y-34861381D01*
X133542825Y-34860542D01*
X133553696Y-34859160D01*
X133564393Y-34857250D01*
X133574903Y-34854825D01*
X133585211Y-34851897D01*
X133595305Y-34848482D01*
X133605169Y-34844593D01*
X133614792Y-34840242D01*
X133624158Y-34835445D01*
X133633255Y-34830215D01*
X133642068Y-34824564D01*
X133650585Y-34818508D01*
X133658791Y-34812059D01*
X133666673Y-34805232D01*
X133674218Y-34798039D01*
X133681410Y-34790495D01*
X133688238Y-34782613D01*
X133694687Y-34774407D01*
X133700743Y-34765890D01*
X133706393Y-34757076D01*
X133711624Y-34747979D01*
X133716421Y-34738613D01*
X133720771Y-34728991D01*
X133724661Y-34719126D01*
X133728076Y-34709033D01*
X133731003Y-34698724D01*
X133733429Y-34688215D01*
X133735339Y-34677517D01*
X133736721Y-34666646D01*
X133737560Y-34655614D01*
X133737842Y-34644436D01*
X133737560Y-34633257D01*
X133736721Y-34622225D01*
X133735339Y-34611354D01*
X133733429Y-34600657D01*
X133731003Y-34590147D01*
X133728076Y-34579839D01*
X133724661Y-34569746D01*
X133720771Y-34559881D01*
X133716421Y-34550259D01*
X133711624Y-34540892D01*
X133706393Y-34531795D01*
X133700743Y-34522982D01*
X133694687Y-34514465D01*
X133688238Y-34506259D01*
X133681410Y-34498377D01*
X133674218Y-34490833D01*
X133666673Y-34483640D01*
X133658791Y-34476812D01*
X133650585Y-34470363D01*
X133642068Y-34464307D01*
X133633255Y-34458657D01*
X133624158Y-34453426D01*
X133614792Y-34448629D01*
X133605169Y-34444279D01*
X133595305Y-34440389D01*
X133585211Y-34436974D01*
X133574903Y-34434047D01*
X133564393Y-34431621D01*
X133553696Y-34429711D01*
X133542825Y-34428329D01*
X133531793Y-34427491D01*
X133520614Y-34427208D01*
X133509436Y-34427491D01*
X133498404Y-34428329D01*
X133487533Y-34429711D01*
X133476836Y-34431621D01*
X133466326Y-34434047D01*
X133456018Y-34436974D01*
X133445924Y-34440389D01*
X133436060Y-34444279D01*
X133426437Y-34448629D01*
X133417071Y-34453426D01*
X133407974Y-34458657D01*
X133399160Y-34464307D01*
X133390644Y-34470363D01*
X133382438Y-34476812D01*
X133374556Y-34483640D01*
X133367011Y-34490833D01*
X133359819Y-34498377D01*
X133352991Y-34506259D01*
X133346542Y-34514465D01*
X133340486Y-34522982D01*
X133334836Y-34531795D01*
X133329605Y-34540892D01*
X133324808Y-34550259D01*
X133320458Y-34559881D01*
X133316568Y-34569746D01*
X133313153Y-34579839D01*
X133310226Y-34590147D01*
X133307800Y-34600657D01*
X133305890Y-34611354D01*
X133304508Y-34622225D01*
X133303669Y-34633257D01*
X133303387Y-34644436D01*
X133243045Y-34644436D01*
X133243407Y-34630152D01*
X133244479Y-34616056D01*
X133246244Y-34602165D01*
X133248685Y-34588496D01*
X133251784Y-34575067D01*
X133255524Y-34561895D01*
X133259888Y-34548998D01*
X133264858Y-34536393D01*
X133270417Y-34524098D01*
X133276547Y-34512130D01*
X133283230Y-34500506D01*
X133290450Y-34489244D01*
X133298189Y-34478362D01*
X133306429Y-34467876D01*
X133315153Y-34457805D01*
X133324344Y-34448165D01*
X133333984Y-34438974D01*
X133344055Y-34430250D01*
X133354541Y-34422010D01*
X133365423Y-34414272D01*
X133376685Y-34407052D01*
X133388309Y-34400368D01*
X133400277Y-34394238D01*
X133412572Y-34388680D01*
X133425177Y-34383710D01*
X133438074Y-34379346D01*
X133451246Y-34375606D01*
X133464675Y-34372506D01*
X133478344Y-34370065D01*
X133492235Y-34368300D01*
X133506331Y-34367228D01*
X133520614Y-34366867D01*
X133534898Y-34367228D01*
X133548994Y-34368300D01*
X133562885Y-34370065D01*
X133576554Y-34372506D01*
X133589983Y-34375606D01*
X133603155Y-34379346D01*
X133616052Y-34383710D01*
X133628657Y-34388680D01*
X133640952Y-34394238D01*
X133652920Y-34400368D01*
X133664544Y-34407052D01*
X133675806Y-34414272D01*
X133686688Y-34422010D01*
X133697174Y-34430250D01*
X133707245Y-34438974D01*
X133716885Y-34448165D01*
X133726076Y-34457805D01*
X133734800Y-34467876D01*
X133743040Y-34478362D01*
X133750779Y-34489244D01*
X133757998Y-34500506D01*
X133764682Y-34512130D01*
X133770812Y-34524098D01*
X133776370Y-34536393D01*
X133781340Y-34548998D01*
X133785704Y-34561895D01*
X133789444Y-34575067D01*
X133792544Y-34588496D01*
X133794985Y-34602165D01*
X133796750Y-34616056D01*
X133797822Y-34630152D01*
X133798183Y-34644436D01*
X133797822Y-34658719D01*
X133796750Y-34672815D01*
G36*
X133024385Y-34672815D02*
G01*
X133022620Y-34686707D01*
X133020179Y-34700375D01*
X133017079Y-34713804D01*
X133013339Y-34726976D01*
X133008975Y-34739873D01*
X133004005Y-34752478D01*
X132998447Y-34764773D01*
X132992317Y-34776742D01*
X132985633Y-34788365D01*
X132978413Y-34799627D01*
X132970675Y-34810510D01*
X132962435Y-34820995D01*
X132953711Y-34831067D01*
X132944520Y-34840707D01*
X132934880Y-34849897D01*
X132924809Y-34858621D01*
X132914323Y-34866861D01*
X132903441Y-34874600D01*
X132892179Y-34881820D01*
X132880555Y-34888504D01*
X132868587Y-34894633D01*
X132856292Y-34900192D01*
X132843687Y-34905162D01*
X132830790Y-34909526D01*
X132817618Y-34913266D01*
X132804189Y-34916365D01*
X132790520Y-34918806D01*
X132776629Y-34920572D01*
X132762533Y-34921643D01*
X132748249Y-34922005D01*
X132733966Y-34921643D01*
X132719870Y-34920572D01*
X132705978Y-34918806D01*
X132692310Y-34916365D01*
X132678881Y-34913266D01*
X132665709Y-34909526D01*
X132652812Y-34905162D01*
X132640207Y-34900192D01*
X132627912Y-34894633D01*
X132615943Y-34888504D01*
X132604320Y-34881820D01*
X132593058Y-34874600D01*
X132582175Y-34866861D01*
X132571690Y-34858621D01*
X132561618Y-34849897D01*
X132551978Y-34840707D01*
X132542788Y-34831067D01*
X132534064Y-34820995D01*
X132525824Y-34810510D01*
X132518085Y-34799627D01*
X132510865Y-34788365D01*
X132504181Y-34776742D01*
X132498052Y-34764773D01*
X132492493Y-34752478D01*
X132487523Y-34739873D01*
X132483159Y-34726976D01*
X132479419Y-34713804D01*
X132476320Y-34700375D01*
X132473879Y-34686707D01*
X132472113Y-34672815D01*
X132471042Y-34658719D01*
X132470680Y-34644436D01*
X132531022Y-34644436D01*
X132531304Y-34655614D01*
X132532143Y-34666646D01*
X132533525Y-34677517D01*
X132535435Y-34688215D01*
X132537860Y-34698724D01*
X132540788Y-34709033D01*
X132544203Y-34719126D01*
X132548092Y-34728991D01*
X132552443Y-34738613D01*
X132557240Y-34747979D01*
X132562470Y-34757076D01*
X132568121Y-34765890D01*
X132574177Y-34774407D01*
X132580626Y-34782613D01*
X132587453Y-34790495D01*
X132594646Y-34798039D01*
X132602190Y-34805232D01*
X132610072Y-34812059D01*
X132618278Y-34818508D01*
X132626795Y-34824564D01*
X132635609Y-34830215D01*
X132644706Y-34835445D01*
X132654072Y-34840242D01*
X132663694Y-34844593D01*
X132673559Y-34848482D01*
X132683652Y-34851897D01*
X132693961Y-34854825D01*
X132704470Y-34857250D01*
X132715168Y-34859160D01*
X132726039Y-34860542D01*
X132737071Y-34861381D01*
X132748249Y-34861663D01*
X132759428Y-34861381D01*
X132770460Y-34860542D01*
X132781331Y-34859160D01*
X132792028Y-34857250D01*
X132802538Y-34854825D01*
X132812846Y-34851897D01*
X132822939Y-34848482D01*
X132832804Y-34844593D01*
X132842426Y-34840242D01*
X132851793Y-34835445D01*
X132860890Y-34830215D01*
X132869703Y-34824564D01*
X132878220Y-34818508D01*
X132886426Y-34812059D01*
X132894308Y-34805232D01*
X132901852Y-34798039D01*
X132909045Y-34790495D01*
X132915873Y-34782613D01*
X132922322Y-34774407D01*
X132928378Y-34765890D01*
X132934028Y-34757076D01*
X132939259Y-34747979D01*
X132944056Y-34738613D01*
X132948406Y-34728991D01*
X132952296Y-34719126D01*
X132955711Y-34709033D01*
X132958638Y-34698724D01*
X132961064Y-34688215D01*
X132962974Y-34677517D01*
X132964356Y-34666646D01*
X132965194Y-34655614D01*
X132965477Y-34644436D01*
X132965194Y-34633257D01*
X132964356Y-34622225D01*
X132962974Y-34611354D01*
X132961064Y-34600657D01*
X132958638Y-34590147D01*
X132955711Y-34579839D01*
X132952296Y-34569746D01*
X132948406Y-34559881D01*
X132944056Y-34550259D01*
X132939259Y-34540892D01*
X132934028Y-34531795D01*
X132928378Y-34522982D01*
X132922322Y-34514465D01*
X132915873Y-34506259D01*
X132909045Y-34498377D01*
X132901852Y-34490833D01*
X132894308Y-34483640D01*
X132886426Y-34476812D01*
X132878220Y-34470363D01*
X132869703Y-34464307D01*
X132860890Y-34458657D01*
X132851793Y-34453426D01*
X132842426Y-34448629D01*
X132832804Y-34444279D01*
X132822939Y-34440389D01*
X132812846Y-34436974D01*
X132802538Y-34434047D01*
X132792028Y-34431621D01*
X132781331Y-34429711D01*
X132770460Y-34428329D01*
X132759428Y-34427491D01*
X132748249Y-34427208D01*
X132737071Y-34427491D01*
X132726039Y-34428329D01*
X132715168Y-34429711D01*
X132704470Y-34431621D01*
X132693961Y-34434047D01*
X132683652Y-34436974D01*
X132673559Y-34440389D01*
X132663694Y-34444279D01*
X132654072Y-34448629D01*
X132644706Y-34453426D01*
X132635609Y-34458657D01*
X132626795Y-34464307D01*
X132618278Y-34470363D01*
X132610072Y-34476812D01*
X132602190Y-34483640D01*
X132594646Y-34490833D01*
X132587453Y-34498377D01*
X132580626Y-34506259D01*
X132574177Y-34514465D01*
X132568121Y-34522982D01*
X132562470Y-34531795D01*
X132557240Y-34540892D01*
X132552443Y-34550259D01*
X132548092Y-34559881D01*
X132544203Y-34569746D01*
X132540788Y-34579839D01*
X132537860Y-34590147D01*
X132535435Y-34600657D01*
X132533525Y-34611354D01*
X132532143Y-34622225D01*
X132531304Y-34633257D01*
X132531022Y-34644436D01*
X132470680Y-34644436D01*
X132471042Y-34630152D01*
X132472113Y-34616056D01*
X132473879Y-34602165D01*
X132476320Y-34588496D01*
X132479419Y-34575067D01*
X132483159Y-34561895D01*
X132487523Y-34548998D01*
X132492493Y-34536393D01*
X132498052Y-34524098D01*
X132504181Y-34512130D01*
X132510865Y-34500506D01*
X132518085Y-34489244D01*
X132525824Y-34478362D01*
X132534064Y-34467876D01*
X132542788Y-34457805D01*
X132551978Y-34448165D01*
X132561618Y-34438974D01*
X132571690Y-34430250D01*
X132582175Y-34422010D01*
X132593058Y-34414272D01*
X132604320Y-34407052D01*
X132615943Y-34400368D01*
X132627912Y-34394238D01*
X132640207Y-34388680D01*
X132652812Y-34383710D01*
X132665709Y-34379346D01*
X132678881Y-34375606D01*
X132692310Y-34372506D01*
X132705978Y-34370065D01*
X132719870Y-34368300D01*
X132733966Y-34367228D01*
X132748249Y-34366867D01*
X132762533Y-34367228D01*
X132776629Y-34368300D01*
X132790520Y-34370065D01*
X132804189Y-34372506D01*
X132817618Y-34375606D01*
X132830790Y-34379346D01*
X132843687Y-34383710D01*
X132856292Y-34388680D01*
X132868587Y-34394238D01*
X132880555Y-34400368D01*
X132892179Y-34407052D01*
X132903441Y-34414272D01*
X132914323Y-34422010D01*
X132924809Y-34430250D01*
X132934880Y-34438974D01*
X132944520Y-34448165D01*
X132953711Y-34457805D01*
X132962435Y-34467876D01*
X132970675Y-34478362D01*
X132978413Y-34489244D01*
X132985633Y-34500506D01*
X132992317Y-34512130D01*
X132998447Y-34524098D01*
X133004005Y-34536393D01*
X133008975Y-34548998D01*
X133013339Y-34561895D01*
X133017079Y-34575067D01*
X133020179Y-34588496D01*
X133022620Y-34602165D01*
X133024385Y-34616056D01*
X133025457Y-34630152D01*
X133025818Y-34644436D01*
X133025457Y-34658719D01*
X133024385Y-34672815D01*
G37*
X133024385Y-34672815D02*
X133022620Y-34686707D01*
X133020179Y-34700375D01*
X133017079Y-34713804D01*
X133013339Y-34726976D01*
X133008975Y-34739873D01*
X133004005Y-34752478D01*
X132998447Y-34764773D01*
X132992317Y-34776742D01*
X132985633Y-34788365D01*
X132978413Y-34799627D01*
X132970675Y-34810510D01*
X132962435Y-34820995D01*
X132953711Y-34831067D01*
X132944520Y-34840707D01*
X132934880Y-34849897D01*
X132924809Y-34858621D01*
X132914323Y-34866861D01*
X132903441Y-34874600D01*
X132892179Y-34881820D01*
X132880555Y-34888504D01*
X132868587Y-34894633D01*
X132856292Y-34900192D01*
X132843687Y-34905162D01*
X132830790Y-34909526D01*
X132817618Y-34913266D01*
X132804189Y-34916365D01*
X132790520Y-34918806D01*
X132776629Y-34920572D01*
X132762533Y-34921643D01*
X132748249Y-34922005D01*
X132733966Y-34921643D01*
X132719870Y-34920572D01*
X132705978Y-34918806D01*
X132692310Y-34916365D01*
X132678881Y-34913266D01*
X132665709Y-34909526D01*
X132652812Y-34905162D01*
X132640207Y-34900192D01*
X132627912Y-34894633D01*
X132615943Y-34888504D01*
X132604320Y-34881820D01*
X132593058Y-34874600D01*
X132582175Y-34866861D01*
X132571690Y-34858621D01*
X132561618Y-34849897D01*
X132551978Y-34840707D01*
X132542788Y-34831067D01*
X132534064Y-34820995D01*
X132525824Y-34810510D01*
X132518085Y-34799627D01*
X132510865Y-34788365D01*
X132504181Y-34776742D01*
X132498052Y-34764773D01*
X132492493Y-34752478D01*
X132487523Y-34739873D01*
X132483159Y-34726976D01*
X132479419Y-34713804D01*
X132476320Y-34700375D01*
X132473879Y-34686707D01*
X132472113Y-34672815D01*
X132471042Y-34658719D01*
X132470680Y-34644436D01*
X132531022Y-34644436D01*
X132531304Y-34655614D01*
X132532143Y-34666646D01*
X132533525Y-34677517D01*
X132535435Y-34688215D01*
X132537860Y-34698724D01*
X132540788Y-34709033D01*
X132544203Y-34719126D01*
X132548092Y-34728991D01*
X132552443Y-34738613D01*
X132557240Y-34747979D01*
X132562470Y-34757076D01*
X132568121Y-34765890D01*
X132574177Y-34774407D01*
X132580626Y-34782613D01*
X132587453Y-34790495D01*
X132594646Y-34798039D01*
X132602190Y-34805232D01*
X132610072Y-34812059D01*
X132618278Y-34818508D01*
X132626795Y-34824564D01*
X132635609Y-34830215D01*
X132644706Y-34835445D01*
X132654072Y-34840242D01*
X132663694Y-34844593D01*
X132673559Y-34848482D01*
X132683652Y-34851897D01*
X132693961Y-34854825D01*
X132704470Y-34857250D01*
X132715168Y-34859160D01*
X132726039Y-34860542D01*
X132737071Y-34861381D01*
X132748249Y-34861663D01*
X132759428Y-34861381D01*
X132770460Y-34860542D01*
X132781331Y-34859160D01*
X132792028Y-34857250D01*
X132802538Y-34854825D01*
X132812846Y-34851897D01*
X132822939Y-34848482D01*
X132832804Y-34844593D01*
X132842426Y-34840242D01*
X132851793Y-34835445D01*
X132860890Y-34830215D01*
X132869703Y-34824564D01*
X132878220Y-34818508D01*
X132886426Y-34812059D01*
X132894308Y-34805232D01*
X132901852Y-34798039D01*
X132909045Y-34790495D01*
X132915873Y-34782613D01*
X132922322Y-34774407D01*
X132928378Y-34765890D01*
X132934028Y-34757076D01*
X132939259Y-34747979D01*
X132944056Y-34738613D01*
X132948406Y-34728991D01*
X132952296Y-34719126D01*
X132955711Y-34709033D01*
X132958638Y-34698724D01*
X132961064Y-34688215D01*
X132962974Y-34677517D01*
X132964356Y-34666646D01*
X132965194Y-34655614D01*
X132965477Y-34644436D01*
X132965194Y-34633257D01*
X132964356Y-34622225D01*
X132962974Y-34611354D01*
X132961064Y-34600657D01*
X132958638Y-34590147D01*
X132955711Y-34579839D01*
X132952296Y-34569746D01*
X132948406Y-34559881D01*
X132944056Y-34550259D01*
X132939259Y-34540892D01*
X132934028Y-34531795D01*
X132928378Y-34522982D01*
X132922322Y-34514465D01*
X132915873Y-34506259D01*
X132909045Y-34498377D01*
X132901852Y-34490833D01*
X132894308Y-34483640D01*
X132886426Y-34476812D01*
X132878220Y-34470363D01*
X132869703Y-34464307D01*
X132860890Y-34458657D01*
X132851793Y-34453426D01*
X132842426Y-34448629D01*
X132832804Y-34444279D01*
X132822939Y-34440389D01*
X132812846Y-34436974D01*
X132802538Y-34434047D01*
X132792028Y-34431621D01*
X132781331Y-34429711D01*
X132770460Y-34428329D01*
X132759428Y-34427491D01*
X132748249Y-34427208D01*
X132737071Y-34427491D01*
X132726039Y-34428329D01*
X132715168Y-34429711D01*
X132704470Y-34431621D01*
X132693961Y-34434047D01*
X132683652Y-34436974D01*
X132673559Y-34440389D01*
X132663694Y-34444279D01*
X132654072Y-34448629D01*
X132644706Y-34453426D01*
X132635609Y-34458657D01*
X132626795Y-34464307D01*
X132618278Y-34470363D01*
X132610072Y-34476812D01*
X132602190Y-34483640D01*
X132594646Y-34490833D01*
X132587453Y-34498377D01*
X132580626Y-34506259D01*
X132574177Y-34514465D01*
X132568121Y-34522982D01*
X132562470Y-34531795D01*
X132557240Y-34540892D01*
X132552443Y-34550259D01*
X132548092Y-34559881D01*
X132544203Y-34569746D01*
X132540788Y-34579839D01*
X132537860Y-34590147D01*
X132535435Y-34600657D01*
X132533525Y-34611354D01*
X132532143Y-34622225D01*
X132531304Y-34633257D01*
X132531022Y-34644436D01*
X132470680Y-34644436D01*
X132471042Y-34630152D01*
X132472113Y-34616056D01*
X132473879Y-34602165D01*
X132476320Y-34588496D01*
X132479419Y-34575067D01*
X132483159Y-34561895D01*
X132487523Y-34548998D01*
X132492493Y-34536393D01*
X132498052Y-34524098D01*
X132504181Y-34512130D01*
X132510865Y-34500506D01*
X132518085Y-34489244D01*
X132525824Y-34478362D01*
X132534064Y-34467876D01*
X132542788Y-34457805D01*
X132551978Y-34448165D01*
X132561618Y-34438974D01*
X132571690Y-34430250D01*
X132582175Y-34422010D01*
X132593058Y-34414272D01*
X132604320Y-34407052D01*
X132615943Y-34400368D01*
X132627912Y-34394238D01*
X132640207Y-34388680D01*
X132652812Y-34383710D01*
X132665709Y-34379346D01*
X132678881Y-34375606D01*
X132692310Y-34372506D01*
X132705978Y-34370065D01*
X132719870Y-34368300D01*
X132733966Y-34367228D01*
X132748249Y-34366867D01*
X132762533Y-34367228D01*
X132776629Y-34368300D01*
X132790520Y-34370065D01*
X132804189Y-34372506D01*
X132817618Y-34375606D01*
X132830790Y-34379346D01*
X132843687Y-34383710D01*
X132856292Y-34388680D01*
X132868587Y-34394238D01*
X132880555Y-34400368D01*
X132892179Y-34407052D01*
X132903441Y-34414272D01*
X132914323Y-34422010D01*
X132924809Y-34430250D01*
X132934880Y-34438974D01*
X132944520Y-34448165D01*
X132953711Y-34457805D01*
X132962435Y-34467876D01*
X132970675Y-34478362D01*
X132978413Y-34489244D01*
X132985633Y-34500506D01*
X132992317Y-34512130D01*
X132998447Y-34524098D01*
X133004005Y-34536393D01*
X133008975Y-34548998D01*
X133013339Y-34561895D01*
X133017079Y-34575067D01*
X133020179Y-34588496D01*
X133022620Y-34602165D01*
X133024385Y-34616056D01*
X133025457Y-34630152D01*
X133025818Y-34644436D01*
X133025457Y-34658719D01*
X133024385Y-34672815D01*
G36*
X129303702Y-38088983D02*
G01*
X129303702Y-34258253D01*
X131589702Y-34258253D01*
X131591712Y-34337744D01*
X131597677Y-34416193D01*
X131607501Y-34493500D01*
X131621085Y-34569570D01*
X131638334Y-34644305D01*
X131659150Y-34717609D01*
X131683436Y-34789383D01*
X131711094Y-34859532D01*
X131742029Y-34927958D01*
X131776142Y-34994563D01*
X131813338Y-35059252D01*
X131853517Y-35121926D01*
X131896585Y-35182490D01*
X131942443Y-35240845D01*
X131990995Y-35296895D01*
X132042143Y-35350542D01*
X132095790Y-35401690D01*
X132151840Y-35450242D01*
X132210195Y-35496100D01*
X132270759Y-35539168D01*
X132333433Y-35579347D01*
X132398122Y-35616543D01*
X132464727Y-35650656D01*
X132533153Y-35681591D01*
X132603302Y-35709249D01*
X132675076Y-35733535D01*
X132748380Y-35754351D01*
X132823115Y-35771600D01*
X132899185Y-35785184D01*
X132976492Y-35795008D01*
X133054941Y-35800973D01*
X133134432Y-35802983D01*
X133213924Y-35800973D01*
X133292372Y-35795008D01*
X133369679Y-35785184D01*
X133445749Y-35771600D01*
X133520484Y-35754351D01*
X133593788Y-35733535D01*
X133665562Y-35709249D01*
X133735711Y-35681591D01*
X133804136Y-35650656D01*
X133870742Y-35616543D01*
X133935431Y-35579347D01*
X133998105Y-35539168D01*
X134058669Y-35496100D01*
X134117024Y-35450242D01*
X134173073Y-35401690D01*
X134226721Y-35350542D01*
X134277869Y-35296895D01*
X134326421Y-35240845D01*
X134372279Y-35182490D01*
X134415346Y-35121926D01*
X134455526Y-35059252D01*
X134492721Y-34994563D01*
X134526835Y-34927958D01*
X134557769Y-34859532D01*
X134585428Y-34789383D01*
X134609714Y-34717609D01*
X134630530Y-34644305D01*
X134647778Y-34569570D01*
X134661363Y-34493500D01*
X134671187Y-34416193D01*
X134677152Y-34337744D01*
X134679162Y-34258253D01*
X134677152Y-34178761D01*
X134671187Y-34100313D01*
X134661363Y-34023006D01*
X134647778Y-33946936D01*
X134630530Y-33872201D01*
X134609714Y-33798897D01*
X134585428Y-33727123D01*
X134557769Y-33656974D01*
X134526835Y-33588549D01*
X134492721Y-33521943D01*
X134455526Y-33457254D01*
X134415346Y-33394580D01*
X134372279Y-33334016D01*
X134326421Y-33275661D01*
X134277869Y-33219612D01*
X134226721Y-33165964D01*
X134173073Y-33114816D01*
X134117024Y-33066264D01*
X134058669Y-33020406D01*
X133998105Y-32977339D01*
X133935431Y-32937159D01*
X133870742Y-32899964D01*
X133804136Y-32865850D01*
X133735711Y-32834916D01*
X133665562Y-32807257D01*
X133593788Y-32782971D01*
X133520484Y-32762155D01*
X133445749Y-32744907D01*
X133369679Y-32731322D01*
X133292372Y-32721498D01*
X133213924Y-32715533D01*
X133134432Y-32713523D01*
X134765575Y-32713523D01*
X134769594Y-32872484D01*
X134781521Y-33029358D01*
X134801162Y-33183952D01*
X134828324Y-33336071D01*
X134862812Y-33485522D01*
X134904432Y-33632110D01*
X134952990Y-33775641D01*
X135008293Y-33915923D01*
X135070145Y-34052759D01*
X135138354Y-34185957D01*
X135179916Y-34258253D01*
X135212724Y-34315322D01*
X135293063Y-34440660D01*
X135379175Y-34561777D01*
X135470868Y-34678480D01*
X135567946Y-34790574D01*
X135670216Y-34897864D01*
X135777484Y-35000158D01*
X135889556Y-35097261D01*
X136006237Y-35188979D01*
X136127334Y-35275117D01*
X136252653Y-35355483D01*
X136382000Y-35429881D01*
X136515180Y-35498118D01*
X136652000Y-35560000D01*
X136792265Y-35615333D01*
X136935782Y-35663923D01*
X137082356Y-35705575D01*
X137231794Y-35740095D01*
X137383901Y-35767290D01*
X137538484Y-35786966D01*
X137695347Y-35798928D01*
X137854299Y-35802983D01*
X137855035Y-35802983D01*
X137855035Y-35801679D01*
X137850952Y-35642752D01*
X137838963Y-35485913D01*
X137819264Y-35331355D01*
X137792048Y-35179273D01*
X137757508Y-35029860D01*
X137715840Y-34883311D01*
X137667236Y-34739819D01*
X137611891Y-34599578D01*
X137549999Y-34462783D01*
X137481754Y-34329626D01*
X137407349Y-34200304D01*
X137326979Y-34075008D01*
X137240838Y-33953934D01*
X137149119Y-33837274D01*
X137052017Y-33725224D01*
X136949725Y-33617977D01*
X136842438Y-33515727D01*
X136730350Y-33418668D01*
X136613654Y-33326994D01*
X136492544Y-33240899D01*
X136367215Y-33160577D01*
X136237860Y-33086222D01*
X136104673Y-33018028D01*
X135967849Y-32956189D01*
X135827581Y-32900898D01*
X135684064Y-32852350D01*
X135537490Y-32810739D01*
X135388055Y-32776258D01*
X135235952Y-32749103D01*
X135081375Y-32729466D01*
X134924518Y-32717541D01*
X134765575Y-32713523D01*
X133134432Y-32713523D01*
X133054941Y-32715533D01*
X132976492Y-32721498D01*
X132899185Y-32731322D01*
X132823115Y-32744907D01*
X132748380Y-32762155D01*
X132675076Y-32782971D01*
X132603302Y-32807257D01*
X132533153Y-32834916D01*
X132464727Y-32865850D01*
X132398122Y-32899964D01*
X132333433Y-32937159D01*
X132270759Y-32977339D01*
X132210195Y-33020406D01*
X132151840Y-33066264D01*
X132095790Y-33114816D01*
X132042143Y-33165964D01*
X131990995Y-33219612D01*
X131942443Y-33275661D01*
X131896585Y-33334016D01*
X131853517Y-33394580D01*
X131813338Y-33457254D01*
X131776142Y-33521943D01*
X131742029Y-33588549D01*
X131711094Y-33656974D01*
X131683436Y-33727123D01*
X131659150Y-33798897D01*
X131638334Y-33872201D01*
X131621085Y-33946936D01*
X131607501Y-34023006D01*
X131597677Y-34100313D01*
X131591712Y-34178761D01*
X131589702Y-34258253D01*
X129303702Y-34258253D01*
X129303702Y-29537650D01*
X131589702Y-29537650D01*
X131593722Y-29696633D01*
X131605653Y-29853529D01*
X131625299Y-30008144D01*
X131652469Y-30160284D01*
X131686966Y-30309754D01*
X131728598Y-30456361D01*
X131777169Y-30599910D01*
X131832487Y-30740208D01*
X131894356Y-30877059D01*
X131962583Y-31010271D01*
X132036973Y-31139648D01*
X132117333Y-31264997D01*
X132203468Y-31386124D01*
X132295184Y-31502834D01*
X132392287Y-31614934D01*
X132494583Y-31722229D01*
X132601878Y-31824525D01*
X132713978Y-31921628D01*
X132830688Y-32013344D01*
X132951815Y-32099479D01*
X133077164Y-32179839D01*
X133206541Y-32254229D01*
X133339753Y-32322456D01*
X133476604Y-32384325D01*
X133616901Y-32439643D01*
X133760451Y-32488214D01*
X133907057Y-32529846D01*
X134056528Y-32564343D01*
X134208667Y-32591513D01*
X134363282Y-32611160D01*
X134520179Y-32623090D01*
X134679162Y-32627110D01*
X137855035Y-32627110D01*
X137855035Y-29537650D01*
X137696052Y-29541670D01*
X137539155Y-29553600D01*
X137384540Y-29573248D01*
X137232401Y-29600417D01*
X137082930Y-29634914D01*
X136936324Y-29676546D01*
X136792775Y-29725118D01*
X136652477Y-29780435D01*
X136515626Y-29842304D01*
X136382414Y-29910531D01*
X136253037Y-29984922D01*
X136127688Y-30065282D01*
X136006561Y-30151417D01*
X135889851Y-30243133D01*
X135777751Y-30340236D01*
X135670456Y-30442532D01*
X135568160Y-30549827D01*
X135471057Y-30661927D01*
X135379341Y-30778637D01*
X135293206Y-30899764D01*
X135212846Y-31025113D01*
X135138456Y-31154491D01*
X135070229Y-31287702D01*
X135008360Y-31424553D01*
X134953042Y-31564851D01*
X134904471Y-31708400D01*
X134862839Y-31855006D01*
X134828342Y-32004477D01*
X134801172Y-32156616D01*
X134781525Y-32311231D01*
X134769595Y-32468127D01*
X134765575Y-32627110D01*
X134679162Y-32627110D01*
X134679162Y-29537650D01*
X131589702Y-29537650D01*
X129303702Y-29537650D01*
X129303702Y-27251650D01*
X140141035Y-27251650D01*
X140141035Y-38088983D01*
X129303702Y-38088983D01*
G37*
X129303702Y-38088983D02*
X129303702Y-34258253D01*
X131589702Y-34258253D01*
X131591712Y-34337744D01*
X131597677Y-34416193D01*
X131607501Y-34493500D01*
X131621085Y-34569570D01*
X131638334Y-34644305D01*
X131659150Y-34717609D01*
X131683436Y-34789383D01*
X131711094Y-34859532D01*
X131742029Y-34927958D01*
X131776142Y-34994563D01*
X131813338Y-35059252D01*
X131853517Y-35121926D01*
X131896585Y-35182490D01*
X131942443Y-35240845D01*
X131990995Y-35296895D01*
X132042143Y-35350542D01*
X132095790Y-35401690D01*
X132151840Y-35450242D01*
X132210195Y-35496100D01*
X132270759Y-35539168D01*
X132333433Y-35579347D01*
X132398122Y-35616543D01*
X132464727Y-35650656D01*
X132533153Y-35681591D01*
X132603302Y-35709249D01*
X132675076Y-35733535D01*
X132748380Y-35754351D01*
X132823115Y-35771600D01*
X132899185Y-35785184D01*
X132976492Y-35795008D01*
X133054941Y-35800973D01*
X133134432Y-35802983D01*
X133213924Y-35800973D01*
X133292372Y-35795008D01*
X133369679Y-35785184D01*
X133445749Y-35771600D01*
X133520484Y-35754351D01*
X133593788Y-35733535D01*
X133665562Y-35709249D01*
X133735711Y-35681591D01*
X133804136Y-35650656D01*
X133870742Y-35616543D01*
X133935431Y-35579347D01*
X133998105Y-35539168D01*
X134058669Y-35496100D01*
X134117024Y-35450242D01*
X134173073Y-35401690D01*
X134226721Y-35350542D01*
X134277869Y-35296895D01*
X134326421Y-35240845D01*
X134372279Y-35182490D01*
X134415346Y-35121926D01*
X134455526Y-35059252D01*
X134492721Y-34994563D01*
X134526835Y-34927958D01*
X134557769Y-34859532D01*
X134585428Y-34789383D01*
X134609714Y-34717609D01*
X134630530Y-34644305D01*
X134647778Y-34569570D01*
X134661363Y-34493500D01*
X134671187Y-34416193D01*
X134677152Y-34337744D01*
X134679162Y-34258253D01*
X134677152Y-34178761D01*
X134671187Y-34100313D01*
X134661363Y-34023006D01*
X134647778Y-33946936D01*
X134630530Y-33872201D01*
X134609714Y-33798897D01*
X134585428Y-33727123D01*
X134557769Y-33656974D01*
X134526835Y-33588549D01*
X134492721Y-33521943D01*
X134455526Y-33457254D01*
X134415346Y-33394580D01*
X134372279Y-33334016D01*
X134326421Y-33275661D01*
X134277869Y-33219612D01*
X134226721Y-33165964D01*
X134173073Y-33114816D01*
X134117024Y-33066264D01*
X134058669Y-33020406D01*
X133998105Y-32977339D01*
X133935431Y-32937159D01*
X133870742Y-32899964D01*
X133804136Y-32865850D01*
X133735711Y-32834916D01*
X133665562Y-32807257D01*
X133593788Y-32782971D01*
X133520484Y-32762155D01*
X133445749Y-32744907D01*
X133369679Y-32731322D01*
X133292372Y-32721498D01*
X133213924Y-32715533D01*
X133134432Y-32713523D01*
X134765575Y-32713523D01*
X134769594Y-32872484D01*
X134781521Y-33029358D01*
X134801162Y-33183952D01*
X134828324Y-33336071D01*
X134862812Y-33485522D01*
X134904432Y-33632110D01*
X134952990Y-33775641D01*
X135008293Y-33915923D01*
X135070145Y-34052759D01*
X135138354Y-34185957D01*
X135179916Y-34258253D01*
X135212724Y-34315322D01*
X135293063Y-34440660D01*
X135379175Y-34561777D01*
X135470868Y-34678480D01*
X135567946Y-34790574D01*
X135670216Y-34897864D01*
X135777484Y-35000158D01*
X135889556Y-35097261D01*
X136006237Y-35188979D01*
X136127334Y-35275117D01*
X136252653Y-35355483D01*
X136382000Y-35429881D01*
X136515180Y-35498118D01*
X136652000Y-35560000D01*
X136792265Y-35615333D01*
X136935782Y-35663923D01*
X137082356Y-35705575D01*
X137231794Y-35740095D01*
X137383901Y-35767290D01*
X137538484Y-35786966D01*
X137695347Y-35798928D01*
X137854299Y-35802983D01*
X137855035Y-35802983D01*
X137855035Y-35801679D01*
X137850952Y-35642752D01*
X137838963Y-35485913D01*
X137819264Y-35331355D01*
X137792048Y-35179273D01*
X137757508Y-35029860D01*
X137715840Y-34883311D01*
X137667236Y-34739819D01*
X137611891Y-34599578D01*
X137549999Y-34462783D01*
X137481754Y-34329626D01*
X137407349Y-34200304D01*
X137326979Y-34075008D01*
X137240838Y-33953934D01*
X137149119Y-33837274D01*
X137052017Y-33725224D01*
X136949725Y-33617977D01*
X136842438Y-33515727D01*
X136730350Y-33418668D01*
X136613654Y-33326994D01*
X136492544Y-33240899D01*
X136367215Y-33160577D01*
X136237860Y-33086222D01*
X136104673Y-33018028D01*
X135967849Y-32956189D01*
X135827581Y-32900898D01*
X135684064Y-32852350D01*
X135537490Y-32810739D01*
X135388055Y-32776258D01*
X135235952Y-32749103D01*
X135081375Y-32729466D01*
X134924518Y-32717541D01*
X134765575Y-32713523D01*
X133134432Y-32713523D01*
X133054941Y-32715533D01*
X132976492Y-32721498D01*
X132899185Y-32731322D01*
X132823115Y-32744907D01*
X132748380Y-32762155D01*
X132675076Y-32782971D01*
X132603302Y-32807257D01*
X132533153Y-32834916D01*
X132464727Y-32865850D01*
X132398122Y-32899964D01*
X132333433Y-32937159D01*
X132270759Y-32977339D01*
X132210195Y-33020406D01*
X132151840Y-33066264D01*
X132095790Y-33114816D01*
X132042143Y-33165964D01*
X131990995Y-33219612D01*
X131942443Y-33275661D01*
X131896585Y-33334016D01*
X131853517Y-33394580D01*
X131813338Y-33457254D01*
X131776142Y-33521943D01*
X131742029Y-33588549D01*
X131711094Y-33656974D01*
X131683436Y-33727123D01*
X131659150Y-33798897D01*
X131638334Y-33872201D01*
X131621085Y-33946936D01*
X131607501Y-34023006D01*
X131597677Y-34100313D01*
X131591712Y-34178761D01*
X131589702Y-34258253D01*
X129303702Y-34258253D01*
X129303702Y-29537650D01*
X131589702Y-29537650D01*
X131593722Y-29696633D01*
X131605653Y-29853529D01*
X131625299Y-30008144D01*
X131652469Y-30160284D01*
X131686966Y-30309754D01*
X131728598Y-30456361D01*
X131777169Y-30599910D01*
X131832487Y-30740208D01*
X131894356Y-30877059D01*
X131962583Y-31010271D01*
X132036973Y-31139648D01*
X132117333Y-31264997D01*
X132203468Y-31386124D01*
X132295184Y-31502834D01*
X132392287Y-31614934D01*
X132494583Y-31722229D01*
X132601878Y-31824525D01*
X132713978Y-31921628D01*
X132830688Y-32013344D01*
X132951815Y-32099479D01*
X133077164Y-32179839D01*
X133206541Y-32254229D01*
X133339753Y-32322456D01*
X133476604Y-32384325D01*
X133616901Y-32439643D01*
X133760451Y-32488214D01*
X133907057Y-32529846D01*
X134056528Y-32564343D01*
X134208667Y-32591513D01*
X134363282Y-32611160D01*
X134520179Y-32623090D01*
X134679162Y-32627110D01*
X137855035Y-32627110D01*
X137855035Y-29537650D01*
X137696052Y-29541670D01*
X137539155Y-29553600D01*
X137384540Y-29573248D01*
X137232401Y-29600417D01*
X137082930Y-29634914D01*
X136936324Y-29676546D01*
X136792775Y-29725118D01*
X136652477Y-29780435D01*
X136515626Y-29842304D01*
X136382414Y-29910531D01*
X136253037Y-29984922D01*
X136127688Y-30065282D01*
X136006561Y-30151417D01*
X135889851Y-30243133D01*
X135777751Y-30340236D01*
X135670456Y-30442532D01*
X135568160Y-30549827D01*
X135471057Y-30661927D01*
X135379341Y-30778637D01*
X135293206Y-30899764D01*
X135212846Y-31025113D01*
X135138456Y-31154491D01*
X135070229Y-31287702D01*
X135008360Y-31424553D01*
X134953042Y-31564851D01*
X134904471Y-31708400D01*
X134862839Y-31855006D01*
X134828342Y-32004477D01*
X134801172Y-32156616D01*
X134781525Y-32311231D01*
X134769595Y-32468127D01*
X134765575Y-32627110D01*
X134679162Y-32627110D01*
X134679162Y-29537650D01*
X131589702Y-29537650D01*
X129303702Y-29537650D01*
X129303702Y-27251650D01*
X140141035Y-27251650D01*
X140141035Y-38088983D01*
X129303702Y-38088983D01*
D13*
X136856449Y-34804397D02*
X136883843Y-34775582D01*
X136883843Y-34775582D02*
X136909470Y-34745737D01*
X136909470Y-34745737D02*
X136933329Y-34714932D01*
X136933329Y-34714932D02*
X136955421Y-34683234D01*
X136955421Y-34683234D02*
X136975745Y-34650713D01*
X136975745Y-34650713D02*
X136994302Y-34617437D01*
X136994302Y-34617437D02*
X137011092Y-34583474D01*
X137011092Y-34583474D02*
X137026115Y-34548894D01*
X137026115Y-34548894D02*
X137039370Y-34513765D01*
X137039370Y-34513765D02*
X137050858Y-34478155D01*
X137050858Y-34478155D02*
X137060578Y-34442134D01*
X137060578Y-34442134D02*
X137068531Y-34405770D01*
X137068531Y-34405770D02*
X137074717Y-34369131D01*
X137074717Y-34369131D02*
X137079135Y-34332286D01*
X137079135Y-34332286D02*
X137081786Y-34295304D01*
X137081786Y-34295304D02*
X137082670Y-34258253D01*
X137082670Y-34258253D02*
X137081786Y-34221202D01*
X137081786Y-34221202D02*
X137079135Y-34184220D01*
X137079135Y-34184220D02*
X137074717Y-34147375D01*
X137074717Y-34147375D02*
X137068531Y-34110736D01*
X137068531Y-34110736D02*
X137060578Y-34074372D01*
X137060578Y-34074372D02*
X137050858Y-34038351D01*
X137050858Y-34038351D02*
X137039370Y-34002741D01*
X137039370Y-34002741D02*
X137026115Y-33967612D01*
X137026115Y-33967612D02*
X137011092Y-33933032D01*
X137011092Y-33933032D02*
X136994302Y-33899070D01*
X136994302Y-33899070D02*
X136975745Y-33865793D01*
X136975745Y-33865793D02*
X136955421Y-33833272D01*
X136955421Y-33833272D02*
X136933329Y-33801575D01*
X136933329Y-33801575D02*
X136909470Y-33770769D01*
X136909470Y-33770769D02*
X136883843Y-33740925D01*
X136883843Y-33740925D02*
X136856449Y-33712110D01*
X136856449Y-33712110D02*
X136856449Y-33712110D01*
X136856449Y-33712110D02*
X136827634Y-33684716D01*
X136827634Y-33684716D02*
X136797789Y-33659089D01*
X136797789Y-33659089D02*
X136766984Y-33635230D01*
X136766984Y-33635230D02*
X136735286Y-33613138D01*
X136735286Y-33613138D02*
X136702765Y-33592813D01*
X136702765Y-33592813D02*
X136669489Y-33574256D01*
X136669489Y-33574256D02*
X136635526Y-33557466D01*
X136635526Y-33557466D02*
X136600946Y-33542444D01*
X136600946Y-33542444D02*
X136565817Y-33529188D01*
X136565817Y-33529188D02*
X136530208Y-33517701D01*
X136530208Y-33517701D02*
X136494186Y-33507980D01*
X136494186Y-33507980D02*
X136457822Y-33500027D01*
X136457822Y-33500027D02*
X136421183Y-33493841D01*
X136421183Y-33493841D02*
X136384338Y-33489423D01*
X136384338Y-33489423D02*
X136347356Y-33486772D01*
X136347356Y-33486772D02*
X136310305Y-33485888D01*
X136310305Y-33485888D02*
X136273254Y-33486772D01*
X136273254Y-33486772D02*
X136236272Y-33489423D01*
X136236272Y-33489423D02*
X136199427Y-33493841D01*
X136199427Y-33493841D02*
X136162788Y-33500027D01*
X136162788Y-33500027D02*
X136126424Y-33507980D01*
X136126424Y-33507980D02*
X136090402Y-33517701D01*
X136090402Y-33517701D02*
X136054793Y-33529188D01*
X136054793Y-33529188D02*
X136019664Y-33542444D01*
X136019664Y-33542444D02*
X135985084Y-33557466D01*
X135985084Y-33557466D02*
X135951121Y-33574256D01*
X135951121Y-33574256D02*
X135917845Y-33592813D01*
X135917845Y-33592813D02*
X135885324Y-33613138D01*
X135885324Y-33613138D02*
X135853626Y-33635230D01*
X135853626Y-33635230D02*
X135822821Y-33659089D01*
X135822821Y-33659089D02*
X135792976Y-33684716D01*
X135792976Y-33684716D02*
X135764161Y-33712110D01*
X135924123Y-34258253D02*
X135924123Y-34258253D01*
X135924123Y-34258253D02*
X135924123Y-34258253D01*
X135924123Y-34258253D02*
X135924625Y-34238380D01*
X135924625Y-34238380D02*
X135926117Y-34218768D01*
X135926117Y-34218768D02*
X135928572Y-34199441D01*
X135928572Y-34199441D02*
X135931969Y-34180424D01*
X135931969Y-34180424D02*
X135936281Y-34161740D01*
X135936281Y-34161740D02*
X135941485Y-34143414D01*
X135941485Y-34143414D02*
X135947556Y-34125470D01*
X135947556Y-34125470D02*
X135954471Y-34107933D01*
X135954471Y-34107933D02*
X135962205Y-34090827D01*
X135962205Y-34090827D02*
X135970733Y-34074175D01*
X135970733Y-34074175D02*
X135980032Y-34058003D01*
X135980032Y-34058003D02*
X135990077Y-34042335D01*
X135990077Y-34042335D02*
X136000843Y-34027194D01*
X136000843Y-34027194D02*
X136012308Y-34012605D01*
X136012308Y-34012605D02*
X136024446Y-33998593D01*
X136024446Y-33998593D02*
X136037233Y-33985181D01*
X136037233Y-33985181D02*
X136050645Y-33972394D01*
X136050645Y-33972394D02*
X136064657Y-33960256D01*
X136064657Y-33960256D02*
X136079246Y-33948791D01*
X136079246Y-33948791D02*
X136094387Y-33938024D01*
X136094387Y-33938024D02*
X136110055Y-33927979D01*
X136110055Y-33927979D02*
X136126228Y-33918681D01*
X136126228Y-33918681D02*
X136142879Y-33910152D01*
X136142879Y-33910152D02*
X136159986Y-33902419D01*
X136159986Y-33902419D02*
X136177523Y-33895504D01*
X136177523Y-33895504D02*
X136195466Y-33889433D01*
X136195466Y-33889433D02*
X136213792Y-33884229D01*
X136213792Y-33884229D02*
X136232476Y-33879916D01*
X136232476Y-33879916D02*
X136251493Y-33876520D01*
X136251493Y-33876520D02*
X136270820Y-33874064D01*
X136270820Y-33874064D02*
X136290432Y-33872573D01*
X136290432Y-33872573D02*
X136310305Y-33872071D01*
X136310305Y-33872071D02*
X136310305Y-33872071D01*
X136310305Y-33872071D02*
X136330178Y-33872573D01*
X136330178Y-33872573D02*
X136349790Y-33874064D01*
X136349790Y-33874064D02*
X136369117Y-33876520D01*
X136369117Y-33876520D02*
X136388134Y-33879916D01*
X136388134Y-33879916D02*
X136406818Y-33884229D01*
X136406818Y-33884229D02*
X136425144Y-33889433D01*
X136425144Y-33889433D02*
X136443088Y-33895504D01*
X136443088Y-33895504D02*
X136460625Y-33902419D01*
X136460625Y-33902419D02*
X136477731Y-33910152D01*
X136477731Y-33910152D02*
X136494383Y-33918681D01*
X136494383Y-33918681D02*
X136510555Y-33927979D01*
X136510555Y-33927979D02*
X136526223Y-33938024D01*
X136526223Y-33938024D02*
X136541364Y-33948791D01*
X136541364Y-33948791D02*
X136555953Y-33960256D01*
X136555953Y-33960256D02*
X136569966Y-33972394D01*
X136569966Y-33972394D02*
X136583377Y-33985181D01*
X136583377Y-33985181D02*
X136596164Y-33998593D01*
X136596164Y-33998593D02*
X136608302Y-34012605D01*
X136608302Y-34012605D02*
X136619767Y-34027194D01*
X136619767Y-34027194D02*
X136630534Y-34042335D01*
X136630534Y-34042335D02*
X136640579Y-34058003D01*
X136640579Y-34058003D02*
X136649877Y-34074175D01*
X136649877Y-34074175D02*
X136658406Y-34090827D01*
X136658406Y-34090827D02*
X136666139Y-34107933D01*
X136666139Y-34107933D02*
X136673054Y-34125470D01*
X136673054Y-34125470D02*
X136679126Y-34143414D01*
X136679126Y-34143414D02*
X136684330Y-34161740D01*
X136684330Y-34161740D02*
X136688642Y-34180424D01*
X136688642Y-34180424D02*
X136692038Y-34199441D01*
X136692038Y-34199441D02*
X136694494Y-34218768D01*
X136694494Y-34218768D02*
X136695985Y-34238380D01*
X136695985Y-34238380D02*
X136696488Y-34258253D01*
X136696488Y-34258253D02*
X136695985Y-34278126D01*
X136695985Y-34278126D02*
X136694494Y-34297738D01*
X136694494Y-34297738D02*
X136692038Y-34317065D01*
X136692038Y-34317065D02*
X136688642Y-34336082D01*
X136688642Y-34336082D02*
X136684330Y-34354766D01*
X136684330Y-34354766D02*
X136679126Y-34373092D01*
X136679126Y-34373092D02*
X136673054Y-34391035D01*
X136673054Y-34391035D02*
X136666139Y-34408573D01*
X136666139Y-34408573D02*
X136658406Y-34425679D01*
X136658406Y-34425679D02*
X136649877Y-34442331D01*
X136649877Y-34442331D02*
X136640579Y-34458503D01*
X136640579Y-34458503D02*
X136630534Y-34474171D01*
X136630534Y-34474171D02*
X136619767Y-34489312D01*
X136619767Y-34489312D02*
X136608302Y-34503901D01*
X136608302Y-34503901D02*
X136596164Y-34517913D01*
X136596164Y-34517913D02*
X136583377Y-34531325D01*
X136583377Y-34531325D02*
X136569966Y-34544112D01*
X136569966Y-34544112D02*
X136555953Y-34556250D01*
X136555953Y-34556250D02*
X136541364Y-34567715D01*
X136541364Y-34567715D02*
X136526223Y-34578482D01*
X136526223Y-34578482D02*
X136510555Y-34588527D01*
X136510555Y-34588527D02*
X136494383Y-34597825D01*
X136494383Y-34597825D02*
X136477731Y-34606354D01*
X136477731Y-34606354D02*
X136460625Y-34614088D01*
X136460625Y-34614088D02*
X136443088Y-34621002D01*
X136443088Y-34621002D02*
X136425144Y-34627074D01*
X136425144Y-34627074D02*
X136406818Y-34632278D01*
X136406818Y-34632278D02*
X136388134Y-34636590D01*
X136388134Y-34636590D02*
X136369117Y-34639986D01*
X136369117Y-34639986D02*
X136349790Y-34642442D01*
X136349790Y-34642442D02*
X136330178Y-34643933D01*
X136330178Y-34643933D02*
X136310305Y-34644436D01*
X136310305Y-34644436D02*
X136310305Y-34644436D01*
X136310305Y-34644436D02*
X136290432Y-34643933D01*
X136290432Y-34643933D02*
X136270820Y-34642442D01*
X136270820Y-34642442D02*
X136251493Y-34639986D01*
X136251493Y-34639986D02*
X136232476Y-34636590D01*
X136232476Y-34636590D02*
X136213792Y-34632278D01*
X136213792Y-34632278D02*
X136195466Y-34627074D01*
X136195466Y-34627074D02*
X136177523Y-34621002D01*
X136177523Y-34621002D02*
X136159986Y-34614088D01*
X136159986Y-34614088D02*
X136142879Y-34606354D01*
X136142879Y-34606354D02*
X136126228Y-34597825D01*
X136126228Y-34597825D02*
X136110055Y-34588527D01*
X136110055Y-34588527D02*
X136094387Y-34578482D01*
X136094387Y-34578482D02*
X136079246Y-34567715D01*
X136079246Y-34567715D02*
X136064657Y-34556250D01*
X136064657Y-34556250D02*
X136050645Y-34544112D01*
X136050645Y-34544112D02*
X136037233Y-34531325D01*
X136037233Y-34531325D02*
X136024446Y-34517913D01*
X136024446Y-34517913D02*
X136012308Y-34503901D01*
X136012308Y-34503901D02*
X136000843Y-34489312D01*
X136000843Y-34489312D02*
X135990077Y-34474171D01*
X135990077Y-34474171D02*
X135980032Y-34458503D01*
X135980032Y-34458503D02*
X135970733Y-34442331D01*
X135970733Y-34442331D02*
X135962205Y-34425679D01*
X135962205Y-34425679D02*
X135954471Y-34408573D01*
X135954471Y-34408573D02*
X135947556Y-34391035D01*
X135947556Y-34391035D02*
X135941485Y-34373092D01*
X135941485Y-34373092D02*
X135936281Y-34354766D01*
X135936281Y-34354766D02*
X135931969Y-34336082D01*
X135931969Y-34336082D02*
X135928572Y-34317065D01*
X135928572Y-34317065D02*
X135926117Y-34297738D01*
X135926117Y-34297738D02*
X135924625Y-34278126D01*
X135924625Y-34278126D02*
X135924123Y-34258253D01*
X137855106Y-35802983D02*
X134765647Y-32713523D01*
X131589775Y-32627110D02*
X134679233Y-29537650D01*
X137855035Y-31854745D02*
X137815289Y-31855750D01*
X137815289Y-31855750D02*
X137776065Y-31858733D01*
X137776065Y-31858733D02*
X137737412Y-31863645D01*
X137737412Y-31863645D02*
X137699377Y-31870437D01*
X137699377Y-31870437D02*
X137662009Y-31879061D01*
X137662009Y-31879061D02*
X137625357Y-31889469D01*
X137625357Y-31889469D02*
X137589470Y-31901612D01*
X137589470Y-31901612D02*
X137554396Y-31915442D01*
X137554396Y-31915442D02*
X137520183Y-31930909D01*
X137520183Y-31930909D02*
X137486880Y-31947966D01*
X137486880Y-31947966D02*
X137454536Y-31966564D01*
X137454536Y-31966564D02*
X137423199Y-31986654D01*
X137423199Y-31986654D02*
X137392917Y-32008187D01*
X137392917Y-32008187D02*
X137363739Y-32031117D01*
X137363739Y-32031117D02*
X137335714Y-32055392D01*
X137335714Y-32055392D02*
X137308891Y-32080967D01*
X137308891Y-32080967D02*
X137283317Y-32107790D01*
X137283317Y-32107790D02*
X137259041Y-32135815D01*
X137259041Y-32135815D02*
X137236112Y-32164993D01*
X137236112Y-32164993D02*
X137214578Y-32195275D01*
X137214578Y-32195275D02*
X137194488Y-32226612D01*
X137194488Y-32226612D02*
X137175890Y-32258956D01*
X137175890Y-32258956D02*
X137158834Y-32292259D01*
X137158834Y-32292259D02*
X137143366Y-32326472D01*
X137143366Y-32326472D02*
X137129537Y-32361546D01*
X137129537Y-32361546D02*
X137117394Y-32397433D01*
X137117394Y-32397433D02*
X137106986Y-32434085D01*
X137106986Y-32434085D02*
X137098362Y-32471452D01*
X137098362Y-32471452D02*
X137091570Y-32509487D01*
X137091570Y-32509487D02*
X137086658Y-32548141D01*
X137086658Y-32548141D02*
X137083675Y-32587365D01*
X137083675Y-32587365D02*
X137082670Y-32627110D01*
X137855035Y-31082380D02*
X137775544Y-31084390D01*
X137775544Y-31084390D02*
X137697096Y-31090355D01*
X137697096Y-31090355D02*
X137619788Y-31100178D01*
X137619788Y-31100178D02*
X137543718Y-31113763D01*
X137543718Y-31113763D02*
X137468983Y-31131012D01*
X137468983Y-31131012D02*
X137395680Y-31151828D01*
X137395680Y-31151828D02*
X137323905Y-31176114D01*
X137323905Y-31176114D02*
X137253757Y-31203772D01*
X137253757Y-31203772D02*
X137185331Y-31234707D01*
X137185331Y-31234707D02*
X137118725Y-31268820D01*
X137118725Y-31268820D02*
X137054037Y-31306016D01*
X137054037Y-31306016D02*
X136991362Y-31346196D01*
X136991362Y-31346196D02*
X136930799Y-31389263D01*
X136930799Y-31389263D02*
X136872444Y-31435121D01*
X136872444Y-31435121D02*
X136816394Y-31483673D01*
X136816394Y-31483673D02*
X136762746Y-31534821D01*
X136762746Y-31534821D02*
X136711598Y-31588469D01*
X136711598Y-31588469D02*
X136663047Y-31644518D01*
X136663047Y-31644518D02*
X136617189Y-31702874D01*
X136617189Y-31702874D02*
X136574121Y-31763437D01*
X136574121Y-31763437D02*
X136533941Y-31826112D01*
X136533941Y-31826112D02*
X136496746Y-31890800D01*
X136496746Y-31890800D02*
X136462633Y-31957406D01*
X136462633Y-31957406D02*
X136431698Y-32025832D01*
X136431698Y-32025832D02*
X136404039Y-32095980D01*
X136404039Y-32095980D02*
X136379753Y-32167755D01*
X136379753Y-32167755D02*
X136358938Y-32241058D01*
X136358938Y-32241058D02*
X136341689Y-32315793D01*
X136341689Y-32315793D02*
X136328104Y-32391863D01*
X136328104Y-32391863D02*
X136318281Y-32469171D01*
X136318281Y-32469171D02*
X136312315Y-32547619D01*
X136312315Y-32547619D02*
X136310305Y-32627110D01*
X137855035Y-30310015D02*
X137735798Y-30313030D01*
X137735798Y-30313030D02*
X137618126Y-30321978D01*
X137618126Y-30321978D02*
X137502165Y-30336713D01*
X137502165Y-30336713D02*
X137388060Y-30357090D01*
X137388060Y-30357090D02*
X137275957Y-30382963D01*
X137275957Y-30382963D02*
X137166002Y-30414187D01*
X137166002Y-30414187D02*
X137058340Y-30450616D01*
X137058340Y-30450616D02*
X136953118Y-30492104D01*
X136953118Y-30492104D02*
X136850479Y-30538506D01*
X136850479Y-30538506D02*
X136750570Y-30589676D01*
X136750570Y-30589676D02*
X136653537Y-30645469D01*
X136653537Y-30645469D02*
X136559526Y-30705739D01*
X136559526Y-30705739D02*
X136468681Y-30770340D01*
X136468681Y-30770340D02*
X136381148Y-30839127D01*
X136381148Y-30839127D02*
X136297073Y-30911955D01*
X136297073Y-30911955D02*
X136216602Y-30988677D01*
X136216602Y-30988677D02*
X136139880Y-31069148D01*
X136139880Y-31069148D02*
X136067052Y-31153223D01*
X136067052Y-31153223D02*
X135998265Y-31240756D01*
X135998265Y-31240756D02*
X135933664Y-31331601D01*
X135933664Y-31331601D02*
X135873394Y-31425612D01*
X135873394Y-31425612D02*
X135817601Y-31522645D01*
X135817601Y-31522645D02*
X135766431Y-31622554D01*
X135766431Y-31622554D02*
X135720029Y-31725193D01*
X135720029Y-31725193D02*
X135678541Y-31830416D01*
X135678541Y-31830416D02*
X135642112Y-31938077D01*
X135642112Y-31938077D02*
X135610888Y-32048032D01*
X135610888Y-32048032D02*
X135585015Y-32160135D01*
X135585015Y-32160135D02*
X135564638Y-32274240D01*
X135564638Y-32274240D02*
X135549903Y-32390201D01*
X135549903Y-32390201D02*
X135540955Y-32507873D01*
X135540955Y-32507873D02*
X135537940Y-32627110D01*
D14*
%TO.C,BT1*%
X41970000Y-36890000D02*
X39310000Y-36890000D01*
X41970000Y-33020000D02*
X41970000Y-31690000D01*
X41970000Y-31690000D02*
X40640000Y-31690000D01*
X41970000Y-34290000D02*
X39310000Y-34290000D01*
X41970000Y-34290000D02*
X41970000Y-36890000D01*
X39310000Y-34290000D02*
X39310000Y-36890000D01*
%TD*%
M02*
