%TF.GenerationSoftware,KiCad,Pcbnew,(6.0.4)*%
%TF.CreationDate,2022-04-08T01:44:20+01:00*%
%TF.ProjectId,test,74657374-2e6b-4696-9361-645f70636258,rev?*%
%TF.SameCoordinates,Original*%
%TF.FileFunction,Copper,L1,Top*%
%TF.FilePolarity,Positive*%
%FSLAX46Y46*%
G04 Gerber Fmt 4.6, Leading zero omitted, Abs format (unit mm)*
G04 Created by KiCad (PCBNEW (6.0.4)) date 2022-04-08 01:44:20*
%MOMM*%
%LPD*%
G01*
G04 APERTURE LIST*
%TA.AperFunction,NonConductor*%
%ADD10C,0.200000*%
%TD*%
%TA.AperFunction,ComponentPad*%
%ADD11R,1.600000X1.600000*%
%TD*%
%TA.AperFunction,ComponentPad*%
%ADD12O,1.600000X1.600000*%
%TD*%
%TA.AperFunction,ComponentPad*%
%ADD13O,1.400000X1.400000*%
%TD*%
%TA.AperFunction,ComponentPad*%
%ADD14C,1.400000*%
%TD*%
%TA.AperFunction,ComponentPad*%
%ADD15R,2.240000X2.240000*%
%TD*%
%TA.AperFunction,ComponentPad*%
%ADD16O,2.240000X2.240000*%
%TD*%
%TA.AperFunction,ComponentPad*%
%ADD17R,1.700000X1.700000*%
%TD*%
%TA.AperFunction,ComponentPad*%
%ADD18O,1.700000X1.700000*%
%TD*%
%TA.AperFunction,ViaPad*%
%ADD19C,0.800000*%
%TD*%
%TA.AperFunction,Conductor*%
%ADD20C,0.250000*%
%TD*%
%TA.AperFunction,Conductor*%
%ADD21C,0.200000*%
%TD*%
%TA.AperFunction,Conductor*%
%ADD22C,0.500000*%
%TD*%
G04 APERTURE END LIST*
D10*
X139700000Y-32766000D02*
X139700000Y-32766000D01*
X139700000Y-32766000D02*
X139700000Y-32766000D01*
X139700000Y-32766000D02*
X139700000Y-32766000D01*
X139700000Y-32766000D02*
X139700000Y-32766000D01*
D11*
%TO.P,U6,1,~{Mr}*%
%TO.N,unconnected-(U6-Pad1)*%
X99314000Y-51054000D03*
D12*
%TO.P,U6,2,Q0*%
%TO.N,/4bit register/Q0_1*%
X99314000Y-53594000D03*
%TO.P,U6,3,~{Q0}*%
%TO.N,unconnected-(U6-Pad3)*%
X99314000Y-56134000D03*
%TO.P,U6,4,D0*%
%TO.N,/4bit register/D0_1*%
X99314000Y-58674000D03*
%TO.P,U6,5,D1*%
%TO.N,/4bit register/D1_1*%
X99314000Y-61214000D03*
%TO.P,U6,6,~{Q1}*%
%TO.N,unconnected-(U6-Pad6)*%
X99314000Y-63754000D03*
%TO.P,U6,7,Q1*%
%TO.N,/4bit register/Q1_1*%
X99314000Y-66294000D03*
%TO.P,U6,8,GND*%
%TO.N,/4bit register/GND*%
X99314000Y-68834000D03*
%TO.P,U6,9,Cp*%
%TO.N,/4bit register/CLK*%
X106934000Y-68834000D03*
%TO.P,U6,10,Q2*%
%TO.N,/4bit register/Q2_1*%
X106934000Y-66294000D03*
%TO.P,U6,11,~{Q2}*%
%TO.N,unconnected-(U6-Pad11)*%
X106934000Y-63754000D03*
%TO.P,U6,12,D2*%
%TO.N,/4bit register/D2_1*%
X106934000Y-61214000D03*
%TO.P,U6,13,D3*%
%TO.N,/4bit register/D3_1*%
X106934000Y-58674000D03*
%TO.P,U6,14,~{Q3}*%
%TO.N,unconnected-(U6-Pad14)*%
X106934000Y-56134000D03*
%TO.P,U6,15,Q3*%
%TO.N,/4bit register/Q3_1*%
X106934000Y-53594000D03*
%TO.P,U6,16,VCC*%
%TO.N,/4bit register/VCC*%
X106934000Y-51054000D03*
%TD*%
D11*
%TO.P,SW1,1*%
%TO.N,/4bit register/VCC*%
X67320000Y-31792500D03*
D12*
%TO.P,SW1,2*%
X64780000Y-31792500D03*
%TO.P,SW1,3*%
X62240000Y-31792500D03*
%TO.P,SW1,4*%
X59700000Y-31792500D03*
%TO.P,SW1,5*%
X57160000Y-31792500D03*
%TO.P,SW1,6*%
X54620000Y-31792500D03*
%TO.P,SW1,7*%
X52080000Y-31792500D03*
%TO.P,SW1,8*%
X49540000Y-31792500D03*
%TO.P,SW1,9*%
%TO.N,/4bit register/D3_1*%
X49540000Y-39412500D03*
%TO.P,SW1,10*%
%TO.N,/4bit register/D2_1*%
X52080000Y-39412500D03*
%TO.P,SW1,11*%
%TO.N,/4bit register/D1_1*%
X54620000Y-39412500D03*
%TO.P,SW1,12*%
%TO.N,/4bit register/D0_1*%
X57160000Y-39412500D03*
%TO.P,SW1,13*%
%TO.N,/4bit register/D3_0*%
X59700000Y-39412500D03*
%TO.P,SW1,14*%
%TO.N,/4bit register/D2_0*%
X62240000Y-39412500D03*
%TO.P,SW1,15*%
%TO.N,/4bit register/D1_0*%
X64780000Y-39412500D03*
%TO.P,SW1,16*%
%TO.N,/4bit register/D0_0*%
X67320000Y-39412500D03*
%TD*%
D13*
%TO.P,R21,2*%
%TO.N,Net-(D13-Pad2)*%
X57785000Y-59690000D03*
D14*
%TO.P,R21,1*%
%TO.N,/4bit register/D0_0*%
X57785000Y-54610000D03*
%TD*%
D13*
%TO.P,R20,2*%
%TO.N,Net-(D12-Pad2)*%
X55245000Y-59690000D03*
D14*
%TO.P,R20,1*%
%TO.N,/4bit register/D1_0*%
X55245000Y-54610000D03*
%TD*%
D13*
%TO.P,R19,2*%
%TO.N,Net-(D11-Pad2)*%
X52705000Y-59690000D03*
D14*
%TO.P,R19,1*%
%TO.N,/4bit register/D2_0*%
X52705000Y-54610000D03*
%TD*%
D13*
%TO.P,R18,2*%
%TO.N,Net-(D10-Pad2)*%
X50165000Y-59690000D03*
D14*
%TO.P,R18,1*%
%TO.N,/4bit register/D3_0*%
X50165000Y-54610000D03*
%TD*%
%TO.P,R17,1*%
%TO.N,/4bit register/D0_1*%
X47625000Y-54610000D03*
D13*
%TO.P,R17,2*%
%TO.N,Net-(D9-Pad2)*%
X47625000Y-59690000D03*
%TD*%
D14*
%TO.P,R16,1*%
%TO.N,/4bit register/D1_1*%
X45085000Y-54610000D03*
D13*
%TO.P,R16,2*%
%TO.N,Net-(D8-Pad2)*%
X45085000Y-59690000D03*
%TD*%
D14*
%TO.P,R15,1*%
%TO.N,/4bit register/D2_1*%
X42545000Y-54610000D03*
D13*
%TO.P,R15,2*%
%TO.N,Net-(D7-Pad2)*%
X42545000Y-59690000D03*
%TD*%
D14*
%TO.P,R14,1*%
%TO.N,/4bit register/D3_1*%
X40005000Y-54610000D03*
D13*
%TO.P,R14,2*%
%TO.N,Net-(D6-Pad2)*%
X40005000Y-59690000D03*
%TD*%
D15*
%TO.P,D13,1,K*%
%TO.N,/4bit register/GND*%
X72390000Y-67650000D03*
D16*
%TO.P,D13,2,A*%
%TO.N,Net-(D13-Pad2)*%
X72390000Y-65110000D03*
%TD*%
%TO.P,D12,2,A*%
%TO.N,Net-(D12-Pad2)*%
X67945000Y-65110000D03*
D15*
%TO.P,D12,1,K*%
%TO.N,/4bit register/GND*%
X67945000Y-67650000D03*
%TD*%
D16*
%TO.P,D11,2,A*%
%TO.N,Net-(D11-Pad2)*%
X63500000Y-65110000D03*
D15*
%TO.P,D11,1,K*%
%TO.N,/4bit register/GND*%
X63500000Y-67650000D03*
%TD*%
%TO.P,D10,1,K*%
%TO.N,/4bit register/GND*%
X59055000Y-67650000D03*
D16*
%TO.P,D10,2,A*%
%TO.N,Net-(D10-Pad2)*%
X59055000Y-65110000D03*
%TD*%
D15*
%TO.P,D9,1,K*%
%TO.N,/4bit register/GND*%
X54610000Y-67650000D03*
D16*
%TO.P,D9,2,A*%
%TO.N,Net-(D9-Pad2)*%
X54610000Y-65110000D03*
%TD*%
%TO.P,D8,2,A*%
%TO.N,Net-(D8-Pad2)*%
X50165000Y-65110000D03*
D15*
%TO.P,D8,1,K*%
%TO.N,/4bit register/GND*%
X50165000Y-67650000D03*
%TD*%
%TO.P,D7,1,K*%
%TO.N,/4bit register/GND*%
X45720000Y-67650000D03*
D16*
%TO.P,D7,2,A*%
%TO.N,Net-(D7-Pad2)*%
X45720000Y-65110000D03*
%TD*%
D15*
%TO.P,D6,1,K*%
%TO.N,/4bit register/GND*%
X41275000Y-67650000D03*
D16*
%TO.P,D6,2,A*%
%TO.N,Net-(D6-Pad2)*%
X41275000Y-65110000D03*
%TD*%
D15*
%TO.P,D5,1,K*%
%TO.N,/4bit register/GND*%
X113792000Y-66294000D03*
D16*
%TO.P,D5,2,A*%
%TO.N,Net-(D5-Pad2)*%
X113792000Y-63754000D03*
%TD*%
D14*
%TO.P,R8,1*%
%TO.N,/4bit register/GND*%
X52705000Y-46990000D03*
D13*
%TO.P,R8,2*%
%TO.N,/4bit register/D2_0*%
X52705000Y-52070000D03*
%TD*%
D14*
%TO.P,R12,1*%
%TO.N,/4bit register/GND*%
X42545000Y-46990000D03*
D13*
%TO.P,R12,2*%
%TO.N,/4bit register/D2_1*%
X42545000Y-52070000D03*
%TD*%
%TO.P,R2,2*%
%TO.N,Net-(D2-Pad2)*%
X122174000Y-59944000D03*
D14*
%TO.P,R2,1*%
%TO.N,Net-(R2-Pad1)*%
X122174000Y-54864000D03*
%TD*%
%TO.P,R6,1*%
%TO.N,/4bit register/GND*%
X57785000Y-46990000D03*
D13*
%TO.P,R6,2*%
%TO.N,/4bit register/D0_0*%
X57785000Y-52070000D03*
%TD*%
D12*
%TO.P,U2,14,VCC*%
%TO.N,/4bit register/VCC*%
X90170000Y-53340000D03*
%TO.P,U2,13*%
%TO.N,Net-(U2-Pad13)*%
X90170000Y-55880000D03*
%TO.P,U2,12*%
%TO.N,Net-(U2-Pad12)*%
X90170000Y-58420000D03*
%TO.P,U2,11*%
%TO.N,/4bit register/CLK*%
X90170000Y-60960000D03*
%TO.P,U2,10*%
%TO.N,Net-(U2-Pad10)*%
X90170000Y-63500000D03*
%TO.P,U2,9*%
%TO.N,Net-(U1-Pad8)*%
X90170000Y-66040000D03*
%TO.P,U2,8*%
%TO.N,Net-(U2-Pad13)*%
X90170000Y-68580000D03*
%TO.P,U2,7,GND*%
%TO.N,/4bit register/GND*%
X82550000Y-68580000D03*
%TO.P,U2,6*%
%TO.N,Net-(U2-Pad10)*%
X82550000Y-66040000D03*
%TO.P,U2,5*%
%TO.N,/4bit register/D3_1*%
X82550000Y-63500000D03*
%TO.P,U2,4*%
%TO.N,Net-(U2-Pad3)*%
X82550000Y-60960000D03*
%TO.P,U2,3*%
X82550000Y-58420000D03*
%TO.P,U2,2*%
%TO.N,/4bit register/D2_1*%
X82550000Y-55880000D03*
D11*
%TO.P,U2,1*%
%TO.N,Net-(U1-Pad11)*%
X82550000Y-53340000D03*
%TD*%
D14*
%TO.P,R3,1*%
%TO.N,Net-(R3-Pad1)*%
X124460000Y-54864000D03*
D13*
%TO.P,R3,2*%
%TO.N,Net-(D3-Pad2)*%
X124460000Y-59944000D03*
%TD*%
D12*
%TO.P,U4,16,B4*%
%TO.N,/4bit register/Q3_0*%
X121412000Y-29210000D03*
%TO.P,U4,15,S4*%
%TO.N,Net-(R4-Pad1)*%
X121412000Y-31750000D03*
%TO.P,U4,14,C4*%
%TO.N,Net-(R5-Pad1)*%
X121412000Y-34290000D03*
%TO.P,U4,13,C0*%
%TO.N,unconnected-(U4-Pad13)*%
X121412000Y-36830000D03*
%TO.P,U4,12,GND*%
%TO.N,/4bit register/GND*%
X121412000Y-39370000D03*
%TO.P,U4,11,B1*%
%TO.N,/4bit register/Q0_0*%
X121412000Y-41910000D03*
%TO.P,U4,10,A1*%
%TO.N,/4bit register/Q0_1*%
X121412000Y-44450000D03*
%TO.P,U4,9,S1*%
%TO.N,Net-(R1-Pad1)*%
X121412000Y-46990000D03*
%TO.P,U4,8,A2*%
%TO.N,/4bit register/Q1_1*%
X113792000Y-46990000D03*
%TO.P,U4,7,B2*%
%TO.N,/4bit register/Q1_0*%
X113792000Y-44450000D03*
%TO.P,U4,6,S2*%
%TO.N,Net-(R2-Pad1)*%
X113792000Y-41910000D03*
%TO.P,U4,5,VCC*%
%TO.N,/4bit register/VCC*%
X113792000Y-39370000D03*
%TO.P,U4,4,B3*%
%TO.N,/4bit register/Q2_0*%
X113792000Y-36830000D03*
%TO.P,U4,3,A3*%
%TO.N,/4bit register/Q2_1*%
X113792000Y-34290000D03*
%TO.P,U4,2,S3*%
%TO.N,Net-(R3-Pad1)*%
X113792000Y-31750000D03*
D11*
%TO.P,U4,1,A4*%
%TO.N,/4bit register/Q3_1*%
X113792000Y-29210000D03*
%TD*%
D14*
%TO.P,R1,1*%
%TO.N,Net-(R1-Pad1)*%
X119888000Y-54864000D03*
D13*
%TO.P,R1,2*%
%TO.N,Net-(D1-Pad2)*%
X119888000Y-59944000D03*
%TD*%
D14*
%TO.P,R4,1*%
%TO.N,Net-(R4-Pad1)*%
X126746000Y-54864000D03*
D13*
%TO.P,R4,2*%
%TO.N,Net-(D4-Pad2)*%
X126746000Y-59944000D03*
%TD*%
D15*
%TO.P,D1,1,K*%
%TO.N,/4bit register/GND*%
X120904000Y-66548000D03*
D16*
%TO.P,D1,2,A*%
%TO.N,Net-(D1-Pad2)*%
X120904000Y-64008000D03*
%TD*%
D17*
%TO.P,BT1,1,+*%
%TO.N,/4bit register/VCC*%
X40640000Y-33020000D03*
D18*
%TO.P,BT1,2,-*%
%TO.N,/4bit register/GND*%
X40640000Y-35560000D03*
%TD*%
D14*
%TO.P,R11,1*%
%TO.N,/4bit register/GND*%
X45085000Y-46990000D03*
D13*
%TO.P,R11,2*%
%TO.N,/4bit register/D1_1*%
X45085000Y-52070000D03*
%TD*%
D14*
%TO.P,R13,1*%
%TO.N,/4bit register/GND*%
X40005000Y-46990000D03*
D13*
%TO.P,R13,2*%
%TO.N,/4bit register/D3_1*%
X40005000Y-52070000D03*
%TD*%
D11*
%TO.P,U5,1,~{Mr}*%
%TO.N,unconnected-(U5-Pad1)*%
X99324000Y-29200000D03*
D12*
%TO.P,U5,2,Q0*%
%TO.N,/4bit register/Q0_0*%
X99324000Y-31740000D03*
%TO.P,U5,3,~{Q0}*%
%TO.N,unconnected-(U5-Pad3)*%
X99324000Y-34280000D03*
%TO.P,U5,4,D0*%
%TO.N,/4bit register/D0_0*%
X99324000Y-36820000D03*
%TO.P,U5,5,D1*%
%TO.N,/4bit register/D1_0*%
X99324000Y-39360000D03*
%TO.P,U5,6,~{Q1}*%
%TO.N,unconnected-(U5-Pad6)*%
X99324000Y-41900000D03*
%TO.P,U5,7,Q1*%
%TO.N,/4bit register/Q1_0*%
X99324000Y-44440000D03*
%TO.P,U5,8,GND*%
%TO.N,/4bit register/GND*%
X99324000Y-46980000D03*
%TO.P,U5,9,Cp*%
%TO.N,/4bit register/CLK*%
X106944000Y-46980000D03*
%TO.P,U5,10,Q2*%
%TO.N,/4bit register/Q2_0*%
X106944000Y-44440000D03*
%TO.P,U5,11,~{Q2}*%
%TO.N,unconnected-(U5-Pad11)*%
X106944000Y-41900000D03*
%TO.P,U5,12,D2*%
%TO.N,/4bit register/D2_0*%
X106944000Y-39360000D03*
%TO.P,U5,13,D3*%
%TO.N,/4bit register/D3_0*%
X106944000Y-36820000D03*
%TO.P,U5,14,~{Q3}*%
%TO.N,unconnected-(U5-Pad14)*%
X106944000Y-34280000D03*
%TO.P,U5,15,Q3*%
%TO.N,/4bit register/Q3_0*%
X106944000Y-31740000D03*
%TO.P,U5,16,VCC*%
%TO.N,/4bit register/VCC*%
X106944000Y-29200000D03*
%TD*%
D14*
%TO.P,R5,1*%
%TO.N,Net-(R5-Pad1)*%
X112776000Y-54864000D03*
D13*
%TO.P,R5,2*%
%TO.N,Net-(D5-Pad2)*%
X112776000Y-59944000D03*
%TD*%
D16*
%TO.P,D3,2,A*%
%TO.N,Net-(D3-Pad2)*%
X131064000Y-64008000D03*
D15*
%TO.P,D3,1,K*%
%TO.N,/4bit register/GND*%
X131064000Y-66548000D03*
%TD*%
D12*
%TO.P,U1,14,VCC*%
%TO.N,/4bit register/VCC*%
X90180000Y-31745000D03*
%TO.P,U1,13*%
%TO.N,/4bit register/D1_1*%
X90180000Y-34285000D03*
%TO.P,U1,12*%
%TO.N,/4bit register/D0_1*%
X90180000Y-36825000D03*
%TO.P,U1,11*%
%TO.N,Net-(U1-Pad11)*%
X90180000Y-39365000D03*
%TO.P,U1,10*%
%TO.N,/4bit register/D3_0*%
X90180000Y-41905000D03*
%TO.P,U1,9*%
%TO.N,Net-(U1-Pad6)*%
X90180000Y-44445000D03*
%TO.P,U1,8*%
%TO.N,Net-(U1-Pad8)*%
X90180000Y-46985000D03*
%TO.P,U1,7,GND*%
%TO.N,/4bit register/GND*%
X82560000Y-46985000D03*
%TO.P,U1,6*%
%TO.N,Net-(U1-Pad6)*%
X82560000Y-44445000D03*
%TO.P,U1,5*%
%TO.N,/4bit register/D2_0*%
X82560000Y-41905000D03*
%TO.P,U1,4*%
%TO.N,Net-(U1-Pad3)*%
X82560000Y-39365000D03*
%TO.P,U1,3*%
X82560000Y-36825000D03*
%TO.P,U1,2*%
%TO.N,/4bit register/D1_0*%
X82560000Y-34285000D03*
D11*
%TO.P,U1,1*%
%TO.N,/4bit register/D0_0*%
X82560000Y-31745000D03*
%TD*%
D14*
%TO.P,R10,1*%
%TO.N,/4bit register/GND*%
X47625000Y-46990000D03*
D13*
%TO.P,R10,2*%
%TO.N,/4bit register/D0_1*%
X47625000Y-52070000D03*
%TD*%
D15*
%TO.P,D4,1,K*%
%TO.N,/4bit register/GND*%
X136144000Y-66548000D03*
D16*
%TO.P,D4,2,A*%
%TO.N,Net-(D4-Pad2)*%
X136144000Y-64008000D03*
%TD*%
D14*
%TO.P,R9,1*%
%TO.N,/4bit register/GND*%
X50165000Y-46990000D03*
D13*
%TO.P,R9,2*%
%TO.N,/4bit register/D3_0*%
X50165000Y-52070000D03*
%TD*%
D14*
%TO.P,R7,1*%
%TO.N,/4bit register/GND*%
X55245000Y-46990000D03*
D13*
%TO.P,R7,2*%
%TO.N,/4bit register/D1_0*%
X55245000Y-52070000D03*
%TD*%
D12*
%TO.P,U3,14,VCC*%
%TO.N,/4bit register/VCC*%
X66665000Y-59695000D03*
%TO.P,U3,13*%
%TO.N,unconnected-(U3-Pad13)*%
X66665000Y-57155000D03*
%TO.P,U3,12*%
%TO.N,unconnected-(U3-Pad12)*%
X66665000Y-54615000D03*
%TO.P,U3,11*%
%TO.N,unconnected-(U3-Pad11)*%
X66665000Y-52075000D03*
%TO.P,U3,10*%
%TO.N,unconnected-(U3-Pad10)*%
X66665000Y-49535000D03*
%TO.P,U3,9*%
%TO.N,unconnected-(U3-Pad9)*%
X66665000Y-46995000D03*
%TO.P,U3,8*%
%TO.N,unconnected-(U3-Pad8)*%
X66665000Y-44455000D03*
%TO.P,U3,7,GND*%
%TO.N,/4bit register/GND*%
X74285000Y-44455000D03*
%TO.P,U3,6*%
%TO.N,unconnected-(U3-Pad6)*%
X74285000Y-46995000D03*
%TO.P,U3,5*%
%TO.N,unconnected-(U3-Pad5)*%
X74285000Y-49535000D03*
%TO.P,U3,4*%
%TO.N,Net-(U2-Pad12)*%
X74285000Y-52075000D03*
%TO.P,U3,3*%
%TO.N,Net-(U3-Pad2)*%
X74285000Y-54615000D03*
%TO.P,U3,2*%
X74285000Y-57155000D03*
D11*
%TO.P,U3,1*%
%TO.N,Net-(U2-Pad13)*%
X74285000Y-59695000D03*
%TD*%
D15*
%TO.P,D2,1,K*%
%TO.N,/4bit register/GND*%
X125984000Y-66548000D03*
D16*
%TO.P,D2,2,A*%
%TO.N,Net-(D2-Pad2)*%
X125984000Y-64008000D03*
%TD*%
D19*
%TO.N,Net-(R2-Pad1)*%
X117602000Y-47244000D03*
%TO.N,/4bit register/VCC*%
X102616000Y-41910000D03*
%TO.N,/4bit register/Q3_1*%
X110744000Y-51054000D03*
%TO.N,/4bit register/Q2_0*%
X115316000Y-45720000D03*
%TO.N,/4bit register/VCC*%
X93726000Y-53340000D03*
%TO.N,/4bit register/GND*%
X100076000Y-71374000D03*
%TO.N,/4bit register/D0_1*%
X92964000Y-37592000D03*
%TO.N,/4bit register/D1_1*%
X91948000Y-59944000D03*
%TO.N,Net-(U2-Pad13)*%
X79502000Y-55118000D03*
X79502000Y-57912000D03*
%TO.N,Net-(U1-Pad11)*%
X80264000Y-45720000D03*
%TO.N,Net-(U2-Pad12)*%
X76820802Y-57150000D03*
X76814104Y-55002035D03*
%TO.N,Net-(U2-Pad13)*%
X74930000Y-64770000D03*
%TD*%
D20*
%TO.N,/4bit register/GND*%
X50165000Y-46990000D02*
X47625000Y-46990000D01*
X38354000Y-66802000D02*
X38354000Y-70104000D01*
X38354000Y-70104000D02*
X39624000Y-71374000D01*
X39624000Y-71374000D02*
X98552000Y-71374000D01*
%TO.N,/4bit register/D0_0*%
X57785000Y-52070000D02*
X57785000Y-54610000D01*
%TO.N,/4bit register/D1_0*%
X55245000Y-52070000D02*
X55245000Y-54610000D01*
%TO.N,/4bit register/D2_0*%
X52705000Y-52070000D02*
X52705000Y-54610000D01*
%TO.N,/4bit register/D3_0*%
X50165000Y-52070000D02*
X50165000Y-54610000D01*
%TO.N,/4bit register/D0_1*%
X47625000Y-52070000D02*
X47625000Y-54610000D01*
%TO.N,/4bit register/D1_1*%
X45085000Y-52070000D02*
X45085000Y-54610000D01*
%TO.N,/4bit register/D2_1*%
X42545000Y-52070000D02*
X42545000Y-54610000D01*
%TO.N,/4bit register/D3_1*%
X40005000Y-52070000D02*
X40005000Y-54610000D01*
%TO.N,Net-(R3-Pad1)*%
X113792000Y-31750000D02*
X118364000Y-31750000D01*
X128016000Y-56388000D02*
X125984000Y-56388000D01*
X118364000Y-31750000D02*
X119488511Y-30625489D01*
X121877789Y-30625489D02*
X123698000Y-32445700D01*
X119488511Y-30625489D02*
X121877789Y-30625489D01*
X128016000Y-51054000D02*
X128016000Y-56388000D01*
X123698000Y-32445700D02*
X123698000Y-39878000D01*
X123698000Y-39878000D02*
X125476000Y-41656000D01*
X125476000Y-48514000D02*
X128016000Y-51054000D01*
X125476000Y-41656000D02*
X125476000Y-48514000D01*
X125984000Y-56388000D02*
X124460000Y-54864000D01*
%TO.N,Net-(R2-Pad1)*%
X113792000Y-41910000D02*
X117602000Y-45720000D01*
X117602000Y-45720000D02*
X117602000Y-46228000D01*
X117602000Y-46228000D02*
X117602000Y-47244000D01*
%TO.N,/4bit register/VCC*%
X113792000Y-39370000D02*
X109220000Y-39370000D01*
X109220000Y-39370000D02*
X107950000Y-38100000D01*
X107950000Y-38100000D02*
X106613700Y-38100000D01*
X106613700Y-38100000D02*
X102803700Y-41910000D01*
X102803700Y-41910000D02*
X102616000Y-41910000D01*
%TO.N,Net-(R4-Pad1)*%
X126746000Y-54864000D02*
X126746000Y-51054000D01*
X126746000Y-51054000D02*
X124714000Y-49022000D01*
X124714000Y-41910000D02*
X122986021Y-40182021D01*
X124714000Y-49022000D02*
X124714000Y-41910000D01*
X122986021Y-40182021D02*
X122986021Y-33324021D01*
X122986021Y-33324021D02*
X121412000Y-31750000D01*
%TO.N,/4bit register/Q0_0*%
X122536511Y-40785489D02*
X121412000Y-41910000D01*
X122536511Y-33824211D02*
X122536511Y-40785489D01*
X121877789Y-33165489D02*
X122536511Y-33824211D01*
X100604000Y-33020000D02*
X120817001Y-33020000D01*
X120962490Y-33165489D02*
X121877789Y-33165489D01*
X120817001Y-33020000D02*
X120962490Y-33165489D01*
X99324000Y-31740000D02*
X100604000Y-33020000D01*
%TO.N,/4bit register/Q3_0*%
X106944000Y-31740000D02*
X107452000Y-31740000D01*
X107452000Y-31740000D02*
X111506000Y-27686000D01*
X119888000Y-27686000D02*
X121412000Y-29210000D01*
X111506000Y-27686000D02*
X119888000Y-27686000D01*
%TO.N,/4bit register/Q3_1*%
X110744000Y-51054000D02*
X110236000Y-51054000D01*
X110236000Y-51054000D02*
X107696000Y-53594000D01*
X107696000Y-53594000D02*
X106934000Y-53594000D01*
%TO.N,/4bit register/Q2_0*%
X108224000Y-45720000D02*
X115316000Y-45720000D01*
X106944000Y-44440000D02*
X108224000Y-45720000D01*
%TO.N,/4bit register/Q0_1*%
X99314000Y-53594000D02*
X99314000Y-53340000D01*
X99314000Y-53340000D02*
X101346000Y-51308000D01*
X121412000Y-45212000D02*
X121412000Y-44450000D01*
X101346000Y-51308000D02*
X101346000Y-50546000D01*
X117094000Y-49530000D02*
X121412000Y-45212000D01*
X101346000Y-50546000D02*
X102362000Y-49530000D01*
X102362000Y-49530000D02*
X117094000Y-49530000D01*
%TO.N,/4bit register/Q1_0*%
X99324000Y-44440000D02*
X99822000Y-43942000D01*
X99822000Y-43942000D02*
X104648000Y-43942000D01*
X104648000Y-43942000D02*
X105410000Y-43180000D01*
X105410000Y-43180000D02*
X112522000Y-43180000D01*
X112522000Y-43180000D02*
X113792000Y-44450000D01*
%TO.N,/4bit register/VCC*%
X90170000Y-53340000D02*
X93726000Y-53340000D01*
%TO.N,/4bit register/GND*%
X100076000Y-71374000D02*
X98552000Y-71374000D01*
%TO.N,/4bit register/D0_1*%
X92197000Y-36825000D02*
X92964000Y-37592000D01*
X90180000Y-36825000D02*
X92197000Y-36825000D01*
%TO.N,/4bit register/D1_1*%
X93218000Y-61214000D02*
X91948000Y-59944000D01*
X99314000Y-61214000D02*
X93218000Y-61214000D01*
%TO.N,/4bit register/VCC*%
X106944000Y-28712000D02*
X106172000Y-27940000D01*
X106944000Y-29200000D02*
X106944000Y-28712000D01*
X106172000Y-27940000D02*
X91460000Y-27940000D01*
X91460000Y-27940000D02*
X90180000Y-29220000D01*
%TO.N,Net-(U2-Pad13)*%
X79502000Y-55118000D02*
X80518000Y-55118000D01*
X81026000Y-54610000D02*
X88900000Y-54610000D01*
X80518000Y-55118000D02*
X81026000Y-54610000D01*
X88900000Y-54610000D02*
X90170000Y-55880000D01*
%TO.N,/4bit register/D2_1*%
X82550000Y-55880000D02*
X88392000Y-55880000D01*
X98552000Y-57404000D02*
X104648000Y-57404000D01*
X88392000Y-55880000D02*
X89662000Y-57150000D01*
X89662000Y-57150000D02*
X98298000Y-57150000D01*
X98298000Y-57150000D02*
X98552000Y-57404000D01*
X104648000Y-57404000D02*
X105410000Y-58166000D01*
X105410000Y-58166000D02*
X105410000Y-60452000D01*
X105410000Y-60452000D02*
X106172000Y-61214000D01*
X106172000Y-61214000D02*
X106934000Y-61214000D01*
%TO.N,/4bit register/GND*%
X99324000Y-46980000D02*
X98064000Y-45720000D01*
X98064000Y-45720000D02*
X84582000Y-45720000D01*
X84582000Y-45720000D02*
X83317000Y-46985000D01*
X83317000Y-46985000D02*
X82560000Y-46985000D01*
%TO.N,Net-(U1-Pad6)*%
X82560000Y-44445000D02*
X90180000Y-44445000D01*
%TO.N,/4bit register/D3_0*%
X90180000Y-41905000D02*
X97033000Y-41905000D01*
X97033000Y-41905000D02*
X98298000Y-40640000D01*
X98298000Y-40640000D02*
X103124000Y-40640000D01*
X103124000Y-40640000D02*
X106944000Y-36820000D01*
%TO.N,/4bit register/D2_0*%
X84455000Y-40010000D02*
X87508000Y-40010000D01*
X87508000Y-40010000D02*
X88138000Y-40640000D01*
X88138000Y-40640000D02*
X88138000Y-42418000D01*
X88138000Y-42418000D02*
X88900000Y-43180000D01*
X88900000Y-43180000D02*
X103124000Y-43180000D01*
X103124000Y-43180000D02*
X106944000Y-39360000D01*
%TO.N,/4bit register/D3_1*%
X82550000Y-63500000D02*
X87630000Y-63500000D01*
X87630000Y-63500000D02*
X88900000Y-62230000D01*
X88900000Y-62230000D02*
X97790000Y-62230000D01*
X97790000Y-62230000D02*
X98044000Y-62484000D01*
X108966000Y-60706000D02*
X106934000Y-58674000D01*
X98044000Y-62484000D02*
X108204000Y-62484000D01*
X108204000Y-62484000D02*
X108966000Y-61722000D01*
X108966000Y-61722000D02*
X108966000Y-60706000D01*
%TO.N,Net-(U2-Pad13)*%
X74285000Y-59695000D02*
X77719000Y-59695000D01*
X77719000Y-59695000D02*
X79502000Y-57912000D01*
%TO.N,Net-(U1-Pad3)*%
X82560000Y-36825000D02*
X82560000Y-39365000D01*
%TO.N,/4bit register/D0_1*%
X57160000Y-34280000D02*
X57160000Y-39412500D01*
%TO.N,/4bit register/D3_1*%
X80015000Y-63500000D02*
X82550000Y-63500000D01*
%TO.N,Net-(U2-Pad13)*%
X74930000Y-64770000D02*
X74930000Y-69850000D01*
X74930000Y-69850000D02*
X75565000Y-70485000D01*
X89535000Y-70485000D02*
X90170000Y-69850000D01*
X75565000Y-70485000D02*
X89535000Y-70485000D01*
X90170000Y-69850000D02*
X90170000Y-68580000D01*
%TO.N,/4bit register/GND*%
X99314000Y-70612000D02*
X99314000Y-68834000D01*
X98552000Y-71374000D02*
X99314000Y-70612000D01*
%TO.N,Net-(U1-Pad11)*%
X80264000Y-45720000D02*
X80264000Y-51054000D01*
X80264000Y-51054000D02*
X82550000Y-53340000D01*
%TO.N,/4bit register/GND*%
X41275000Y-67650000D02*
X41189000Y-67564000D01*
X38354000Y-66802000D02*
X38354000Y-37084000D01*
X41189000Y-67564000D02*
X39116000Y-67564000D01*
X39116000Y-67564000D02*
X38354000Y-66802000D01*
X38354000Y-37084000D02*
X39878000Y-35560000D01*
X39878000Y-35560000D02*
X40640000Y-35560000D01*
%TO.N,/4bit register/D2_1*%
X51308000Y-40132000D02*
X51308000Y-39624000D01*
X50165000Y-41275000D02*
X51308000Y-40132000D01*
X51308000Y-39624000D02*
X51519500Y-39412500D01*
X51519500Y-39412500D02*
X52080000Y-39412500D01*
%TO.N,/4bit register/D3_1*%
X49540000Y-45095000D02*
X49540000Y-39412500D01*
%TO.N,Net-(U2-Pad12)*%
X76814104Y-55002035D02*
X75875000Y-54062931D01*
X75875000Y-54062931D02*
X75875000Y-53015000D01*
X75875000Y-53015000D02*
X74935000Y-52075000D01*
X74935000Y-52075000D02*
X74285000Y-52075000D01*
D21*
X88900000Y-57150000D02*
X76820802Y-57150000D01*
X88900000Y-57150000D02*
X90170000Y-58420000D01*
D20*
%TO.N,Net-(U2-Pad3)*%
X82550000Y-58420000D02*
X82550000Y-60960000D01*
%TO.N,Net-(U2-Pad10)*%
X82550000Y-66040000D02*
X83820000Y-64770000D01*
X83820000Y-64770000D02*
X88900000Y-64770000D01*
X88900000Y-64770000D02*
X90170000Y-63500000D01*
%TO.N,/4bit register/D2_1*%
X80020000Y-55875000D02*
X82545000Y-55875000D01*
X82545000Y-55875000D02*
X82550000Y-55880000D01*
%TO.N,/4bit register/D1_0*%
X64780000Y-39412500D02*
X64780000Y-36205000D01*
X64780000Y-36205000D02*
X64770000Y-36195000D01*
X72390000Y-34290000D02*
X72390000Y-31750000D01*
X72390000Y-31750000D02*
X73025000Y-31115000D01*
X64770000Y-36195000D02*
X65405000Y-35560000D01*
X65405000Y-35560000D02*
X71120000Y-35560000D01*
X71120000Y-35560000D02*
X72390000Y-34290000D01*
X79390000Y-31115000D02*
X82560000Y-34285000D01*
X73025000Y-31115000D02*
X79390000Y-31115000D01*
%TO.N,/4bit register/D2_0*%
X62240000Y-39412500D02*
X62230000Y-39402500D01*
X71755000Y-31115000D02*
X72390000Y-30480000D01*
X84455000Y-31115000D02*
X84455000Y-40010000D01*
X62230000Y-39402500D02*
X62230000Y-35560000D01*
X62230000Y-35560000D02*
X62865000Y-34925000D01*
X70485000Y-34925000D02*
X71755000Y-33655000D01*
X62865000Y-34925000D02*
X70485000Y-34925000D01*
X71755000Y-33655000D02*
X71755000Y-31115000D01*
X84455000Y-40010000D02*
X82560000Y-41905000D01*
X72390000Y-30480000D02*
X83820000Y-30480000D01*
X83820000Y-30480000D02*
X84455000Y-31115000D01*
%TO.N,/4bit register/D3_0*%
X59700000Y-39412500D02*
X59700000Y-34915000D01*
X69850000Y-34290000D02*
X71120000Y-33020000D01*
X59700000Y-34915000D02*
X60325000Y-34290000D01*
X60325000Y-34290000D02*
X69850000Y-34290000D01*
X71755000Y-29845000D02*
X86995000Y-29845000D01*
X87630000Y-36195000D02*
X88900000Y-37465000D01*
X71120000Y-33020000D02*
X71120000Y-30480000D01*
X71120000Y-30480000D02*
X71755000Y-29845000D01*
X86995000Y-29845000D02*
X87630000Y-30480000D01*
X87630000Y-30480000D02*
X87630000Y-36195000D01*
X88900000Y-37465000D02*
X88900000Y-41275000D01*
X89530000Y-41905000D02*
X90180000Y-41905000D01*
X88900000Y-41275000D02*
X89530000Y-41905000D01*
%TO.N,/4bit register/D0_1*%
X70485000Y-32385000D02*
X70485000Y-29845000D01*
X71120000Y-29210000D02*
X87630000Y-29210000D01*
X88265000Y-35560000D02*
X89530000Y-36825000D01*
X57160000Y-34280000D02*
X57785000Y-33655000D01*
X57785000Y-33655000D02*
X69215000Y-33655000D01*
X69215000Y-33655000D02*
X70485000Y-32385000D01*
X70485000Y-29845000D02*
X71120000Y-29210000D01*
X88265000Y-29845000D02*
X88265000Y-35560000D01*
X87630000Y-29210000D02*
X88265000Y-29845000D01*
X89530000Y-36825000D02*
X90180000Y-36825000D01*
%TO.N,/4bit register/D1_1*%
X54620000Y-39412500D02*
X54620000Y-33645000D01*
X54620000Y-33645000D02*
X55245000Y-33020000D01*
X55245000Y-33020000D02*
X68580000Y-33020000D01*
X68580000Y-33020000D02*
X69850000Y-31750000D01*
X69850000Y-31750000D02*
X69850000Y-29210000D01*
X69850000Y-29210000D02*
X70485000Y-28575000D01*
X88900000Y-29210000D02*
X88900000Y-33655000D01*
X70485000Y-28575000D02*
X88265000Y-28575000D01*
X88265000Y-28575000D02*
X88900000Y-29210000D01*
X88900000Y-33655000D02*
X89530000Y-34285000D01*
X89530000Y-34285000D02*
X90180000Y-34285000D01*
%TO.N,/4bit register/VCC*%
X66040000Y-27940000D02*
X88900000Y-27940000D01*
X88900000Y-27940000D02*
X90180000Y-29220000D01*
X90180000Y-29220000D02*
X90180000Y-31745000D01*
%TO.N,/4bit register/D2_1*%
X59055000Y-45085000D02*
X59690000Y-45720000D01*
X50165000Y-41275000D02*
X50165000Y-44450000D01*
X59690000Y-54610000D02*
X60960000Y-55880000D01*
X50165000Y-44450000D02*
X50800000Y-45085000D01*
X50800000Y-45085000D02*
X59055000Y-45085000D01*
X59690000Y-45720000D02*
X59690000Y-54610000D01*
X80015000Y-55880000D02*
X80020000Y-55875000D01*
X60960000Y-55880000D02*
X80015000Y-55880000D01*
%TO.N,/4bit register/D3_1*%
X74295000Y-62865000D02*
X74930000Y-63500000D01*
X67310000Y-62230000D02*
X71755000Y-62230000D01*
X60960000Y-61595000D02*
X66675000Y-61595000D01*
X74930000Y-63500000D02*
X80015000Y-63500000D01*
X66675000Y-61595000D02*
X67310000Y-62230000D01*
X71755000Y-62230000D02*
X72390000Y-62865000D01*
X72390000Y-62865000D02*
X74295000Y-62865000D01*
X49540000Y-45095000D02*
X50165000Y-45720000D01*
X50165000Y-45720000D02*
X58420000Y-45720000D01*
X58420000Y-45720000D02*
X59055000Y-46355000D01*
X59055000Y-46355000D02*
X59055000Y-59690000D01*
X59055000Y-59690000D02*
X60960000Y-61595000D01*
%TO.N,/4bit register/GND*%
X40005000Y-46990000D02*
X40005000Y-36195000D01*
X40005000Y-36195000D02*
X40640000Y-35560000D01*
X42545000Y-46990000D02*
X40005000Y-46990000D01*
X45085000Y-46990000D02*
X42545000Y-46990000D01*
X47625000Y-46990000D02*
X45085000Y-46990000D01*
X52705000Y-46990000D02*
X50165000Y-46990000D01*
X55245000Y-46990000D02*
X52705000Y-46990000D01*
X57785000Y-46990000D02*
X55245000Y-46990000D01*
%TO.N,Net-(D13-Pad2)*%
X66675000Y-62865000D02*
X70485000Y-62865000D01*
X60325000Y-62230000D02*
X66040000Y-62230000D01*
X72390000Y-64770000D02*
X72390000Y-65110000D01*
X57785000Y-59690000D02*
X60325000Y-62230000D01*
X66040000Y-62230000D02*
X66675000Y-62865000D01*
X70485000Y-62865000D02*
X72390000Y-64770000D01*
%TO.N,Net-(D12-Pad2)*%
X55245000Y-59690000D02*
X55245000Y-60960000D01*
X55245000Y-60960000D02*
X55880000Y-61595000D01*
X55880000Y-61595000D02*
X58420000Y-61595000D01*
X58420000Y-61595000D02*
X59690000Y-62865000D01*
X59690000Y-62865000D02*
X65405000Y-62865000D01*
X65405000Y-62865000D02*
X67650000Y-65110000D01*
X67650000Y-65110000D02*
X67945000Y-65110000D01*
%TO.N,Net-(D11-Pad2)*%
X52705000Y-59690000D02*
X52705000Y-60960000D01*
X52705000Y-60960000D02*
X53340000Y-61595000D01*
X53340000Y-61595000D02*
X54610000Y-61595000D01*
X54610000Y-61595000D02*
X55245000Y-62230000D01*
X55245000Y-62230000D02*
X57785000Y-62230000D01*
X57785000Y-62230000D02*
X59055000Y-63500000D01*
X59055000Y-63500000D02*
X61890000Y-63500000D01*
X61890000Y-63500000D02*
X63500000Y-65110000D01*
%TO.N,Net-(D10-Pad2)*%
X50165000Y-59690000D02*
X50165000Y-60325000D01*
X59055000Y-64770000D02*
X59055000Y-65110000D01*
X50165000Y-60325000D02*
X52070000Y-62230000D01*
X54610000Y-62865000D02*
X57150000Y-62865000D01*
X52070000Y-62230000D02*
X53975000Y-62230000D01*
X53975000Y-62230000D02*
X54610000Y-62865000D01*
X57150000Y-62865000D02*
X59055000Y-64770000D01*
%TO.N,Net-(D9-Pad2)*%
X47625000Y-59690000D02*
X47625000Y-60960000D01*
X47625000Y-60960000D02*
X49530000Y-62865000D01*
X49530000Y-62865000D02*
X52705000Y-62865000D01*
X52705000Y-62865000D02*
X54610000Y-64770000D01*
X54610000Y-64770000D02*
X54610000Y-65110000D01*
%TO.N,Net-(D8-Pad2)*%
X45085000Y-59690000D02*
X45085000Y-61595000D01*
X45085000Y-61595000D02*
X46355000Y-62865000D01*
X46355000Y-62865000D02*
X48260000Y-62865000D01*
X48260000Y-62865000D02*
X50165000Y-64770000D01*
X50165000Y-64770000D02*
X50165000Y-65110000D01*
%TO.N,Net-(D7-Pad2)*%
X42545000Y-59690000D02*
X42545000Y-62230000D01*
X42545000Y-62230000D02*
X45425000Y-65110000D01*
X45425000Y-65110000D02*
X45720000Y-65110000D01*
%TO.N,Net-(D6-Pad2)*%
X40005000Y-59690000D02*
X40005000Y-63840000D01*
X40005000Y-63840000D02*
X41275000Y-65110000D01*
D22*
%TO.N,/4bit register/VCC*%
X50800000Y-27940000D02*
X48260000Y-27940000D01*
X48260000Y-27940000D02*
X45720000Y-27940000D01*
X49540000Y-31792500D02*
X49540000Y-29220000D01*
X49540000Y-29220000D02*
X48260000Y-27940000D01*
X58420000Y-27940000D02*
X50800000Y-27940000D01*
X52080000Y-31792500D02*
X52080000Y-29220000D01*
X52080000Y-29220000D02*
X50800000Y-27940000D01*
X54620000Y-31792500D02*
X54620000Y-29220000D01*
X54620000Y-29220000D02*
X53340000Y-27940000D01*
X57160000Y-31792500D02*
X57160000Y-29220000D01*
X57160000Y-29220000D02*
X55880000Y-27940000D01*
X60960000Y-27940000D02*
X58420000Y-27940000D01*
X59700000Y-31792500D02*
X59700000Y-29220000D01*
X59700000Y-29220000D02*
X58420000Y-27940000D01*
X66040000Y-27940000D02*
X60960000Y-27940000D01*
X62240000Y-29220000D02*
X60960000Y-27940000D01*
X62240000Y-31792500D02*
X62240000Y-29220000D01*
X64770000Y-29210000D02*
X63500000Y-27940000D01*
X64780000Y-31792500D02*
X64780000Y-29220000D01*
X64780000Y-29220000D02*
X64770000Y-29210000D01*
X67320000Y-29220000D02*
X66040000Y-27940000D01*
X67320000Y-31792500D02*
X67320000Y-29220000D01*
X45720000Y-27940000D02*
X40640000Y-33020000D01*
%TD*%
M02*
