%TF.GenerationSoftware,KiCad,Pcbnew,(6.0.4)*%
%TF.CreationDate,2022-04-08T01:44:20+01:00*%
%TF.ProjectId,test,74657374-2e6b-4696-9361-645f70636258,rev?*%
%TF.SameCoordinates,Original*%
%TF.FileFunction,Soldermask,Top*%
%TF.FilePolarity,Negative*%
%FSLAX46Y46*%
G04 Gerber Fmt 4.6, Leading zero omitted, Abs format (unit mm)*
G04 Created by KiCad (PCBNEW (6.0.4)) date 2022-04-08 01:44:20*
%MOMM*%
%LPD*%
G01*
G04 APERTURE LIST*
%ADD10R,1.600000X1.600000*%
%ADD11O,1.600000X1.600000*%
%ADD12O,1.400000X1.400000*%
%ADD13C,1.400000*%
%ADD14R,2.240000X2.240000*%
%ADD15O,2.240000X2.240000*%
%ADD16R,1.700000X1.700000*%
%ADD17O,1.700000X1.700000*%
G04 APERTURE END LIST*
D10*
%TO.C,U6*%
X99314000Y-51054000D03*
D11*
X99314000Y-53594000D03*
X99314000Y-56134000D03*
X99314000Y-58674000D03*
X99314000Y-61214000D03*
X99314000Y-63754000D03*
X99314000Y-66294000D03*
X99314000Y-68834000D03*
X106934000Y-68834000D03*
X106934000Y-66294000D03*
X106934000Y-63754000D03*
X106934000Y-61214000D03*
X106934000Y-58674000D03*
X106934000Y-56134000D03*
X106934000Y-53594000D03*
X106934000Y-51054000D03*
%TD*%
D10*
%TO.C,SW1*%
X67320000Y-31792500D03*
D11*
X64780000Y-31792500D03*
X62240000Y-31792500D03*
X59700000Y-31792500D03*
X57160000Y-31792500D03*
X54620000Y-31792500D03*
X52080000Y-31792500D03*
X49540000Y-31792500D03*
X49540000Y-39412500D03*
X52080000Y-39412500D03*
X54620000Y-39412500D03*
X57160000Y-39412500D03*
X59700000Y-39412500D03*
X62240000Y-39412500D03*
X64780000Y-39412500D03*
X67320000Y-39412500D03*
%TD*%
D12*
%TO.C,R21*%
X57785000Y-59690000D03*
D13*
X57785000Y-54610000D03*
%TD*%
D12*
%TO.C,R20*%
X55245000Y-59690000D03*
D13*
X55245000Y-54610000D03*
%TD*%
D12*
%TO.C,R19*%
X52705000Y-59690000D03*
D13*
X52705000Y-54610000D03*
%TD*%
D12*
%TO.C,R18*%
X50165000Y-59690000D03*
D13*
X50165000Y-54610000D03*
%TD*%
%TO.C,R17*%
X47625000Y-54610000D03*
D12*
X47625000Y-59690000D03*
%TD*%
D13*
%TO.C,R16*%
X45085000Y-54610000D03*
D12*
X45085000Y-59690000D03*
%TD*%
D13*
%TO.C,R15*%
X42545000Y-54610000D03*
D12*
X42545000Y-59690000D03*
%TD*%
D13*
%TO.C,R14*%
X40005000Y-54610000D03*
D12*
X40005000Y-59690000D03*
%TD*%
D14*
%TO.C,D13*%
X72390000Y-67650000D03*
D15*
X72390000Y-65110000D03*
%TD*%
%TO.C,D12*%
X67945000Y-65110000D03*
D14*
X67945000Y-67650000D03*
%TD*%
D15*
%TO.C,D11*%
X63500000Y-65110000D03*
D14*
X63500000Y-67650000D03*
%TD*%
%TO.C,D10*%
X59055000Y-67650000D03*
D15*
X59055000Y-65110000D03*
%TD*%
D14*
%TO.C,D9*%
X54610000Y-67650000D03*
D15*
X54610000Y-65110000D03*
%TD*%
%TO.C,D8*%
X50165000Y-65110000D03*
D14*
X50165000Y-67650000D03*
%TD*%
%TO.C,D7*%
X45720000Y-67650000D03*
D15*
X45720000Y-65110000D03*
%TD*%
D14*
%TO.C,D6*%
X41275000Y-67650000D03*
D15*
X41275000Y-65110000D03*
%TD*%
D14*
%TO.C,D5*%
X113792000Y-66294000D03*
D15*
X113792000Y-63754000D03*
%TD*%
D13*
%TO.C,R8*%
X52705000Y-46990000D03*
D12*
X52705000Y-52070000D03*
%TD*%
D13*
%TO.C,R12*%
X42545000Y-46990000D03*
D12*
X42545000Y-52070000D03*
%TD*%
%TO.C,R2*%
X122174000Y-59944000D03*
D13*
X122174000Y-54864000D03*
%TD*%
%TO.C,R6*%
X57785000Y-46990000D03*
D12*
X57785000Y-52070000D03*
%TD*%
D11*
%TO.C,U2*%
X90170000Y-53340000D03*
X90170000Y-55880000D03*
X90170000Y-58420000D03*
X90170000Y-60960000D03*
X90170000Y-63500000D03*
X90170000Y-66040000D03*
X90170000Y-68580000D03*
X82550000Y-68580000D03*
X82550000Y-66040000D03*
X82550000Y-63500000D03*
X82550000Y-60960000D03*
X82550000Y-58420000D03*
X82550000Y-55880000D03*
D10*
X82550000Y-53340000D03*
%TD*%
D13*
%TO.C,R3*%
X124460000Y-54864000D03*
D12*
X124460000Y-59944000D03*
%TD*%
D11*
%TO.C,U4*%
X121412000Y-29210000D03*
X121412000Y-31750000D03*
X121412000Y-34290000D03*
X121412000Y-36830000D03*
X121412000Y-39370000D03*
X121412000Y-41910000D03*
X121412000Y-44450000D03*
X121412000Y-46990000D03*
X113792000Y-46990000D03*
X113792000Y-44450000D03*
X113792000Y-41910000D03*
X113792000Y-39370000D03*
X113792000Y-36830000D03*
X113792000Y-34290000D03*
X113792000Y-31750000D03*
D10*
X113792000Y-29210000D03*
%TD*%
D13*
%TO.C,R1*%
X119888000Y-54864000D03*
D12*
X119888000Y-59944000D03*
%TD*%
D13*
%TO.C,R4*%
X126746000Y-54864000D03*
D12*
X126746000Y-59944000D03*
%TD*%
D14*
%TO.C,D1*%
X120904000Y-66548000D03*
D15*
X120904000Y-64008000D03*
%TD*%
D16*
%TO.C,BT1*%
X40640000Y-33020000D03*
D17*
X40640000Y-35560000D03*
%TD*%
D13*
%TO.C,R11*%
X45085000Y-46990000D03*
D12*
X45085000Y-52070000D03*
%TD*%
D13*
%TO.C,R13*%
X40005000Y-46990000D03*
D12*
X40005000Y-52070000D03*
%TD*%
D10*
%TO.C,U5*%
X99324000Y-29200000D03*
D11*
X99324000Y-31740000D03*
X99324000Y-34280000D03*
X99324000Y-36820000D03*
X99324000Y-39360000D03*
X99324000Y-41900000D03*
X99324000Y-44440000D03*
X99324000Y-46980000D03*
X106944000Y-46980000D03*
X106944000Y-44440000D03*
X106944000Y-41900000D03*
X106944000Y-39360000D03*
X106944000Y-36820000D03*
X106944000Y-34280000D03*
X106944000Y-31740000D03*
X106944000Y-29200000D03*
%TD*%
D13*
%TO.C,R5*%
X112776000Y-54864000D03*
D12*
X112776000Y-59944000D03*
%TD*%
D15*
%TO.C,D3*%
X131064000Y-64008000D03*
D14*
X131064000Y-66548000D03*
%TD*%
D11*
%TO.C,U1*%
X90180000Y-31745000D03*
X90180000Y-34285000D03*
X90180000Y-36825000D03*
X90180000Y-39365000D03*
X90180000Y-41905000D03*
X90180000Y-44445000D03*
X90180000Y-46985000D03*
X82560000Y-46985000D03*
X82560000Y-44445000D03*
X82560000Y-41905000D03*
X82560000Y-39365000D03*
X82560000Y-36825000D03*
X82560000Y-34285000D03*
D10*
X82560000Y-31745000D03*
%TD*%
D13*
%TO.C,R10*%
X47625000Y-46990000D03*
D12*
X47625000Y-52070000D03*
%TD*%
D14*
%TO.C,D4*%
X136144000Y-66548000D03*
D15*
X136144000Y-64008000D03*
%TD*%
D13*
%TO.C,R9*%
X50165000Y-46990000D03*
D12*
X50165000Y-52070000D03*
%TD*%
D13*
%TO.C,R7*%
X55245000Y-46990000D03*
D12*
X55245000Y-52070000D03*
%TD*%
D11*
%TO.C,U3*%
X66665000Y-59695000D03*
X66665000Y-57155000D03*
X66665000Y-54615000D03*
X66665000Y-52075000D03*
X66665000Y-49535000D03*
X66665000Y-46995000D03*
X66665000Y-44455000D03*
X74285000Y-44455000D03*
X74285000Y-46995000D03*
X74285000Y-49535000D03*
X74285000Y-52075000D03*
X74285000Y-54615000D03*
X74285000Y-57155000D03*
D10*
X74285000Y-59695000D03*
%TD*%
D14*
%TO.C,D2*%
X125984000Y-66548000D03*
D15*
X125984000Y-64008000D03*
%TD*%
M02*
