%TF.GenerationSoftware,KiCad,Pcbnew,(6.0.4)*%
%TF.CreationDate,2022-04-08T01:44:20+01:00*%
%TF.ProjectId,test,74657374-2e6b-4696-9361-645f70636258,rev?*%
%TF.SameCoordinates,Original*%
%TF.FileFunction,Copper,L2,Bot*%
%TF.FilePolarity,Positive*%
%FSLAX46Y46*%
G04 Gerber Fmt 4.6, Leading zero omitted, Abs format (unit mm)*
G04 Created by KiCad (PCBNEW (6.0.4)) date 2022-04-08 01:44:20*
%MOMM*%
%LPD*%
G01*
G04 APERTURE LIST*
%TA.AperFunction,ComponentPad*%
%ADD10R,1.600000X1.600000*%
%TD*%
%TA.AperFunction,ComponentPad*%
%ADD11O,1.600000X1.600000*%
%TD*%
%TA.AperFunction,ComponentPad*%
%ADD12O,1.400000X1.400000*%
%TD*%
%TA.AperFunction,ComponentPad*%
%ADD13C,1.400000*%
%TD*%
%TA.AperFunction,ComponentPad*%
%ADD14R,2.240000X2.240000*%
%TD*%
%TA.AperFunction,ComponentPad*%
%ADD15O,2.240000X2.240000*%
%TD*%
%TA.AperFunction,ComponentPad*%
%ADD16R,1.700000X1.700000*%
%TD*%
%TA.AperFunction,ComponentPad*%
%ADD17O,1.700000X1.700000*%
%TD*%
%TA.AperFunction,ViaPad*%
%ADD18C,0.800000*%
%TD*%
%TA.AperFunction,Conductor*%
%ADD19C,0.250000*%
%TD*%
G04 APERTURE END LIST*
D10*
%TO.P,U6,1,~{Mr}*%
%TO.N,unconnected-(U6-Pad1)*%
X99314000Y-51054000D03*
D11*
%TO.P,U6,2,Q0*%
%TO.N,/4bit register/Q0_1*%
X99314000Y-53594000D03*
%TO.P,U6,3,~{Q0}*%
%TO.N,unconnected-(U6-Pad3)*%
X99314000Y-56134000D03*
%TO.P,U6,4,D0*%
%TO.N,/4bit register/D0_1*%
X99314000Y-58674000D03*
%TO.P,U6,5,D1*%
%TO.N,/4bit register/D1_1*%
X99314000Y-61214000D03*
%TO.P,U6,6,~{Q1}*%
%TO.N,unconnected-(U6-Pad6)*%
X99314000Y-63754000D03*
%TO.P,U6,7,Q1*%
%TO.N,/4bit register/Q1_1*%
X99314000Y-66294000D03*
%TO.P,U6,8,GND*%
%TO.N,/4bit register/GND*%
X99314000Y-68834000D03*
%TO.P,U6,9,Cp*%
%TO.N,/4bit register/CLK*%
X106934000Y-68834000D03*
%TO.P,U6,10,Q2*%
%TO.N,/4bit register/Q2_1*%
X106934000Y-66294000D03*
%TO.P,U6,11,~{Q2}*%
%TO.N,unconnected-(U6-Pad11)*%
X106934000Y-63754000D03*
%TO.P,U6,12,D2*%
%TO.N,/4bit register/D2_1*%
X106934000Y-61214000D03*
%TO.P,U6,13,D3*%
%TO.N,/4bit register/D3_1*%
X106934000Y-58674000D03*
%TO.P,U6,14,~{Q3}*%
%TO.N,unconnected-(U6-Pad14)*%
X106934000Y-56134000D03*
%TO.P,U6,15,Q3*%
%TO.N,/4bit register/Q3_1*%
X106934000Y-53594000D03*
%TO.P,U6,16,VCC*%
%TO.N,/4bit register/VCC*%
X106934000Y-51054000D03*
%TD*%
D10*
%TO.P,SW1,1*%
%TO.N,/4bit register/VCC*%
X67320000Y-31792500D03*
D11*
%TO.P,SW1,2*%
X64780000Y-31792500D03*
%TO.P,SW1,3*%
X62240000Y-31792500D03*
%TO.P,SW1,4*%
X59700000Y-31792500D03*
%TO.P,SW1,5*%
X57160000Y-31792500D03*
%TO.P,SW1,6*%
X54620000Y-31792500D03*
%TO.P,SW1,7*%
X52080000Y-31792500D03*
%TO.P,SW1,8*%
X49540000Y-31792500D03*
%TO.P,SW1,9*%
%TO.N,/4bit register/D3_1*%
X49540000Y-39412500D03*
%TO.P,SW1,10*%
%TO.N,/4bit register/D2_1*%
X52080000Y-39412500D03*
%TO.P,SW1,11*%
%TO.N,/4bit register/D1_1*%
X54620000Y-39412500D03*
%TO.P,SW1,12*%
%TO.N,/4bit register/D0_1*%
X57160000Y-39412500D03*
%TO.P,SW1,13*%
%TO.N,/4bit register/D3_0*%
X59700000Y-39412500D03*
%TO.P,SW1,14*%
%TO.N,/4bit register/D2_0*%
X62240000Y-39412500D03*
%TO.P,SW1,15*%
%TO.N,/4bit register/D1_0*%
X64780000Y-39412500D03*
%TO.P,SW1,16*%
%TO.N,/4bit register/D0_0*%
X67320000Y-39412500D03*
%TD*%
D12*
%TO.P,R21,2*%
%TO.N,Net-(D13-Pad2)*%
X57785000Y-59690000D03*
D13*
%TO.P,R21,1*%
%TO.N,/4bit register/D0_0*%
X57785000Y-54610000D03*
%TD*%
D12*
%TO.P,R20,2*%
%TO.N,Net-(D12-Pad2)*%
X55245000Y-59690000D03*
D13*
%TO.P,R20,1*%
%TO.N,/4bit register/D1_0*%
X55245000Y-54610000D03*
%TD*%
D12*
%TO.P,R19,2*%
%TO.N,Net-(D11-Pad2)*%
X52705000Y-59690000D03*
D13*
%TO.P,R19,1*%
%TO.N,/4bit register/D2_0*%
X52705000Y-54610000D03*
%TD*%
D12*
%TO.P,R18,2*%
%TO.N,Net-(D10-Pad2)*%
X50165000Y-59690000D03*
D13*
%TO.P,R18,1*%
%TO.N,/4bit register/D3_0*%
X50165000Y-54610000D03*
%TD*%
%TO.P,R17,1*%
%TO.N,/4bit register/D0_1*%
X47625000Y-54610000D03*
D12*
%TO.P,R17,2*%
%TO.N,Net-(D9-Pad2)*%
X47625000Y-59690000D03*
%TD*%
D13*
%TO.P,R16,1*%
%TO.N,/4bit register/D1_1*%
X45085000Y-54610000D03*
D12*
%TO.P,R16,2*%
%TO.N,Net-(D8-Pad2)*%
X45085000Y-59690000D03*
%TD*%
D13*
%TO.P,R15,1*%
%TO.N,/4bit register/D2_1*%
X42545000Y-54610000D03*
D12*
%TO.P,R15,2*%
%TO.N,Net-(D7-Pad2)*%
X42545000Y-59690000D03*
%TD*%
D13*
%TO.P,R14,1*%
%TO.N,/4bit register/D3_1*%
X40005000Y-54610000D03*
D12*
%TO.P,R14,2*%
%TO.N,Net-(D6-Pad2)*%
X40005000Y-59690000D03*
%TD*%
D14*
%TO.P,D13,1,K*%
%TO.N,/4bit register/GND*%
X72390000Y-67650000D03*
D15*
%TO.P,D13,2,A*%
%TO.N,Net-(D13-Pad2)*%
X72390000Y-65110000D03*
%TD*%
%TO.P,D12,2,A*%
%TO.N,Net-(D12-Pad2)*%
X67945000Y-65110000D03*
D14*
%TO.P,D12,1,K*%
%TO.N,/4bit register/GND*%
X67945000Y-67650000D03*
%TD*%
D15*
%TO.P,D11,2,A*%
%TO.N,Net-(D11-Pad2)*%
X63500000Y-65110000D03*
D14*
%TO.P,D11,1,K*%
%TO.N,/4bit register/GND*%
X63500000Y-67650000D03*
%TD*%
%TO.P,D10,1,K*%
%TO.N,/4bit register/GND*%
X59055000Y-67650000D03*
D15*
%TO.P,D10,2,A*%
%TO.N,Net-(D10-Pad2)*%
X59055000Y-65110000D03*
%TD*%
D14*
%TO.P,D9,1,K*%
%TO.N,/4bit register/GND*%
X54610000Y-67650000D03*
D15*
%TO.P,D9,2,A*%
%TO.N,Net-(D9-Pad2)*%
X54610000Y-65110000D03*
%TD*%
%TO.P,D8,2,A*%
%TO.N,Net-(D8-Pad2)*%
X50165000Y-65110000D03*
D14*
%TO.P,D8,1,K*%
%TO.N,/4bit register/GND*%
X50165000Y-67650000D03*
%TD*%
%TO.P,D7,1,K*%
%TO.N,/4bit register/GND*%
X45720000Y-67650000D03*
D15*
%TO.P,D7,2,A*%
%TO.N,Net-(D7-Pad2)*%
X45720000Y-65110000D03*
%TD*%
D14*
%TO.P,D6,1,K*%
%TO.N,/4bit register/GND*%
X41275000Y-67650000D03*
D15*
%TO.P,D6,2,A*%
%TO.N,Net-(D6-Pad2)*%
X41275000Y-65110000D03*
%TD*%
D14*
%TO.P,D5,1,K*%
%TO.N,/4bit register/GND*%
X113792000Y-66294000D03*
D15*
%TO.P,D5,2,A*%
%TO.N,Net-(D5-Pad2)*%
X113792000Y-63754000D03*
%TD*%
D13*
%TO.P,R8,1*%
%TO.N,/4bit register/GND*%
X52705000Y-46990000D03*
D12*
%TO.P,R8,2*%
%TO.N,/4bit register/D2_0*%
X52705000Y-52070000D03*
%TD*%
D13*
%TO.P,R12,1*%
%TO.N,/4bit register/GND*%
X42545000Y-46990000D03*
D12*
%TO.P,R12,2*%
%TO.N,/4bit register/D2_1*%
X42545000Y-52070000D03*
%TD*%
%TO.P,R2,2*%
%TO.N,Net-(D2-Pad2)*%
X122174000Y-59944000D03*
D13*
%TO.P,R2,1*%
%TO.N,Net-(R2-Pad1)*%
X122174000Y-54864000D03*
%TD*%
%TO.P,R6,1*%
%TO.N,/4bit register/GND*%
X57785000Y-46990000D03*
D12*
%TO.P,R6,2*%
%TO.N,/4bit register/D0_0*%
X57785000Y-52070000D03*
%TD*%
D11*
%TO.P,U2,14,VCC*%
%TO.N,/4bit register/VCC*%
X90170000Y-53340000D03*
%TO.P,U2,13*%
%TO.N,Net-(U2-Pad13)*%
X90170000Y-55880000D03*
%TO.P,U2,12*%
%TO.N,Net-(U2-Pad12)*%
X90170000Y-58420000D03*
%TO.P,U2,11*%
%TO.N,/4bit register/CLK*%
X90170000Y-60960000D03*
%TO.P,U2,10*%
%TO.N,Net-(U2-Pad10)*%
X90170000Y-63500000D03*
%TO.P,U2,9*%
%TO.N,Net-(U1-Pad8)*%
X90170000Y-66040000D03*
%TO.P,U2,8*%
%TO.N,Net-(U2-Pad13)*%
X90170000Y-68580000D03*
%TO.P,U2,7,GND*%
%TO.N,/4bit register/GND*%
X82550000Y-68580000D03*
%TO.P,U2,6*%
%TO.N,Net-(U2-Pad10)*%
X82550000Y-66040000D03*
%TO.P,U2,5*%
%TO.N,/4bit register/D3_1*%
X82550000Y-63500000D03*
%TO.P,U2,4*%
%TO.N,Net-(U2-Pad3)*%
X82550000Y-60960000D03*
%TO.P,U2,3*%
X82550000Y-58420000D03*
%TO.P,U2,2*%
%TO.N,/4bit register/D2_1*%
X82550000Y-55880000D03*
D10*
%TO.P,U2,1*%
%TO.N,Net-(U1-Pad11)*%
X82550000Y-53340000D03*
%TD*%
D13*
%TO.P,R3,1*%
%TO.N,Net-(R3-Pad1)*%
X124460000Y-54864000D03*
D12*
%TO.P,R3,2*%
%TO.N,Net-(D3-Pad2)*%
X124460000Y-59944000D03*
%TD*%
D11*
%TO.P,U4,16,B4*%
%TO.N,/4bit register/Q3_0*%
X121412000Y-29210000D03*
%TO.P,U4,15,S4*%
%TO.N,Net-(R4-Pad1)*%
X121412000Y-31750000D03*
%TO.P,U4,14,C4*%
%TO.N,Net-(R5-Pad1)*%
X121412000Y-34290000D03*
%TO.P,U4,13,C0*%
%TO.N,unconnected-(U4-Pad13)*%
X121412000Y-36830000D03*
%TO.P,U4,12,GND*%
%TO.N,/4bit register/GND*%
X121412000Y-39370000D03*
%TO.P,U4,11,B1*%
%TO.N,/4bit register/Q0_0*%
X121412000Y-41910000D03*
%TO.P,U4,10,A1*%
%TO.N,/4bit register/Q0_1*%
X121412000Y-44450000D03*
%TO.P,U4,9,S1*%
%TO.N,Net-(R1-Pad1)*%
X121412000Y-46990000D03*
%TO.P,U4,8,A2*%
%TO.N,/4bit register/Q1_1*%
X113792000Y-46990000D03*
%TO.P,U4,7,B2*%
%TO.N,/4bit register/Q1_0*%
X113792000Y-44450000D03*
%TO.P,U4,6,S2*%
%TO.N,Net-(R2-Pad1)*%
X113792000Y-41910000D03*
%TO.P,U4,5,VCC*%
%TO.N,/4bit register/VCC*%
X113792000Y-39370000D03*
%TO.P,U4,4,B3*%
%TO.N,/4bit register/Q2_0*%
X113792000Y-36830000D03*
%TO.P,U4,3,A3*%
%TO.N,/4bit register/Q2_1*%
X113792000Y-34290000D03*
%TO.P,U4,2,S3*%
%TO.N,Net-(R3-Pad1)*%
X113792000Y-31750000D03*
D10*
%TO.P,U4,1,A4*%
%TO.N,/4bit register/Q3_1*%
X113792000Y-29210000D03*
%TD*%
D13*
%TO.P,R1,1*%
%TO.N,Net-(R1-Pad1)*%
X119888000Y-54864000D03*
D12*
%TO.P,R1,2*%
%TO.N,Net-(D1-Pad2)*%
X119888000Y-59944000D03*
%TD*%
D13*
%TO.P,R4,1*%
%TO.N,Net-(R4-Pad1)*%
X126746000Y-54864000D03*
D12*
%TO.P,R4,2*%
%TO.N,Net-(D4-Pad2)*%
X126746000Y-59944000D03*
%TD*%
D14*
%TO.P,D1,1,K*%
%TO.N,/4bit register/GND*%
X120904000Y-66548000D03*
D15*
%TO.P,D1,2,A*%
%TO.N,Net-(D1-Pad2)*%
X120904000Y-64008000D03*
%TD*%
D16*
%TO.P,BT1,1,+*%
%TO.N,/4bit register/VCC*%
X40640000Y-33020000D03*
D17*
%TO.P,BT1,2,-*%
%TO.N,/4bit register/GND*%
X40640000Y-35560000D03*
%TD*%
D13*
%TO.P,R11,1*%
%TO.N,/4bit register/GND*%
X45085000Y-46990000D03*
D12*
%TO.P,R11,2*%
%TO.N,/4bit register/D1_1*%
X45085000Y-52070000D03*
%TD*%
D13*
%TO.P,R13,1*%
%TO.N,/4bit register/GND*%
X40005000Y-46990000D03*
D12*
%TO.P,R13,2*%
%TO.N,/4bit register/D3_1*%
X40005000Y-52070000D03*
%TD*%
D10*
%TO.P,U5,1,~{Mr}*%
%TO.N,unconnected-(U5-Pad1)*%
X99324000Y-29200000D03*
D11*
%TO.P,U5,2,Q0*%
%TO.N,/4bit register/Q0_0*%
X99324000Y-31740000D03*
%TO.P,U5,3,~{Q0}*%
%TO.N,unconnected-(U5-Pad3)*%
X99324000Y-34280000D03*
%TO.P,U5,4,D0*%
%TO.N,/4bit register/D0_0*%
X99324000Y-36820000D03*
%TO.P,U5,5,D1*%
%TO.N,/4bit register/D1_0*%
X99324000Y-39360000D03*
%TO.P,U5,6,~{Q1}*%
%TO.N,unconnected-(U5-Pad6)*%
X99324000Y-41900000D03*
%TO.P,U5,7,Q1*%
%TO.N,/4bit register/Q1_0*%
X99324000Y-44440000D03*
%TO.P,U5,8,GND*%
%TO.N,/4bit register/GND*%
X99324000Y-46980000D03*
%TO.P,U5,9,Cp*%
%TO.N,/4bit register/CLK*%
X106944000Y-46980000D03*
%TO.P,U5,10,Q2*%
%TO.N,/4bit register/Q2_0*%
X106944000Y-44440000D03*
%TO.P,U5,11,~{Q2}*%
%TO.N,unconnected-(U5-Pad11)*%
X106944000Y-41900000D03*
%TO.P,U5,12,D2*%
%TO.N,/4bit register/D2_0*%
X106944000Y-39360000D03*
%TO.P,U5,13,D3*%
%TO.N,/4bit register/D3_0*%
X106944000Y-36820000D03*
%TO.P,U5,14,~{Q3}*%
%TO.N,unconnected-(U5-Pad14)*%
X106944000Y-34280000D03*
%TO.P,U5,15,Q3*%
%TO.N,/4bit register/Q3_0*%
X106944000Y-31740000D03*
%TO.P,U5,16,VCC*%
%TO.N,/4bit register/VCC*%
X106944000Y-29200000D03*
%TD*%
D13*
%TO.P,R5,1*%
%TO.N,Net-(R5-Pad1)*%
X112776000Y-54864000D03*
D12*
%TO.P,R5,2*%
%TO.N,Net-(D5-Pad2)*%
X112776000Y-59944000D03*
%TD*%
D15*
%TO.P,D3,2,A*%
%TO.N,Net-(D3-Pad2)*%
X131064000Y-64008000D03*
D14*
%TO.P,D3,1,K*%
%TO.N,/4bit register/GND*%
X131064000Y-66548000D03*
%TD*%
D11*
%TO.P,U1,14,VCC*%
%TO.N,/4bit register/VCC*%
X90180000Y-31745000D03*
%TO.P,U1,13*%
%TO.N,/4bit register/D1_1*%
X90180000Y-34285000D03*
%TO.P,U1,12*%
%TO.N,/4bit register/D0_1*%
X90180000Y-36825000D03*
%TO.P,U1,11*%
%TO.N,Net-(U1-Pad11)*%
X90180000Y-39365000D03*
%TO.P,U1,10*%
%TO.N,/4bit register/D3_0*%
X90180000Y-41905000D03*
%TO.P,U1,9*%
%TO.N,Net-(U1-Pad6)*%
X90180000Y-44445000D03*
%TO.P,U1,8*%
%TO.N,Net-(U1-Pad8)*%
X90180000Y-46985000D03*
%TO.P,U1,7,GND*%
%TO.N,/4bit register/GND*%
X82560000Y-46985000D03*
%TO.P,U1,6*%
%TO.N,Net-(U1-Pad6)*%
X82560000Y-44445000D03*
%TO.P,U1,5*%
%TO.N,/4bit register/D2_0*%
X82560000Y-41905000D03*
%TO.P,U1,4*%
%TO.N,Net-(U1-Pad3)*%
X82560000Y-39365000D03*
%TO.P,U1,3*%
X82560000Y-36825000D03*
%TO.P,U1,2*%
%TO.N,/4bit register/D1_0*%
X82560000Y-34285000D03*
D10*
%TO.P,U1,1*%
%TO.N,/4bit register/D0_0*%
X82560000Y-31745000D03*
%TD*%
D13*
%TO.P,R10,1*%
%TO.N,/4bit register/GND*%
X47625000Y-46990000D03*
D12*
%TO.P,R10,2*%
%TO.N,/4bit register/D0_1*%
X47625000Y-52070000D03*
%TD*%
D14*
%TO.P,D4,1,K*%
%TO.N,/4bit register/GND*%
X136144000Y-66548000D03*
D15*
%TO.P,D4,2,A*%
%TO.N,Net-(D4-Pad2)*%
X136144000Y-64008000D03*
%TD*%
D13*
%TO.P,R9,1*%
%TO.N,/4bit register/GND*%
X50165000Y-46990000D03*
D12*
%TO.P,R9,2*%
%TO.N,/4bit register/D3_0*%
X50165000Y-52070000D03*
%TD*%
D13*
%TO.P,R7,1*%
%TO.N,/4bit register/GND*%
X55245000Y-46990000D03*
D12*
%TO.P,R7,2*%
%TO.N,/4bit register/D1_0*%
X55245000Y-52070000D03*
%TD*%
D11*
%TO.P,U3,14,VCC*%
%TO.N,/4bit register/VCC*%
X66665000Y-59695000D03*
%TO.P,U3,13*%
%TO.N,unconnected-(U3-Pad13)*%
X66665000Y-57155000D03*
%TO.P,U3,12*%
%TO.N,unconnected-(U3-Pad12)*%
X66665000Y-54615000D03*
%TO.P,U3,11*%
%TO.N,unconnected-(U3-Pad11)*%
X66665000Y-52075000D03*
%TO.P,U3,10*%
%TO.N,unconnected-(U3-Pad10)*%
X66665000Y-49535000D03*
%TO.P,U3,9*%
%TO.N,unconnected-(U3-Pad9)*%
X66665000Y-46995000D03*
%TO.P,U3,8*%
%TO.N,unconnected-(U3-Pad8)*%
X66665000Y-44455000D03*
%TO.P,U3,7,GND*%
%TO.N,/4bit register/GND*%
X74285000Y-44455000D03*
%TO.P,U3,6*%
%TO.N,unconnected-(U3-Pad6)*%
X74285000Y-46995000D03*
%TO.P,U3,5*%
%TO.N,unconnected-(U3-Pad5)*%
X74285000Y-49535000D03*
%TO.P,U3,4*%
%TO.N,Net-(U2-Pad12)*%
X74285000Y-52075000D03*
%TO.P,U3,3*%
%TO.N,Net-(U3-Pad2)*%
X74285000Y-54615000D03*
%TO.P,U3,2*%
X74285000Y-57155000D03*
D10*
%TO.P,U3,1*%
%TO.N,Net-(U2-Pad13)*%
X74285000Y-59695000D03*
%TD*%
D14*
%TO.P,D2,1,K*%
%TO.N,/4bit register/GND*%
X125984000Y-66548000D03*
D15*
%TO.P,D2,2,A*%
%TO.N,Net-(D2-Pad2)*%
X125984000Y-64008000D03*
%TD*%
D18*
%TO.N,Net-(R2-Pad1)*%
X117602000Y-47244000D03*
%TO.N,/4bit register/VCC*%
X102616000Y-41910000D03*
%TO.N,/4bit register/Q3_1*%
X110744000Y-51054000D03*
%TO.N,/4bit register/Q2_0*%
X115316000Y-45720000D03*
%TO.N,/4bit register/VCC*%
X93726000Y-53340000D03*
%TO.N,/4bit register/GND*%
X100076000Y-71374000D03*
%TO.N,/4bit register/D0_1*%
X92964000Y-37592000D03*
%TO.N,/4bit register/D1_1*%
X91948000Y-59944000D03*
%TO.N,Net-(U2-Pad13)*%
X79502000Y-55118000D03*
X79502000Y-57912000D03*
%TO.N,Net-(U1-Pad11)*%
X80264000Y-45720000D03*
%TO.N,Net-(U2-Pad12)*%
X76820802Y-57150000D03*
X76814104Y-55002035D03*
%TO.N,Net-(U2-Pad13)*%
X74930000Y-64770000D03*
%TD*%
D19*
%TO.N,/4bit register/GND*%
X125984000Y-66548000D02*
X125984000Y-70358000D01*
X125984000Y-70358000D02*
X124968000Y-71374000D01*
X124968000Y-71374000D02*
X100076000Y-71374000D01*
X131064000Y-66548000D02*
X136144000Y-66548000D01*
X125984000Y-66548000D02*
X131064000Y-66548000D01*
X120904000Y-66548000D02*
X125984000Y-66548000D01*
X113792000Y-66294000D02*
X120650000Y-66294000D01*
X120650000Y-66294000D02*
X120904000Y-66548000D01*
%TO.N,Net-(D4-Pad2)*%
X126746000Y-59944000D02*
X129365489Y-62563489D01*
X134699489Y-62563489D02*
X136144000Y-64008000D01*
X129365489Y-62563489D02*
X134699489Y-62563489D01*
%TO.N,Net-(D3-Pad2)*%
X124460000Y-59944000D02*
X128524000Y-64008000D01*
X128524000Y-64008000D02*
X131064000Y-64008000D01*
%TO.N,Net-(D2-Pad2)*%
X122174000Y-59944000D02*
X125984000Y-63754000D01*
X125984000Y-63754000D02*
X125984000Y-64008000D01*
%TO.N,Net-(D1-Pad2)*%
X119888000Y-59944000D02*
X119888000Y-62992000D01*
X119888000Y-62992000D02*
X120904000Y-64008000D01*
%TO.N,Net-(D5-Pad2)*%
X112776000Y-59944000D02*
X112776000Y-62738000D01*
X112776000Y-62738000D02*
X113792000Y-63754000D01*
%TO.N,Net-(R2-Pad1)*%
X117602000Y-47244000D02*
X117602000Y-54356000D01*
X117602000Y-54356000D02*
X119634000Y-56388000D01*
X120650000Y-56388000D02*
X122174000Y-54864000D01*
X119634000Y-56388000D02*
X120650000Y-56388000D01*
%TO.N,/4bit register/Q3_1*%
X110744000Y-51054000D02*
X111252000Y-50546000D01*
X111252000Y-50546000D02*
X111252000Y-30988000D01*
X111252000Y-30988000D02*
X113030000Y-29210000D01*
X113030000Y-29210000D02*
X113792000Y-29210000D01*
%TO.N,Net-(R1-Pad1)*%
X121412000Y-46990000D02*
X119888000Y-48514000D01*
X119888000Y-48514000D02*
X119888000Y-54864000D01*
%TO.N,Net-(R5-Pad1)*%
X115824000Y-50800000D02*
X114554000Y-50800000D01*
X116840000Y-49784000D02*
X115824000Y-50800000D01*
X118110000Y-37592000D02*
X117602000Y-37592000D01*
X121412000Y-34290000D02*
X118110000Y-37592000D01*
X116840000Y-38354000D02*
X116840000Y-49784000D01*
X117602000Y-37592000D02*
X116840000Y-38354000D01*
X114554000Y-50800000D02*
X112776000Y-52578000D01*
X112776000Y-52578000D02*
X112776000Y-54864000D01*
%TO.N,/4bit register/Q2_1*%
X106934000Y-66294000D02*
X107950000Y-66294000D01*
X110998000Y-63246000D02*
X110998000Y-53340000D01*
X107950000Y-66294000D02*
X110998000Y-63246000D01*
X110998000Y-53340000D02*
X114300000Y-50038000D01*
X114300000Y-50038000D02*
X115316000Y-50038000D01*
X115316000Y-36830000D02*
X115316000Y-35814000D01*
X115316000Y-50038000D02*
X116078000Y-49276000D01*
X116078000Y-49276000D02*
X116078000Y-37592000D01*
X115316000Y-35814000D02*
X113792000Y-34290000D01*
X116078000Y-37592000D02*
X115316000Y-36830000D01*
%TO.N,/4bit register/Q1_1*%
X99314000Y-66294000D02*
X101854000Y-66294000D01*
X108458000Y-65024000D02*
X110236000Y-63246000D01*
X101854000Y-66294000D02*
X103124000Y-65024000D01*
X103124000Y-65024000D02*
X108458000Y-65024000D01*
X110236000Y-63246000D02*
X110236000Y-53086000D01*
X110236000Y-53086000D02*
X113792000Y-49530000D01*
X113792000Y-49530000D02*
X113792000Y-46990000D01*
%TO.N,/4bit register/GND*%
X121412000Y-39370000D02*
X124206000Y-42164000D01*
X124206000Y-42164000D02*
X124206000Y-47752000D01*
X124206000Y-47752000D02*
X128778000Y-52324000D01*
X128778000Y-52324000D02*
X128778000Y-60198000D01*
X128778000Y-60198000D02*
X129286000Y-60706000D01*
X129286000Y-60706000D02*
X137668000Y-60706000D01*
X137668000Y-60706000D02*
X138938000Y-61976000D01*
X138938000Y-61976000D02*
X138938000Y-65786000D01*
X138938000Y-65786000D02*
X138176000Y-66548000D01*
X138176000Y-66548000D02*
X136144000Y-66548000D01*
%TO.N,/4bit register/Q2_0*%
X115316000Y-45720000D02*
X115316000Y-38354000D01*
X115316000Y-38354000D02*
X113792000Y-36830000D01*
%TO.N,/4bit register/VCC*%
X102616000Y-47752000D02*
X102616000Y-46736000D01*
X93726000Y-53340000D02*
X98044000Y-49022000D01*
X101346000Y-49022000D02*
X102616000Y-47752000D01*
X98044000Y-49022000D02*
X101346000Y-49022000D01*
X106934000Y-51054000D02*
X102616000Y-46736000D01*
X102616000Y-46736000D02*
X102616000Y-31242000D01*
X102616000Y-31242000D02*
X104658000Y-29200000D01*
X104658000Y-29200000D02*
X106944000Y-29200000D01*
%TO.N,/4bit register/CLK*%
X91948000Y-61976000D02*
X97790000Y-61976000D01*
X97790000Y-61976000D02*
X98298000Y-62484000D01*
X98298000Y-62484000D02*
X108966000Y-62484000D01*
X108966000Y-62484000D02*
X109220000Y-62230000D01*
X109220000Y-62230000D02*
X109220000Y-49256000D01*
X109220000Y-49256000D02*
X106944000Y-46980000D01*
%TO.N,/4bit register/D0_1*%
X92964000Y-58420000D02*
X93472000Y-58928000D01*
X92964000Y-37592000D02*
X92964000Y-58420000D01*
X93472000Y-58928000D02*
X99060000Y-58928000D01*
X99060000Y-58928000D02*
X99314000Y-58674000D01*
%TO.N,/4bit register/D1_1*%
X91948000Y-59944000D02*
X91948000Y-36053000D01*
X91948000Y-36053000D02*
X90180000Y-34285000D01*
%TO.N,Net-(U1-Pad8)*%
X90170000Y-66040000D02*
X88138000Y-66040000D01*
X88138000Y-66040000D02*
X87376000Y-65278000D01*
X87376000Y-65278000D02*
X87376000Y-49789000D01*
X87376000Y-49789000D02*
X90180000Y-46985000D01*
%TO.N,/4bit register/CLK*%
X91948000Y-70612000D02*
X91948000Y-61976000D01*
X90932000Y-60960000D02*
X90170000Y-60960000D01*
X106934000Y-68834000D02*
X105156000Y-70612000D01*
X105156000Y-70612000D02*
X91948000Y-70612000D01*
X91948000Y-61976000D02*
X90932000Y-60960000D01*
%TO.N,Net-(U2-Pad13)*%
X79502000Y-57912000D02*
X79502000Y-55118000D01*
%TO.N,Net-(U1-Pad11)*%
X80264000Y-45720000D02*
X80264000Y-38608000D01*
X80264000Y-38608000D02*
X80772000Y-38100000D01*
X80772000Y-38100000D02*
X83312000Y-38100000D01*
X83312000Y-38100000D02*
X84577000Y-39365000D01*
X84577000Y-39365000D02*
X90180000Y-39365000D01*
%TO.N,/4bit register/D1_0*%
X82560000Y-34285000D02*
X83825000Y-34285000D01*
X83825000Y-34285000D02*
X87630000Y-30480000D01*
X87630000Y-30480000D02*
X91186000Y-30480000D01*
X91186000Y-30480000D02*
X99324000Y-38618000D01*
X99324000Y-38618000D02*
X99324000Y-39360000D01*
%TO.N,/4bit register/D0_0*%
X82560000Y-31745000D02*
X85603000Y-31745000D01*
X85603000Y-31745000D02*
X87376000Y-29972000D01*
X87376000Y-29972000D02*
X91694000Y-29972000D01*
X91694000Y-29972000D02*
X98542000Y-36820000D01*
X98542000Y-36820000D02*
X99324000Y-36820000D01*
%TO.N,/4bit register/VCC*%
X38354000Y-33782000D02*
X39116000Y-33020000D01*
X38354000Y-56642000D02*
X38354000Y-33782000D01*
X61727000Y-59695000D02*
X59690000Y-57658000D01*
X39370000Y-57658000D02*
X38354000Y-56642000D01*
X66665000Y-59695000D02*
X61727000Y-59695000D01*
X39116000Y-33020000D02*
X40640000Y-33020000D01*
X59690000Y-57658000D02*
X39370000Y-57658000D01*
%TO.N,/4bit register/GND*%
X45720000Y-67650000D02*
X50165000Y-67650000D01*
X41275000Y-67650000D02*
X45720000Y-67650000D01*
X54610000Y-67650000D02*
X50165000Y-67650000D01*
X54610000Y-67650000D02*
X59055000Y-67650000D01*
X63500000Y-67650000D02*
X59055000Y-67650000D01*
X67945000Y-67650000D02*
X63500000Y-67650000D01*
X72390000Y-67650000D02*
X67945000Y-67650000D01*
X78486000Y-66294000D02*
X78486000Y-67818000D01*
X78486000Y-48514000D02*
X78486000Y-66294000D01*
X78486000Y-66294000D02*
X77130000Y-67650000D01*
X77130000Y-67650000D02*
X72390000Y-67650000D01*
X80513000Y-46985000D02*
X82560000Y-46985000D01*
X76815000Y-46985000D02*
X80513000Y-46985000D01*
X80513000Y-46985000D02*
X80015000Y-46985000D01*
X80015000Y-46985000D02*
X78486000Y-48514000D01*
X78486000Y-67818000D02*
X79248000Y-68580000D01*
X79248000Y-68580000D02*
X82550000Y-68580000D01*
X74285000Y-44455000D02*
X76815000Y-46985000D01*
%TO.N,/4bit register/D0_1*%
X57150000Y-41275000D02*
X57150000Y-39422500D01*
X57150000Y-39422500D02*
X57160000Y-39412500D01*
%TO.N,/4bit register/D2_1*%
X52070000Y-40386000D02*
X52070000Y-39422500D01*
X52070000Y-40386000D02*
X52070000Y-40640000D01*
X52070000Y-40640000D02*
X50800000Y-41910000D01*
X52080000Y-40630000D02*
X52070000Y-40640000D01*
X52070000Y-39422500D02*
X52080000Y-39412500D01*
%TO.N,/4bit register/D3_1*%
X48641000Y-40894000D02*
X48768000Y-40894000D01*
X48260000Y-41275000D02*
X48641000Y-40894000D01*
X48768000Y-40894000D02*
X49540000Y-40122000D01*
X49540000Y-40122000D02*
X49540000Y-39412500D01*
X40005000Y-52070000D02*
X41275000Y-50800000D01*
X41275000Y-50800000D02*
X41275000Y-42545000D01*
X41275000Y-42545000D02*
X42545000Y-41275000D01*
X42545000Y-41275000D02*
X48260000Y-41275000D01*
%TO.N,Net-(U2-Pad12)*%
X76814104Y-55002035D02*
X76820802Y-55008733D01*
X76820802Y-55008733D02*
X76820802Y-57150000D01*
%TO.N,Net-(U2-Pad13)*%
X74285000Y-59695000D02*
X74930000Y-60340000D01*
X74930000Y-64770000D02*
X74930000Y-60340000D01*
%TO.N,Net-(U3-Pad2)*%
X74285000Y-54615000D02*
X74285000Y-57155000D01*
%TO.N,/4bit register/D0_0*%
X82560000Y-31745000D02*
X73665000Y-31745000D01*
X73025000Y-32385000D02*
X73025000Y-34925000D01*
X71755000Y-36195000D02*
X67945000Y-36195000D01*
X67320000Y-36820000D02*
X67320000Y-39412500D01*
X73665000Y-31745000D02*
X73025000Y-32385000D01*
X73025000Y-34925000D02*
X71755000Y-36195000D01*
X67945000Y-36195000D02*
X67320000Y-36820000D01*
X67320000Y-39412500D02*
X67267500Y-39412500D01*
X59055000Y-50800000D02*
X57785000Y-52070000D01*
X67267500Y-39412500D02*
X64135000Y-42545000D01*
X64135000Y-42545000D02*
X60960000Y-42545000D01*
X60960000Y-42545000D02*
X59055000Y-44450000D01*
X59055000Y-44450000D02*
X59055000Y-50800000D01*
%TO.N,/4bit register/D1_0*%
X56515000Y-45720000D02*
X56515000Y-50800000D01*
X62282500Y-41910000D02*
X60325000Y-41910000D01*
X64780000Y-39412500D02*
X62282500Y-41910000D01*
X60325000Y-41910000D02*
X56515000Y-45720000D01*
X56515000Y-50800000D02*
X55245000Y-52070000D01*
%TO.N,/4bit register/D2_0*%
X62240000Y-39412500D02*
X62187500Y-39412500D01*
X62187500Y-39412500D02*
X60325000Y-41275000D01*
X56515000Y-44450000D02*
X54610000Y-44450000D01*
X54610000Y-44450000D02*
X53975000Y-45085000D01*
X60325000Y-41275000D02*
X59690000Y-41275000D01*
X59690000Y-41275000D02*
X56515000Y-44450000D01*
X53975000Y-45085000D02*
X53975000Y-50800000D01*
X53975000Y-50800000D02*
X52705000Y-52070000D01*
%TO.N,/4bit register/D3_0*%
X52070000Y-43815000D02*
X51435000Y-44450000D01*
X59700000Y-39995000D02*
X55880000Y-43815000D01*
X51435000Y-44450000D02*
X51435000Y-50800000D01*
X59700000Y-39412500D02*
X59700000Y-39995000D01*
X55880000Y-43815000D02*
X52070000Y-43815000D01*
X51435000Y-50800000D02*
X50165000Y-52070000D01*
%TO.N,/4bit register/D0_1*%
X48895000Y-43815000D02*
X48895000Y-46355000D01*
%TO.N,/4bit register/D1_1*%
X54620000Y-39412500D02*
X51487500Y-42545000D01*
X51487500Y-42545000D02*
X46990000Y-42545000D01*
X46990000Y-42545000D02*
X46355000Y-43180000D01*
X46355000Y-43180000D02*
X46355000Y-50800000D01*
X46355000Y-50800000D02*
X45085000Y-52070000D01*
%TO.N,/4bit register/D2_1*%
X50800000Y-41910000D02*
X44450000Y-41910000D01*
X44450000Y-41910000D02*
X43815000Y-42545000D01*
X43815000Y-50800000D02*
X42545000Y-52070000D01*
X43815000Y-42545000D02*
X43815000Y-50800000D01*
%TO.N,/4bit register/D0_1*%
X57150000Y-41275000D02*
X55245000Y-43180000D01*
X48895000Y-46355000D02*
X48895000Y-50800000D01*
X55245000Y-43180000D02*
X49530000Y-43180000D01*
X49530000Y-43180000D02*
X48895000Y-43815000D01*
X48895000Y-50800000D02*
X47625000Y-52070000D01*
%TD*%
M02*
