%TF.GenerationSoftware,KiCad,Pcbnew,(6.0.4)*%
%TF.CreationDate,2022-04-08T01:44:20+01:00*%
%TF.ProjectId,test,74657374-2e6b-4696-9361-645f70636258,rev?*%
%TF.SameCoordinates,Original*%
%TF.FileFunction,Legend,Top*%
%TF.FilePolarity,Positive*%
%FSLAX46Y46*%
G04 Gerber Fmt 4.6, Leading zero omitted, Abs format (unit mm)*
G04 Created by KiCad (PCBNEW (6.0.4)) date 2022-04-08 01:44:20*
%MOMM*%
%LPD*%
G01*
G04 APERTURE LIST*
%ADD10C,0.086412*%
%ADD11C,0.400000*%
%ADD12C,0.300000*%
%ADD13C,0.150000*%
%ADD14C,0.120000*%
G04 APERTURE END LIST*
D10*
X136696488Y-34258253D02*
X136696488Y-34258253D01*
D11*
X124968000Y-27940000D02*
X139954000Y-27940000D01*
X139954000Y-27940000D02*
X139954000Y-33020000D01*
X139954000Y-33020000D02*
X124968000Y-33020000D01*
X124968000Y-33020000D02*
X124968000Y-27940000D01*
D12*
X126722857Y-35556000D02*
X127437142Y-35556000D01*
X126580000Y-35984571D02*
X127080000Y-34484571D01*
X127580000Y-35984571D01*
X128080000Y-35413142D02*
X129222857Y-35413142D01*
X128651428Y-35984571D02*
X128651428Y-34841714D01*
X130437142Y-35198857D02*
X130651428Y-35270285D01*
X130722857Y-35341714D01*
X130794285Y-35484571D01*
X130794285Y-35698857D01*
X130722857Y-35841714D01*
X130651428Y-35913142D01*
X130508571Y-35984571D01*
X129937142Y-35984571D01*
X129937142Y-34484571D01*
X130437142Y-34484571D01*
X130580000Y-34556000D01*
X130651428Y-34627428D01*
X130722857Y-34770285D01*
X130722857Y-34913142D01*
X130651428Y-35056000D01*
X130580000Y-35127428D01*
X130437142Y-35198857D01*
X129937142Y-35198857D01*
X131437142Y-35198857D02*
X132580000Y-35198857D01*
X132580000Y-35627428D02*
X131437142Y-35627428D01*
X134151428Y-35841714D02*
X134080000Y-35913142D01*
X133865714Y-35984571D01*
X133722857Y-35984571D01*
X133508571Y-35913142D01*
X133365714Y-35770285D01*
X133294285Y-35627428D01*
X133222857Y-35341714D01*
X133222857Y-35127428D01*
X133294285Y-34841714D01*
X133365714Y-34698857D01*
X133508571Y-34556000D01*
X133722857Y-34484571D01*
X133865714Y-34484571D01*
X134080000Y-34556000D01*
X134151428Y-34627428D01*
X134794285Y-35413142D02*
X135937142Y-35413142D01*
X135365714Y-35984571D02*
X135365714Y-34841714D01*
X136580000Y-35913142D02*
X136794285Y-35984571D01*
X137151428Y-35984571D01*
X137294285Y-35913142D01*
X137365714Y-35841714D01*
X137437142Y-35698857D01*
X137437142Y-35556000D01*
X137365714Y-35413142D01*
X137294285Y-35341714D01*
X137151428Y-35270285D01*
X136865714Y-35198857D01*
X136722857Y-35127428D01*
X136651428Y-35056000D01*
X136580000Y-34913142D01*
X136580000Y-34770285D01*
X136651428Y-34627428D01*
X136722857Y-34556000D01*
X136865714Y-34484571D01*
X137222857Y-34484571D01*
X137437142Y-34556000D01*
X126766571Y-28951071D02*
X126766571Y-29951071D01*
X126409428Y-28379642D02*
X126052285Y-29451071D01*
X126980857Y-29451071D01*
X127552285Y-29379642D02*
X128695142Y-29379642D01*
X129909428Y-29165357D02*
X130123714Y-29236785D01*
X130195142Y-29308214D01*
X130266571Y-29451071D01*
X130266571Y-29665357D01*
X130195142Y-29808214D01*
X130123714Y-29879642D01*
X129980857Y-29951071D01*
X129409428Y-29951071D01*
X129409428Y-28451071D01*
X129909428Y-28451071D01*
X130052285Y-28522500D01*
X130123714Y-28593928D01*
X130195142Y-28736785D01*
X130195142Y-28879642D01*
X130123714Y-29022500D01*
X130052285Y-29093928D01*
X129909428Y-29165357D01*
X129409428Y-29165357D01*
X130909428Y-29951071D02*
X130909428Y-28451071D01*
X131409428Y-28451071D02*
X132266571Y-28451071D01*
X131838000Y-29951071D02*
X131838000Y-28451071D01*
X133838000Y-29879642D02*
X134052285Y-29951071D01*
X134409428Y-29951071D01*
X134552285Y-29879642D01*
X134623714Y-29808214D01*
X134695142Y-29665357D01*
X134695142Y-29522500D01*
X134623714Y-29379642D01*
X134552285Y-29308214D01*
X134409428Y-29236785D01*
X134123714Y-29165357D01*
X133980857Y-29093928D01*
X133909428Y-29022500D01*
X133838000Y-28879642D01*
X133838000Y-28736785D01*
X133909428Y-28593928D01*
X133980857Y-28522500D01*
X134123714Y-28451071D01*
X134480857Y-28451071D01*
X134695142Y-28522500D01*
X135338000Y-28451071D02*
X135338000Y-29665357D01*
X135409428Y-29808214D01*
X135480857Y-29879642D01*
X135623714Y-29951071D01*
X135909428Y-29951071D01*
X136052285Y-29879642D01*
X136123714Y-29808214D01*
X136195142Y-29665357D01*
X136195142Y-28451071D01*
X136909428Y-29951071D02*
X136909428Y-28451071D01*
X137409428Y-29522500D01*
X137909428Y-28451071D01*
X137909428Y-29951071D01*
X126909428Y-32223214D02*
X126838000Y-32294642D01*
X126623714Y-32366071D01*
X126480857Y-32366071D01*
X126266571Y-32294642D01*
X126123714Y-32151785D01*
X126052285Y-32008928D01*
X125980857Y-31723214D01*
X125980857Y-31508928D01*
X126052285Y-31223214D01*
X126123714Y-31080357D01*
X126266571Y-30937500D01*
X126480857Y-30866071D01*
X126623714Y-30866071D01*
X126838000Y-30937500D01*
X126909428Y-31008928D01*
X127480857Y-31937500D02*
X128195142Y-31937500D01*
X127338000Y-32366071D02*
X127838000Y-30866071D01*
X128338000Y-32366071D01*
X129552285Y-32366071D02*
X128838000Y-32366071D01*
X128838000Y-30866071D01*
X130909428Y-32223214D02*
X130838000Y-32294642D01*
X130623714Y-32366071D01*
X130480857Y-32366071D01*
X130266571Y-32294642D01*
X130123714Y-32151785D01*
X130052285Y-32008928D01*
X129980857Y-31723214D01*
X129980857Y-31508928D01*
X130052285Y-31223214D01*
X130123714Y-31080357D01*
X130266571Y-30937500D01*
X130480857Y-30866071D01*
X130623714Y-30866071D01*
X130838000Y-30937500D01*
X130909428Y-31008928D01*
X131552285Y-30866071D02*
X131552285Y-32080357D01*
X131623714Y-32223214D01*
X131695142Y-32294642D01*
X131838000Y-32366071D01*
X132123714Y-32366071D01*
X132266571Y-32294642D01*
X132338000Y-32223214D01*
X132409428Y-32080357D01*
X132409428Y-30866071D01*
X133838000Y-32366071D02*
X133123714Y-32366071D01*
X133123714Y-30866071D01*
X134266571Y-31937500D02*
X134980857Y-31937500D01*
X134123714Y-32366071D02*
X134623714Y-30866071D01*
X135123714Y-32366071D01*
X135409428Y-30866071D02*
X136266571Y-30866071D01*
X135838000Y-32366071D02*
X135838000Y-30866071D01*
X137052285Y-30866071D02*
X137338000Y-30866071D01*
X137480857Y-30937500D01*
X137623714Y-31080357D01*
X137695142Y-31366071D01*
X137695142Y-31866071D01*
X137623714Y-32151785D01*
X137480857Y-32294642D01*
X137338000Y-32366071D01*
X137052285Y-32366071D01*
X136909428Y-32294642D01*
X136766571Y-32151785D01*
X136695142Y-31866071D01*
X136695142Y-31366071D01*
X136766571Y-31080357D01*
X136909428Y-30937500D01*
X137052285Y-30866071D01*
X139195142Y-32366071D02*
X138695142Y-31651785D01*
X138338000Y-32366071D02*
X138338000Y-30866071D01*
X138909428Y-30866071D01*
X139052285Y-30937500D01*
X139123714Y-31008928D01*
X139195142Y-31151785D01*
X139195142Y-31366071D01*
X139123714Y-31508928D01*
X139052285Y-31580357D01*
X138909428Y-31651785D01*
X138338000Y-31651785D01*
D13*
X134366095Y-69238761D02*
X134508952Y-69286380D01*
X134747047Y-69286380D01*
X134842285Y-69238761D01*
X134889904Y-69191142D01*
X134937523Y-69095904D01*
X134937523Y-69000666D01*
X134889904Y-68905428D01*
X134842285Y-68857809D01*
X134747047Y-68810190D01*
X134556571Y-68762571D01*
X134461333Y-68714952D01*
X134413714Y-68667333D01*
X134366095Y-68572095D01*
X134366095Y-68476857D01*
X134413714Y-68381619D01*
X134461333Y-68334000D01*
X134556571Y-68286380D01*
X134794666Y-68286380D01*
X134937523Y-68334000D01*
X135556571Y-68286380D02*
X135651809Y-68286380D01*
X135747047Y-68334000D01*
X135794666Y-68381619D01*
X135842285Y-68476857D01*
X135889904Y-68667333D01*
X135889904Y-68905428D01*
X135842285Y-69095904D01*
X135794666Y-69191142D01*
X135747047Y-69238761D01*
X135651809Y-69286380D01*
X135556571Y-69286380D01*
X135461333Y-69238761D01*
X135413714Y-69191142D01*
X135366095Y-69095904D01*
X135318476Y-68905428D01*
X135318476Y-68667333D01*
X135366095Y-68476857D01*
X135413714Y-68381619D01*
X135461333Y-68334000D01*
X135556571Y-68286380D01*
X129286095Y-69238761D02*
X129428952Y-69286380D01*
X129667047Y-69286380D01*
X129762285Y-69238761D01*
X129809904Y-69191142D01*
X129857523Y-69095904D01*
X129857523Y-69000666D01*
X129809904Y-68905428D01*
X129762285Y-68857809D01*
X129667047Y-68810190D01*
X129476571Y-68762571D01*
X129381333Y-68714952D01*
X129333714Y-68667333D01*
X129286095Y-68572095D01*
X129286095Y-68476857D01*
X129333714Y-68381619D01*
X129381333Y-68334000D01*
X129476571Y-68286380D01*
X129714666Y-68286380D01*
X129857523Y-68334000D01*
X130809904Y-69286380D02*
X130238476Y-69286380D01*
X130524190Y-69286380D02*
X130524190Y-68286380D01*
X130428952Y-68429238D01*
X130333714Y-68524476D01*
X130238476Y-68572095D01*
X124206095Y-69238761D02*
X124348952Y-69286380D01*
X124587047Y-69286380D01*
X124682285Y-69238761D01*
X124729904Y-69191142D01*
X124777523Y-69095904D01*
X124777523Y-69000666D01*
X124729904Y-68905428D01*
X124682285Y-68857809D01*
X124587047Y-68810190D01*
X124396571Y-68762571D01*
X124301333Y-68714952D01*
X124253714Y-68667333D01*
X124206095Y-68572095D01*
X124206095Y-68476857D01*
X124253714Y-68381619D01*
X124301333Y-68334000D01*
X124396571Y-68286380D01*
X124634666Y-68286380D01*
X124777523Y-68334000D01*
X125158476Y-68381619D02*
X125206095Y-68334000D01*
X125301333Y-68286380D01*
X125539428Y-68286380D01*
X125634666Y-68334000D01*
X125682285Y-68381619D01*
X125729904Y-68476857D01*
X125729904Y-68572095D01*
X125682285Y-68714952D01*
X125110857Y-69286380D01*
X125729904Y-69286380D01*
X119126095Y-69238761D02*
X119268952Y-69286380D01*
X119507047Y-69286380D01*
X119602285Y-69238761D01*
X119649904Y-69191142D01*
X119697523Y-69095904D01*
X119697523Y-69000666D01*
X119649904Y-68905428D01*
X119602285Y-68857809D01*
X119507047Y-68810190D01*
X119316571Y-68762571D01*
X119221333Y-68714952D01*
X119173714Y-68667333D01*
X119126095Y-68572095D01*
X119126095Y-68476857D01*
X119173714Y-68381619D01*
X119221333Y-68334000D01*
X119316571Y-68286380D01*
X119554666Y-68286380D01*
X119697523Y-68334000D01*
X120030857Y-68286380D02*
X120649904Y-68286380D01*
X120316571Y-68667333D01*
X120459428Y-68667333D01*
X120554666Y-68714952D01*
X120602285Y-68762571D01*
X120649904Y-68857809D01*
X120649904Y-69095904D01*
X120602285Y-69191142D01*
X120554666Y-69238761D01*
X120459428Y-69286380D01*
X120173714Y-69286380D01*
X120078476Y-69238761D01*
X120030857Y-69191142D01*
X112672952Y-69445142D02*
X112625333Y-69492761D01*
X112482476Y-69540380D01*
X112387238Y-69540380D01*
X112244380Y-69492761D01*
X112149142Y-69397523D01*
X112101523Y-69302285D01*
X112053904Y-69111809D01*
X112053904Y-68968952D01*
X112101523Y-68778476D01*
X112149142Y-68683238D01*
X112244380Y-68588000D01*
X112387238Y-68540380D01*
X112482476Y-68540380D01*
X112625333Y-68588000D01*
X112672952Y-68635619D01*
X113292000Y-68540380D02*
X113482476Y-68540380D01*
X113577714Y-68588000D01*
X113672952Y-68683238D01*
X113720571Y-68873714D01*
X113720571Y-69207047D01*
X113672952Y-69397523D01*
X113577714Y-69492761D01*
X113482476Y-69540380D01*
X113292000Y-69540380D01*
X113196761Y-69492761D01*
X113101523Y-69397523D01*
X113053904Y-69207047D01*
X113053904Y-68873714D01*
X113101523Y-68683238D01*
X113196761Y-68588000D01*
X113292000Y-68540380D01*
X114149142Y-68540380D02*
X114149142Y-69349904D01*
X114196761Y-69445142D01*
X114244380Y-69492761D01*
X114339619Y-69540380D01*
X114530095Y-69540380D01*
X114625333Y-69492761D01*
X114672952Y-69445142D01*
X114720571Y-69349904D01*
X114720571Y-68540380D01*
X115053904Y-68540380D02*
X115625333Y-68540380D01*
X115339619Y-69540380D02*
X115339619Y-68540380D01*
X57507238Y-69778571D02*
X57650095Y-69826190D01*
X57697714Y-69873809D01*
X57745333Y-69969047D01*
X57745333Y-70111904D01*
X57697714Y-70207142D01*
X57650095Y-70254761D01*
X57554857Y-70302380D01*
X57173904Y-70302380D01*
X57173904Y-69302380D01*
X57507238Y-69302380D01*
X57602476Y-69350000D01*
X57650095Y-69397619D01*
X57697714Y-69492857D01*
X57697714Y-69588095D01*
X57650095Y-69683333D01*
X57602476Y-69730952D01*
X57507238Y-69778571D01*
X57173904Y-69778571D01*
X58078666Y-69302380D02*
X58697714Y-69302380D01*
X58364380Y-69683333D01*
X58507238Y-69683333D01*
X58602476Y-69730952D01*
X58650095Y-69778571D01*
X58697714Y-69873809D01*
X58697714Y-70111904D01*
X58650095Y-70207142D01*
X58602476Y-70254761D01*
X58507238Y-70302380D01*
X58221523Y-70302380D01*
X58126285Y-70254761D01*
X58078666Y-70207142D01*
X66397238Y-69778571D02*
X66540095Y-69826190D01*
X66587714Y-69873809D01*
X66635333Y-69969047D01*
X66635333Y-70111904D01*
X66587714Y-70207142D01*
X66540095Y-70254761D01*
X66444857Y-70302380D01*
X66063904Y-70302380D01*
X66063904Y-69302380D01*
X66397238Y-69302380D01*
X66492476Y-69350000D01*
X66540095Y-69397619D01*
X66587714Y-69492857D01*
X66587714Y-69588095D01*
X66540095Y-69683333D01*
X66492476Y-69730952D01*
X66397238Y-69778571D01*
X66063904Y-69778571D01*
X67587714Y-70302380D02*
X67016285Y-70302380D01*
X67302000Y-70302380D02*
X67302000Y-69302380D01*
X67206761Y-69445238D01*
X67111523Y-69540476D01*
X67016285Y-69588095D01*
X70969238Y-69778571D02*
X71112095Y-69826190D01*
X71159714Y-69873809D01*
X71207333Y-69969047D01*
X71207333Y-70111904D01*
X71159714Y-70207142D01*
X71112095Y-70254761D01*
X71016857Y-70302380D01*
X70635904Y-70302380D01*
X70635904Y-69302380D01*
X70969238Y-69302380D01*
X71064476Y-69350000D01*
X71112095Y-69397619D01*
X71159714Y-69492857D01*
X71159714Y-69588095D01*
X71112095Y-69683333D01*
X71064476Y-69730952D01*
X70969238Y-69778571D01*
X70635904Y-69778571D01*
X71826380Y-69302380D02*
X71921619Y-69302380D01*
X72016857Y-69350000D01*
X72064476Y-69397619D01*
X72112095Y-69492857D01*
X72159714Y-69683333D01*
X72159714Y-69921428D01*
X72112095Y-70111904D01*
X72064476Y-70207142D01*
X72016857Y-70254761D01*
X71921619Y-70302380D01*
X71826380Y-70302380D01*
X71731142Y-70254761D01*
X71683523Y-70207142D01*
X71635904Y-70111904D01*
X71588285Y-69921428D01*
X71588285Y-69683333D01*
X71635904Y-69492857D01*
X71683523Y-69397619D01*
X71731142Y-69350000D01*
X71826380Y-69302380D01*
X62079238Y-69778571D02*
X62222095Y-69826190D01*
X62269714Y-69873809D01*
X62317333Y-69969047D01*
X62317333Y-70111904D01*
X62269714Y-70207142D01*
X62222095Y-70254761D01*
X62126857Y-70302380D01*
X61745904Y-70302380D01*
X61745904Y-69302380D01*
X62079238Y-69302380D01*
X62174476Y-69350000D01*
X62222095Y-69397619D01*
X62269714Y-69492857D01*
X62269714Y-69588095D01*
X62222095Y-69683333D01*
X62174476Y-69730952D01*
X62079238Y-69778571D01*
X61745904Y-69778571D01*
X62698285Y-69397619D02*
X62745904Y-69350000D01*
X62841142Y-69302380D01*
X63079238Y-69302380D01*
X63174476Y-69350000D01*
X63222095Y-69397619D01*
X63269714Y-69492857D01*
X63269714Y-69588095D01*
X63222095Y-69730952D01*
X62650666Y-70302380D01*
X63269714Y-70302380D01*
X52625714Y-70016666D02*
X53101904Y-70016666D01*
X52530476Y-70302380D02*
X52863809Y-69302380D01*
X53197142Y-70302380D01*
X53720952Y-69302380D02*
X53816190Y-69302380D01*
X53911428Y-69350000D01*
X53959047Y-69397619D01*
X54006666Y-69492857D01*
X54054285Y-69683333D01*
X54054285Y-69921428D01*
X54006666Y-70111904D01*
X53959047Y-70207142D01*
X53911428Y-70254761D01*
X53816190Y-70302380D01*
X53720952Y-70302380D01*
X53625714Y-70254761D01*
X53578095Y-70207142D01*
X53530476Y-70111904D01*
X53482857Y-69921428D01*
X53482857Y-69683333D01*
X53530476Y-69492857D01*
X53578095Y-69397619D01*
X53625714Y-69350000D01*
X53720952Y-69302380D01*
X48307714Y-70016666D02*
X48783904Y-70016666D01*
X48212476Y-70302380D02*
X48545809Y-69302380D01*
X48879142Y-70302380D01*
X49736285Y-70302380D02*
X49164857Y-70302380D01*
X49450571Y-70302380D02*
X49450571Y-69302380D01*
X49355333Y-69445238D01*
X49260095Y-69540476D01*
X49164857Y-69588095D01*
X43989714Y-70016666D02*
X44465904Y-70016666D01*
X43894476Y-70302380D02*
X44227809Y-69302380D01*
X44561142Y-70302380D01*
X44846857Y-69397619D02*
X44894476Y-69350000D01*
X44989714Y-69302380D01*
X45227809Y-69302380D01*
X45323047Y-69350000D01*
X45370666Y-69397619D01*
X45418285Y-69492857D01*
X45418285Y-69588095D01*
X45370666Y-69730952D01*
X44799238Y-70302380D01*
X45418285Y-70302380D01*
X39417714Y-70016666D02*
X39893904Y-70016666D01*
X39322476Y-70302380D02*
X39655809Y-69302380D01*
X39989142Y-70302380D01*
X40227238Y-69302380D02*
X40846285Y-69302380D01*
X40512952Y-69683333D01*
X40655809Y-69683333D01*
X40751047Y-69730952D01*
X40798666Y-69778571D01*
X40846285Y-69873809D01*
X40846285Y-70111904D01*
X40798666Y-70207142D01*
X40751047Y-70254761D01*
X40655809Y-70302380D01*
X40370095Y-70302380D01*
X40274857Y-70254761D01*
X40227238Y-70207142D01*
%TO.C,SW1*%
X71144761Y-36935833D02*
X71192380Y-36792976D01*
X71192380Y-36554880D01*
X71144761Y-36459642D01*
X71097142Y-36412023D01*
X71001904Y-36364404D01*
X70906666Y-36364404D01*
X70811428Y-36412023D01*
X70763809Y-36459642D01*
X70716190Y-36554880D01*
X70668571Y-36745357D01*
X70620952Y-36840595D01*
X70573333Y-36888214D01*
X70478095Y-36935833D01*
X70382857Y-36935833D01*
X70287619Y-36888214D01*
X70240000Y-36840595D01*
X70192380Y-36745357D01*
X70192380Y-36507261D01*
X70240000Y-36364404D01*
X70192380Y-36031071D02*
X71192380Y-35792976D01*
X70478095Y-35602500D01*
X71192380Y-35412023D01*
X70192380Y-35173928D01*
X71192380Y-34269166D02*
X71192380Y-34840595D01*
X71192380Y-34554880D02*
X70192380Y-34554880D01*
X70335238Y-34650119D01*
X70430476Y-34745357D01*
X70478095Y-34840595D01*
D14*
%TO.C,U6*%
X97984000Y-49664000D02*
X97984000Y-70224000D01*
X105774000Y-49724000D02*
X104124000Y-49724000D01*
X100474000Y-70164000D02*
X105774000Y-70164000D01*
X108264000Y-70224000D02*
X108264000Y-49664000D01*
X100474000Y-49724000D02*
X100474000Y-70164000D01*
X108264000Y-49664000D02*
X97984000Y-49664000D01*
X105774000Y-70164000D02*
X105774000Y-49724000D01*
X97984000Y-70224000D02*
X108264000Y-70224000D01*
X102124000Y-49724000D02*
X100474000Y-49724000D01*
X102124000Y-49724000D02*
G75*
G03*
X104124000Y-49724000I1000000J0D01*
G01*
%TO.C,SW1*%
X64215000Y-33572500D02*
X64215000Y-34925833D01*
X49815000Y-33572500D02*
X49815000Y-34925833D01*
X62875000Y-37632500D02*
X62875000Y-33572500D01*
X56835000Y-33572500D02*
X56835000Y-34925833D01*
X69740000Y-30652500D02*
X47119000Y-30652500D01*
X54775000Y-33572500D02*
X54775000Y-34925833D01*
X59375000Y-33572500D02*
X59375000Y-34925833D01*
X51515000Y-33572500D02*
X51515000Y-34925833D01*
X49695000Y-33572500D02*
X49695000Y-34925833D01*
X50175000Y-34925833D02*
X48905000Y-34925833D01*
X67835000Y-33572500D02*
X67835000Y-34925833D01*
X66685000Y-33572500D02*
X66685000Y-37632500D01*
X53985000Y-37632500D02*
X55255000Y-37632500D01*
X64455000Y-33572500D02*
X64455000Y-34925833D01*
X57075000Y-33572500D02*
X57075000Y-34925833D01*
X51875000Y-33572500D02*
X51875000Y-34925833D01*
X69980000Y-30412500D02*
X69980000Y-31796500D01*
X52715000Y-33572500D02*
X51445000Y-33572500D01*
X61915000Y-33572500D02*
X61915000Y-34925833D01*
X57315000Y-33572500D02*
X57315000Y-34925833D01*
X62155000Y-33572500D02*
X62155000Y-34925833D01*
X54535000Y-33572500D02*
X54535000Y-34925833D01*
X51635000Y-33572500D02*
X51635000Y-34925833D01*
X49335000Y-33572500D02*
X49335000Y-34925833D01*
X64935000Y-33572500D02*
X64935000Y-34925833D01*
X48905000Y-37632500D02*
X50175000Y-37632500D01*
X64145000Y-33572500D02*
X64145000Y-37632500D01*
X62035000Y-33572500D02*
X62035000Y-34925833D01*
X50175000Y-37632500D02*
X50175000Y-33572500D01*
X67595000Y-33572500D02*
X67595000Y-34925833D01*
X64815000Y-33572500D02*
X64815000Y-34925833D01*
X67475000Y-33572500D02*
X67475000Y-34925833D01*
X65415000Y-33572500D02*
X64145000Y-33572500D01*
X64145000Y-37632500D02*
X65415000Y-37632500D01*
X52595000Y-33572500D02*
X52595000Y-34925833D01*
X59135000Y-33572500D02*
X59135000Y-34925833D01*
X57795000Y-34925833D02*
X56525000Y-34925833D01*
X60335000Y-33572500D02*
X59065000Y-33572500D01*
X61675000Y-33572500D02*
X61675000Y-34925833D01*
X57195000Y-33572500D02*
X57195000Y-34925833D01*
X52715000Y-34925833D02*
X51445000Y-34925833D01*
X59735000Y-33572500D02*
X59735000Y-34925833D01*
X59495000Y-33572500D02*
X59495000Y-34925833D01*
X54415000Y-33572500D02*
X54415000Y-34925833D01*
X65055000Y-33572500D02*
X65055000Y-34925833D01*
X67715000Y-33572500D02*
X67715000Y-34925833D01*
X62875000Y-34925833D02*
X61605000Y-34925833D01*
X49095000Y-33572500D02*
X49095000Y-34925833D01*
X61605000Y-33572500D02*
X61605000Y-37632500D01*
X60215000Y-33572500D02*
X60215000Y-34925833D01*
X54175000Y-33572500D02*
X54175000Y-34925833D01*
X51445000Y-37632500D02*
X52715000Y-37632500D01*
X47119000Y-30652500D02*
X47119000Y-40552500D01*
X57675000Y-33572500D02*
X57675000Y-34925833D01*
X52715000Y-37632500D02*
X52715000Y-33572500D01*
X57435000Y-33572500D02*
X57435000Y-34925833D01*
X57795000Y-37632500D02*
X57795000Y-33572500D01*
X49575000Y-33572500D02*
X49575000Y-34925833D01*
X67115000Y-33572500D02*
X67115000Y-34925833D01*
X51755000Y-33572500D02*
X51755000Y-34925833D01*
X66995000Y-33572500D02*
X66995000Y-34925833D01*
X52235000Y-33572500D02*
X52235000Y-34925833D01*
X60335000Y-34925833D02*
X59065000Y-34925833D01*
X65415000Y-34925833D02*
X64145000Y-34925833D01*
X69740000Y-40552500D02*
X47119000Y-40552500D01*
X62395000Y-33572500D02*
X62395000Y-34925833D01*
X66755000Y-33572500D02*
X66755000Y-34925833D01*
X67955000Y-34925833D02*
X66685000Y-34925833D01*
X54655000Y-33572500D02*
X54655000Y-34925833D01*
X48905000Y-33572500D02*
X48905000Y-37632500D01*
X49935000Y-33572500D02*
X49935000Y-34925833D01*
X66685000Y-37632500D02*
X67955000Y-37632500D01*
X50055000Y-33572500D02*
X50055000Y-34925833D01*
X65295000Y-33572500D02*
X65295000Y-34925833D01*
X62515000Y-33572500D02*
X62515000Y-34925833D01*
X52355000Y-33572500D02*
X52355000Y-34925833D01*
X54055000Y-33572500D02*
X54055000Y-34925833D01*
X60095000Y-33572500D02*
X60095000Y-34925833D01*
X51995000Y-33572500D02*
X51995000Y-34925833D01*
X52475000Y-33572500D02*
X52475000Y-34925833D01*
X54295000Y-33572500D02*
X54295000Y-34925833D01*
X62875000Y-33572500D02*
X61605000Y-33572500D01*
X55015000Y-33572500D02*
X55015000Y-34925833D01*
X51445000Y-33572500D02*
X51445000Y-37632500D01*
X65415000Y-37632500D02*
X65415000Y-33572500D01*
X59065000Y-33572500D02*
X59065000Y-37632500D01*
X59065000Y-37632500D02*
X60335000Y-37632500D01*
X56595000Y-33572500D02*
X56595000Y-34925833D01*
X61605000Y-37632500D02*
X62875000Y-37632500D01*
X64695000Y-33572500D02*
X64695000Y-34925833D01*
X59255000Y-33572500D02*
X59255000Y-34925833D01*
X59615000Y-33572500D02*
X59615000Y-34925833D01*
X61795000Y-33572500D02*
X61795000Y-34925833D01*
X48975000Y-33572500D02*
X48975000Y-34925833D01*
X59975000Y-33572500D02*
X59975000Y-34925833D01*
X67355000Y-33572500D02*
X67355000Y-34925833D01*
X56525000Y-37632500D02*
X57795000Y-37632500D01*
X49215000Y-33572500D02*
X49215000Y-34925833D01*
X49455000Y-33572500D02*
X49455000Y-34925833D01*
X55255000Y-37632500D02*
X55255000Y-33572500D01*
X67955000Y-33572500D02*
X66685000Y-33572500D01*
X64335000Y-33572500D02*
X64335000Y-34925833D01*
X69980000Y-30412500D02*
X68597000Y-30412500D01*
X65175000Y-33572500D02*
X65175000Y-34925833D01*
X55135000Y-33572500D02*
X55135000Y-34925833D01*
X60335000Y-37632500D02*
X60335000Y-33572500D01*
X67955000Y-37632500D02*
X67955000Y-33572500D01*
X54895000Y-33572500D02*
X54895000Y-34925833D01*
X55255000Y-34925833D02*
X53985000Y-34925833D01*
X64575000Y-33572500D02*
X64575000Y-34925833D01*
X66875000Y-33572500D02*
X66875000Y-34925833D01*
X57795000Y-33572500D02*
X56525000Y-33572500D01*
X62635000Y-33572500D02*
X62635000Y-34925833D01*
X62275000Y-33572500D02*
X62275000Y-34925833D01*
X55255000Y-33572500D02*
X53985000Y-33572500D01*
X62755000Y-33572500D02*
X62755000Y-34925833D01*
X69740000Y-30652500D02*
X69740000Y-40552500D01*
X59855000Y-33572500D02*
X59855000Y-34925833D01*
X56715000Y-33572500D02*
X56715000Y-34925833D01*
X50175000Y-33572500D02*
X48905000Y-33572500D01*
X56525000Y-33572500D02*
X56525000Y-37632500D01*
X56955000Y-33572500D02*
X56955000Y-34925833D01*
X52115000Y-33572500D02*
X52115000Y-34925833D01*
X67235000Y-33572500D02*
X67235000Y-34925833D01*
X57555000Y-33572500D02*
X57555000Y-34925833D01*
X53985000Y-33572500D02*
X53985000Y-37632500D01*
%TO.C,R21*%
X58705000Y-55230000D02*
X58705000Y-59070000D01*
X56865000Y-55230000D02*
X56865000Y-59070000D01*
%TO.C,R20*%
X56165000Y-55230000D02*
X56165000Y-59070000D01*
X54325000Y-55230000D02*
X54325000Y-59070000D01*
%TO.C,R19*%
X53625000Y-55230000D02*
X53625000Y-59070000D01*
X51785000Y-55230000D02*
X51785000Y-59070000D01*
%TO.C,R18*%
X51085000Y-55230000D02*
X51085000Y-59070000D01*
X49245000Y-55230000D02*
X49245000Y-59070000D01*
%TO.C,R17*%
X46705000Y-55230000D02*
X46705000Y-59070000D01*
X48545000Y-55230000D02*
X48545000Y-59070000D01*
%TO.C,R16*%
X44165000Y-55230000D02*
X44165000Y-59070000D01*
X46005000Y-55230000D02*
X46005000Y-59070000D01*
%TO.C,R15*%
X41625000Y-55230000D02*
X41625000Y-59070000D01*
X43465000Y-55230000D02*
X43465000Y-59070000D01*
%TO.C,R14*%
X39085000Y-55230000D02*
X39085000Y-59070000D01*
X40925000Y-55230000D02*
X40925000Y-59070000D01*
%TO.C,D13*%
X73584732Y-66566371D02*
G75*
G03*
X71270000Y-66624596I-1194732J1456371D01*
G01*
%TO.C,D12*%
X69139732Y-66566371D02*
G75*
G03*
X66825000Y-66624596I-1194732J1456371D01*
G01*
%TO.C,D11*%
X64694732Y-66566371D02*
G75*
G03*
X62380000Y-66624596I-1194732J1456371D01*
G01*
%TO.C,D10*%
X60249732Y-66566371D02*
G75*
G03*
X57935000Y-66624596I-1194732J1456371D01*
G01*
%TO.C,D9*%
X55804732Y-66566371D02*
G75*
G03*
X53490000Y-66624596I-1194732J1456371D01*
G01*
%TO.C,D8*%
X51359732Y-66566371D02*
G75*
G03*
X49045000Y-66624596I-1194732J1456371D01*
G01*
%TO.C,D7*%
X46914732Y-66566371D02*
G75*
G03*
X44600000Y-66624596I-1194732J1456371D01*
G01*
%TO.C,D6*%
X42469732Y-66566371D02*
G75*
G03*
X40155000Y-66624596I-1194732J1456371D01*
G01*
%TO.C,D5*%
X114986732Y-65210371D02*
G75*
G03*
X112672000Y-65268596I-1194732J1456371D01*
G01*
%TO.C,R8*%
X53625000Y-47610000D02*
X53625000Y-51450000D01*
X51785000Y-47610000D02*
X51785000Y-51450000D01*
%TO.C,R12*%
X41625000Y-47610000D02*
X41625000Y-51450000D01*
X43465000Y-47610000D02*
X43465000Y-51450000D01*
%TO.C,R2*%
X123094000Y-55484000D02*
X123094000Y-59324000D01*
X121254000Y-55484000D02*
X121254000Y-59324000D01*
%TO.C,R6*%
X56865000Y-47610000D02*
X56865000Y-51450000D01*
X58705000Y-47610000D02*
X58705000Y-51450000D01*
%TO.C,U2*%
X85360000Y-52010000D02*
G75*
G03*
X87360000Y-52010000I1000000J0D01*
G01*
X89010000Y-69910000D02*
X89010000Y-52010000D01*
X81220000Y-69970000D02*
X91500000Y-69970000D01*
X91500000Y-51950000D02*
X81220000Y-51950000D01*
X83710000Y-69910000D02*
X89010000Y-69910000D01*
X85360000Y-52010000D02*
X83710000Y-52010000D01*
X91500000Y-69970000D02*
X91500000Y-51950000D01*
X81220000Y-51950000D02*
X81220000Y-69970000D01*
X89010000Y-52010000D02*
X87360000Y-52010000D01*
X83710000Y-52010000D02*
X83710000Y-69910000D01*
%TO.C,R3*%
X123540000Y-55484000D02*
X123540000Y-59324000D01*
X125380000Y-55484000D02*
X125380000Y-59324000D01*
%TO.C,U4*%
X116602000Y-27880000D02*
G75*
G03*
X118602000Y-27880000I1000000J0D01*
G01*
X120252000Y-27880000D02*
X118602000Y-27880000D01*
X112462000Y-48380000D02*
X122742000Y-48380000D01*
X120252000Y-48320000D02*
X120252000Y-27880000D01*
X122742000Y-48380000D02*
X122742000Y-27820000D01*
X116602000Y-27880000D02*
X114952000Y-27880000D01*
X112462000Y-27820000D02*
X112462000Y-48380000D01*
X114952000Y-48320000D02*
X120252000Y-48320000D01*
X114952000Y-27880000D02*
X114952000Y-48320000D01*
X122742000Y-27820000D02*
X112462000Y-27820000D01*
%TO.C,R1*%
X120808000Y-55484000D02*
X120808000Y-59324000D01*
X118968000Y-55484000D02*
X118968000Y-59324000D01*
%TO.C,R4*%
X125826000Y-55484000D02*
X125826000Y-59324000D01*
X127666000Y-55484000D02*
X127666000Y-59324000D01*
%TO.C,D1*%
X122098732Y-65464371D02*
G75*
G03*
X119784000Y-65522596I-1194732J1456371D01*
G01*
%TO.C,R11*%
X44165000Y-47610000D02*
X44165000Y-51450000D01*
X46005000Y-47610000D02*
X46005000Y-51450000D01*
%TO.C,R13*%
X40925000Y-47610000D02*
X40925000Y-51450000D01*
X39085000Y-47610000D02*
X39085000Y-51450000D01*
%TO.C,U5*%
X108274000Y-48370000D02*
X108274000Y-27810000D01*
X100484000Y-27870000D02*
X100484000Y-48310000D01*
X102134000Y-27870000D02*
X100484000Y-27870000D01*
X105784000Y-48310000D02*
X105784000Y-27870000D01*
X105784000Y-27870000D02*
X104134000Y-27870000D01*
X108274000Y-27810000D02*
X97994000Y-27810000D01*
X97994000Y-48370000D02*
X108274000Y-48370000D01*
X97994000Y-27810000D02*
X97994000Y-48370000D01*
X100484000Y-48310000D02*
X105784000Y-48310000D01*
X102134000Y-27870000D02*
G75*
G03*
X104134000Y-27870000I1000000J0D01*
G01*
%TO.C,R5*%
X111856000Y-55484000D02*
X111856000Y-59324000D01*
X113696000Y-55484000D02*
X113696000Y-59324000D01*
%TO.C,D3*%
X132258732Y-65464371D02*
G75*
G03*
X129944000Y-65522596I-1194732J1456371D01*
G01*
%TO.C,U1*%
X85370000Y-30415000D02*
G75*
G03*
X87370000Y-30415000I1000000J0D01*
G01*
X81230000Y-48375000D02*
X91510000Y-48375000D01*
X89020000Y-48315000D02*
X89020000Y-30415000D01*
X89020000Y-30415000D02*
X87370000Y-30415000D01*
X91510000Y-30355000D02*
X81230000Y-30355000D01*
X85370000Y-30415000D02*
X83720000Y-30415000D01*
X83720000Y-48315000D02*
X89020000Y-48315000D01*
X91510000Y-48375000D02*
X91510000Y-30355000D01*
X81230000Y-30355000D02*
X81230000Y-48375000D01*
X83720000Y-30415000D02*
X83720000Y-48315000D01*
%TO.C,R10*%
X46705000Y-47610000D02*
X46705000Y-51450000D01*
X48545000Y-47610000D02*
X48545000Y-51450000D01*
%TO.C,D4*%
X137338732Y-65464371D02*
G75*
G03*
X135024000Y-65522596I-1194732J1456371D01*
G01*
%TO.C,R9*%
X49245000Y-47610000D02*
X49245000Y-51450000D01*
X51085000Y-47610000D02*
X51085000Y-51450000D01*
%TO.C,R7*%
X54325000Y-47610000D02*
X54325000Y-51450000D01*
X56165000Y-47610000D02*
X56165000Y-51450000D01*
%TO.C,U3*%
X71475000Y-61025000D02*
G75*
G03*
X69475000Y-61025000I-1000000J0D01*
G01*
X73125000Y-43125000D02*
X67825000Y-43125000D01*
X67825000Y-61025000D02*
X69475000Y-61025000D01*
X73125000Y-61025000D02*
X73125000Y-43125000D01*
X71475000Y-61025000D02*
X73125000Y-61025000D01*
X65335000Y-61085000D02*
X75615000Y-61085000D01*
X75615000Y-61085000D02*
X75615000Y-43065000D01*
X65335000Y-43065000D02*
X65335000Y-61085000D01*
X75615000Y-43065000D02*
X65335000Y-43065000D01*
X67825000Y-43125000D02*
X67825000Y-61025000D01*
%TO.C,D2*%
X127178732Y-65464371D02*
G75*
G03*
X124864000Y-65522596I-1194732J1456371D01*
G01*
%TD*%
M02*
